<?xml version="1.0" standalone="no"?>
<!DOCTYPE svg PUBLIC "-//W3C//DTD SVG 1.1//EN" "http://www.w3.org/Graphics/SVG/1.1/DTD/svg11.dtd" >
<svg xmlns="http://www.w3.org/2000/svg" xmlns:xlink="http://www.w3.org/1999/xlink" version="1.1">
<metadata></metadata>
<defs>
<font id="neusabold" horiz-adv-x="788" >
<font-face units-per-em="2048" ascent="1536" descent="-512" />
<missing-glyph horiz-adv-x="614" />
<glyph unicode="&#xfb01;" horiz-adv-x="983" d="M53 816v207h112v68q0 104 22.5 176.5t64.5 111.5t91.5 56t113.5 17h91v-207h-28q-71 -1 -97.5 -39t-27.5 -147l1 -35h152v-208h-152v-816h-230v816h-113zM668 1160v229h251v-229h-251zM678 0v1024h231v-1024h-231z" />
<glyph unicode="&#xfb02;" horiz-adv-x="956" d="M53 816v207h112v68q0 104 22.5 176.5t64.5 111.5t91.5 56t113.5 17h91v-207h-29q-71 -1 -97 -40t-27 -150l1 -31h152v-208h-152v-816h-230v816h-113zM668 0v1434h231v-1434h-231z" />
<glyph horiz-adv-x="0" />
<glyph horiz-adv-x="682" />
<glyph unicode=" "  horiz-adv-x="614" />
<glyph unicode="&#x09;" horiz-adv-x="614" />
<glyph unicode="&#xa0;" horiz-adv-x="614" />
<glyph unicode="!" horiz-adv-x="454" d="M102 0v247h251v-247h-251zM107 940v494h241v-492l-32 -535h-177z" />
<glyph unicode="&#x22;" horiz-adv-x="698" d="M59 1434h246l-38 -549h-170zM394 1434h246l-38 -549h-170z" />
<glyph unicode="#" horiz-adv-x="1380" d="M44 356l80 267h179l35 147h-179l80 267h180l106 397h288l-107 -397h160l107 397h289l-108 -397h183l-80 -267h-183l-35 -147h183l-76 -267h-187l-95 -356h-288l96 356h-161l-96 -356h-287l95 356h-179zM591 623h161l34 147h-160z" />
<glyph unicode="$" horiz-adv-x="948" d="M50 451h265q1 -100 43.5 -150.5t112.5 -50.5q78 0 116 46.5t38 124.5q0 86 -48.5 123t-171.5 62q-44 9 -83.5 22.5t-86.5 44t-80 71.5t-55.5 108t-22.5 150q0 176 72 279t188 141v114h283v-112q115 -37 186.5 -145.5t71.5 -297.5h-264q0 99 -37 152t-97 53 q-61 0 -95 -45.5t-34 -121.5q0 -30 7.5 -53t23.5 -38.5t30 -26t41 -18.5t42 -11.5t46 -9.5q98 -18 169.5 -59t111.5 -98t58.5 -120t18.5 -136q0 -189 -75.5 -296t-203.5 -143v-112h-283v109q-58 16 -107 48.5t-90 84.5t-65 131.5t-25 179.5z" />
<glyph unicode="%" horiz-adv-x="1476" d="M102 902v304q0 55 18 99t45 70t61.5 43.5t65 24t58.5 6.5q39 0 79.5 -12.5t79.5 -39t64 -76.5t25 -115v-304q0 -53 -17 -95.5t-43 -68.5t-60 -44t-65.5 -25.5t-62.5 -8.5q-28 0 -58.5 6.5t-65 24t-61.5 43.5t-45 69.5t-18 98.5zM271 896q0 -40 25.5 -58.5t53.5 -18.5 q30 1 54.5 20t24.5 57v317q0 38 -24.5 57.5t-54.5 19.5q-28 0 -53.5 -18.5t-25.5 -58.5v-317zM321 0l645 1434h189l-646 -1434h-188zM878 228v304q0 55 18 99t45 70t61.5 43.5t65 24t58.5 6.5q39 0 79.5 -12.5t79.5 -39t64 -76.5t25 -115v-304q0 -65 -25 -114.5t-64 -75.5 t-79.5 -39t-79.5 -13q-28 0 -58.5 6.5t-65 24t-61.5 43.5t-45 69.5t-18 98.5zM1047 221q0 -39 25 -57t54 -19q30 0 54.5 19t24.5 57v317q0 38 -24.5 57.5t-54.5 19.5q-28 0 -53.5 -18.5t-25.5 -58.5v-317z" />
<glyph unicode="&#x26;" horiz-adv-x="1114" d="M53 423v16q0 104 42 182t106 104q-60 27 -101 102.5t-41 177.5v16q1 122 37.5 209t101 134t139 67t166.5 20h104v-265h-104q-79 0 -121 -41.5t-42 -121.5v-9q0 -73 44.5 -116t124.5 -43h204v252h274v-252h71v-260h-71v-150q0 -91 -16 -163.5t-47 -122t-71 -84t-93 -54 t-107 -28t-119 -9.5h-19q-77 0 -143 14t-125.5 46t-101.5 81.5t-66.5 125t-25.5 172.5zM334 419q0 -72 49 -120.5t138 -48.5h14q95 1 136.5 47.5t41.5 155.5v142h-204q-86 0 -130 -43t-45 -120v-13z" />
<glyph unicode="'" horiz-adv-x="450" d="M102 1434h247l-38 -549h-170z" />
<glyph unicode="(" horiz-adv-x="647" d="M102 51v1149q0 158 91.5 247t242.5 89h108v-266h-56q-42 0 -73 -32.5t-31 -82.5v-1059q0 -50 31 -82.5t73 -32.5h56v-266h-108q-151 0 -242.5 89t-91.5 247z" />
<glyph unicode=")" horiz-adv-x="647" d="M102 -19h56q43 0 74 32.5t31 82.5v1059q0 50 -31 82.5t-74 32.5h-56v266h109q151 0 242 -89t91 -247v-1149q0 -158 -91 -247t-242 -89h-109v266z" />
<glyph unicode="*" horiz-adv-x="999" d="M80 1070l76 235l239 -92l-14 255h246l-13 -255l237 92l77 -235l-247 -65l161 -199l-199 -144l-139 214l-139 -214l-199 144l161 199z" />
<glyph unicode="+" horiz-adv-x="1159" d="M102 423v267h336v336h284v-336h335v-267h-335v-335h-283v335h-337z" />
<glyph unicode="," horiz-adv-x="454" d="M102 0v247h251v-247l-91 -251h-96l43 251h-107z" />
<glyph unicode="-" horiz-adv-x="712" d="M102 416v267h508v-267h-508z" />
<glyph unicode="." horiz-adv-x="454" d="M102 0v247h251v-247h-251z" />
<glyph unicode="/" horiz-adv-x="872" d="M44 0l496 1434h288l-496 -1434h-288z" />
<glyph unicode="0" horiz-adv-x="966" d="M62 479v395q0 110 24.5 196.5t64.5 141.5t95.5 91.5t113.5 51t123 14.5q64 0 121.5 -14.5t114 -50.5t97 -91t65.5 -142t25 -197v-395q0 -110 -25 -197t-65.5 -142t-97 -91t-114 -50.5t-121.5 -14.5q-65 0 -123 14.5t-113.5 51t-95.5 91.5t-64.5 141.5t-24.5 196.5z M343 494q0 -244 140 -244q67 0 104 59.5t37 184.5v366q0 124 -37.5 183.5t-103.5 59.5q-140 0 -140 -243v-366z" />
<glyph unicode="1" horiz-adv-x="507" d="M41 1086v266h404v-1352h-283v1086h-121z" />
<glyph unicode="2" horiz-adv-x="923" d="M42 906l1 13q4 98 31 176t67.5 128t94 83.5t108.5 47.5t115 15h17q59 -1 115 -15.5t109.5 -47.5t93 -82t64 -124t24.5 -168v-5q0 -76 -23.5 -141t-62.5 -112t-86.5 -87.5t-99.5 -77t-97.5 -71.5t-84 -79.5t-56.5 -92.5h498v-266h-827v135q0 81 19 151t51.5 122t74 97 t88 80t92.5 66.5t87.5 62t74 61.5t51.5 69t19 81q0 81 -37 129t-93 48h-10q-54 -2 -90 -52t-46 -144h-282z" />
<glyph unicode="3" horiz-adv-x="923" d="M41 424h274q8 -91 47 -132.5t98 -41.5h11q57 1 93.5 39t36.5 95v9q0 74 -44 117.5t-128 43.5h-113v260h113q77 0 121.5 41t44.5 113v9q0 53 -39 90t-88 37h-11q-54 -1 -92 -43t-48 -125h-275l1 11q5 112 43.5 196.5t98.5 132t128 70.5t142 24h16q58 0 112 -12t108 -41 t94 -73t65 -114t26 -157v-16q0 -96 -41.5 -171t-100.5 -102q64 -26 106 -103t42 -177v-13q0 -108 -35.5 -189t-95 -127t-129.5 -68.5t-149 -22.5h-18q-59 0 -114.5 14t-109 46.5t-93.5 80.5t-66.5 123t-29.5 167z" />
<glyph unicode="4" horiz-adv-x="993" d="M57 228v323l248 815h277l-245 -872h249v530h281v-530h86v-266h-86v-228h-281v228h-529z" />
<glyph unicode="5" horiz-adv-x="925" d="M44 423h274q8 -91 47 -133t98 -42h12q58 1 93.5 43t35.5 124v44q0 83 -45.5 113.5t-152.5 30.5h-315v763h712v-266h-430v-266l100 5q93 3 143 -8q73 -14 127 -53t84 -95t44 -118t14 -131v-52q-3 -103 -38.5 -181.5t-94.5 -124t-128 -68.5t-146 -24h-21q-59 0 -114.5 13.5 t-108.5 46t-93.5 80.5t-66.5 122.5t-29 166.5z" />
<glyph unicode="6" horiz-adv-x="940" d="M44 451v425q0 136 37 236t100 154.5t135 79.5t154 25q60 0 115.5 -13t110 -44.5t95 -80t66.5 -125t28 -172.5h-281q-1 84 -38.5 126.5t-95.5 42.5q-155 0 -155 -239v-126q65 82 188 85h36q82 2 146 -23t103 -66.5t64 -99.5t34.5 -114.5t9.5 -118.5q0 -65 -11 -122 t-39.5 -113t-73 -95.5t-115.5 -64t-162 -24.5h-47q-401 7 -404 467zM326 403q0 -152 128 -153h32q129 1 129 153q0 74 -32 115t-97 41h-32q-64 0 -96 -41t-32 -115z" />
<glyph unicode="7" horiz-adv-x="907" d="M48 1099v267h815v-215l-461 -1151h-285l442 1099h-511z" />
<glyph unicode="8" horiz-adv-x="942" d="M43 394v15q2 189 148 271q-69 47 -106.5 119.5t-37.5 162.5v14q1 105 48 194t140.5 144.5t215.5 55.5h40q122 0 215 -55.5t140 -144t48 -194.5v-14q0 -182 -142 -280q73 -40 111.5 -111t38.5 -162v-15q0 -114 -45 -204.5t-139.5 -146.5t-225.5 -56h-40q-131 0 -225 56 t-139 146.5t-45 204.5zM324 401q1 -148 135 -148h24q136 0 137 148v10q0 86 -38.5 121t-104.5 35h-12q-141 0 -141 -156v-10zM328 965q0 -132 136 -132h12q137 0 137 132v8q-1 73 -41 102t-90 28h-24q-49 1 -89 -28t-41 -102v-8z" />
<glyph unicode="9" horiz-adv-x="933" d="M41 952q0 65 11 122.5t39.5 113t73 95.5t115.5 64.5t162 24.5h48q401 -7 404 -468v-425q0 -136 -37 -236t-100 -154.5t-135 -79.5t-154 -25q-60 0 -115 13t-109.5 44.5t-95 79.5t-66.5 124.5t-29 173.5h281q1 -84 38.5 -126.5t95.5 -42.5q155 0 155 239v127 q-65 -84 -187 -85h-37q-82 -2 -146 23t-103 66.5t-64.5 99t-35 114t-9.5 118.5zM322 952q0 -74 32 -114.5t97 -40.5h33q127 0 127 155q0 153 -127 154h-33q-129 -1 -129 -154z" />
<glyph unicode=":" horiz-adv-x="454" d="M102 0v247h251v-247h-251zM102 695v247h251v-247h-251z" />
<glyph unicode=";" horiz-adv-x="454" d="M102 0v247h251v-247l-91 -251h-96l43 251h-107zM102 695v247h251v-247h-251z" />
<glyph unicode="&#x3c;" horiz-adv-x="1087" d="M102 553v80l884 425v-270l-403 -195l403 -193v-270z" />
<glyph unicode="=" horiz-adv-x="1161" d="M102 236v268h956v-268h-956zM102 615v267h956v-267h-956z" />
<glyph unicode="&#x3e;" horiz-adv-x="1087" d="M102 130v270l403 193l-403 195v270l883 -425v-79z" />
<glyph unicode="?" horiz-adv-x="1044" d="M102 977l1 11q4 97 30.5 175t66 128t92.5 84t107 48.5t113 16.5h18q76 0 145.5 -23.5t131 -72t98.5 -136.5t37 -204v-4q0 -81 -19.5 -141.5t-50.5 -96.5t-68.5 -64t-75 -51.5t-68.5 -50t-50.5 -69t-19.5 -99.5h-229q0 85 16.5 149t43 102.5t58.5 67.5t64 52t58.5 47 t43 61.5t16.5 88.5q0 81 -37.5 129.5t-93.5 48.5h-8q-55 -2 -91.5 -52.5t-46.5 -144.5h-282zM351 0v247h250v-247h-250z" />
<glyph unicode="@" horiz-adv-x="1726" d="M102 545q-1 232 48.5 398t149 267.5t239 148t327.5 46.5q135 -1 243 -20.5t187 -52.5t137 -85t94.5 -111.5t58.5 -137.5t30.5 -156.5t8.5 -176.5v-343q0 -141 -84 -231t-245 -90q-185 -1 -272 109q-70 -118 -221 -118q-51 0 -96 18.5t-85 58t-64 112.5t-24 172v338 q0 99 24 171.5t64 112t85 58t96 18.5q140 0 210 -103l31 85h160v-711q0 -55 19.5 -83.5t70.5 -28.5q100 0 100 118v357q0 71 -4.5 124.5t-18.5 109.5t-37 95t-62.5 75.5t-94 58.5t-131 35t-174.5 13q-96 0 -169 -11.5t-136 -40t-106 -76.5t-73.5 -120t-44.5 -172t-14 -231 q0 -349 120 -509.5t380 -160.5h289v-209h-290q-358 0 -542 212.5t-184 666.5zM765 468q1 -154 24.5 -210.5t80.5 -56.5t80 56.5t22 210.5v107q0 153 -24.5 210.5t-78.5 57.5q-55 0 -79.5 -57t-24.5 -211v-107z" />
<glyph unicode="A" horiz-adv-x="1042" d="M57 0l288 1434h351l289 -1434h-274l-65 317h-249l-66 -317h-274zM426 592h189l-94 531z" />
<glyph unicode="B" horiz-adv-x="929" d="M76 0v1434h375q78 0 148.5 -19t130.5 -57.5t95.5 -106t35.5 -155.5v-83q0 -187 -157 -273q90 -42 138.5 -120t48.5 -187v-71q0 -174 -115 -268t-315 -94h-385zM350 266h103q73 0 116 40.5t43 120.5v18q0 79 -42.5 120t-116.5 41h-103v-340zM350 857h96q64 0 106 37 t42 110v17q0 74 -42.5 110t-105.5 36h-96v-310z" />
<glyph unicode="C" horiz-adv-x="946" d="M74 479v477q0 110 24.5 197t64.5 142t95.5 91t113.5 51t123 15q62 0 118.5 -14t110.5 -49.5t93 -89t64 -138t26 -191.5v-44h-274v37q-9 223 -138 223q-140 0 -140 -243v-449q0 -244 140 -244q128 0 138 222v40h274v-45q-1 -108 -26 -192.5t-64 -138t-93 -89t-110 -49.5 t-119 -14q-65 0 -123 14.5t-113.5 51t-95.5 91.5t-64.5 141.5t-24.5 196.5z" />
<glyph unicode="D" horiz-adv-x="958" d="M76 0v1434h396q64 0 120.5 -13t112 -48t95 -89.5t64 -143t24.5 -202.5v-442q0 -114 -24.5 -202.5t-64 -143t-95 -89.5t-112 -48t-120.5 -13h-396zM350 266h122q67 0 104.5 60t37.5 184v415q0 124 -37.5 183t-104.5 59h-122v-901z" />
<glyph unicode="E" horiz-adv-x="735" d="M76 0v1434h621v-267h-347v-309h327v-266h-327v-326h347v-266h-621z" />
<glyph unicode="F" horiz-adv-x="716" d="M76 0v1434h603v-267h-329v-331h308v-266h-308v-570h-274z" />
<glyph unicode="G" horiz-adv-x="968" d="M74 479v477q0 110 23.5 196.5t62.5 142t93.5 91.5t111.5 51t122 15q80 0 149 -24.5t129 -78.5t95 -153t36 -234v-22h-267v14q-6 232 -142 232q-139 0 -139 -243v-449q0 -244 139 -244q142 0 142 234v67h-140v266h408v-338q0 -110 -23.5 -197t-62.5 -142t-93 -91 t-111 -50.5t-120 -14.5q-82 0 -152 25t-130.5 79.5t-95.5 154.5t-35 236z" />
<glyph unicode="H" horiz-adv-x="956" d="M76 0v1434h274v-576h255v576h274v-1434h-274v592h-255v-592h-274z" />
<glyph unicode="I" horiz-adv-x="436" d="M76 0v1434h284v-1434h-284z" />
<glyph unicode="J" horiz-adv-x="653" d="M57 -16v266h69q179 4 179 244v940h274v-955q0 -108 -23.5 -194t-61.5 -140.5t-91 -91.5t-108.5 -52.5t-116.5 -16.5h-121z" />
<glyph unicode="K" horiz-adv-x="1024" d="M76 0v1434h284v-564l264 565h310l-326 -709l360 -726h-318l-290 594v-594h-284z" />
<glyph unicode="L" horiz-adv-x="735" d="M76 0v1434h274v-1168h329v-266h-603z" />
<glyph unicode="M" horiz-adv-x="1275" d="M72 0v1434h338l225 -851l226 851h338v-1434h-266v799l-214 -799h-167l-215 799v-799h-265z" />
<glyph unicode="N" horiz-adv-x="1021" d="M72 0v1434h269l345 -804v804h265v-1434h-270l-344 804v-804h-265z" />
<glyph unicode="O" horiz-adv-x="978" d="M68 479v477q0 110 24.5 197t64.5 142t95.5 91t113.5 51t123 15q64 0 121.5 -14.5t114 -50.5t97 -91t65.5 -142.5t25 -197.5v-477q0 -110 -25 -197t-65.5 -142t-97 -91t-114 -50.5t-121.5 -14.5q-65 0 -123 14.5t-113.5 51t-95.5 91.5t-64.5 141.5t-24.5 196.5zM349 494 q0 -244 140 -244q67 0 104 59.5t37 184.5v449q0 124 -37.5 183.5t-103.5 59.5q-140 0 -140 -243v-449z" />
<glyph unicode="P" horiz-adv-x="937" d="M76 0v1433h330q69 0 132 -11.5t124.5 -40t106 -72.5t72 -114t27.5 -159v-93q0 -82 -24.5 -148.5t-64.5 -110.5t-96 -74.5t-115 -45t-124 -18.5h-94v-546h-274zM350 811h98q65 0 109 40t44 128v21q0 89 -44 129t-109 40h-98v-358z" />
<glyph unicode="Q" horiz-adv-x="1044" d="M74 479v477q0 110 23.5 196.5t62.5 142t93.5 91.5t111.5 51t122 15q64 0 121 -14.5t112 -50.5t94.5 -91t64 -142.5t24.5 -197.5v-477q0 -130 -33 -229h100v-265h-444q-13 -1 -39 -1q-82 0 -152 25t-130.5 79.5t-95.5 154.5t-35 236zM348 494q0 -244 139 -244h10h5 q127 13 127 244v449q0 124 -37.5 183.5t-104.5 59.5q-139 0 -139 -243v-449z" />
<glyph unicode="R" horiz-adv-x="958" d="M76 0v1433h336q70 0 132.5 -11.5t124 -40t106 -72.5t72 -114t27.5 -159v-87q0 -214 -175 -310l203 -639h-289l-156 552h-107v-552h-274zM350 816h104q64 0 108.5 40t44.5 129v15q0 89 -44 129t-109 40h-104v-353z" />
<glyph unicode="S" horiz-adv-x="948" d="M50 451h265q1 -100 43.5 -150.5t112.5 -50.5q78 0 116 45.5t38 122.5q0 46 -12 77t-41 52t-67 33.5t-100 25.5q-45 9 -84 22.5t-86 43.5t-80 71t-55.5 108t-22.5 151q0 99 23 177.5t61 129t91 83.5t109 46.5t119 13.5q62 0 117 -14t107.5 -48t90 -86.5t60.5 -135 t23 -187.5h-264q0 99 -37 152t-97 53q-61 0 -95 -45.5t-34 -121.5q0 -23 4.5 -41.5t14 -33t18 -25t26 -19t27.5 -13.5t33 -10.5t32.5 -7.5t34.5 -7q98 -18 169.5 -59t111.5 -98t58.5 -121t18.5 -138q0 -103 -23 -183t-62.5 -132t-95 -85.5t-116.5 -47.5t-131 -14 q-65 0 -123.5 14t-113.5 48.5t-94.5 86.5t-64 133.5t-25.5 184.5z" />
<glyph unicode="T" horiz-adv-x="864" d="M57 1167v267h750v-267h-238v-1167h-274v1167h-238z" />
<glyph unicode="U" horiz-adv-x="974" d="M76 465q0 -109 23.5 -194t62 -138.5t93 -87.5t111.5 -47.5t122 -13.5q64 0 120.5 13t111.5 47.5t94.5 87t63.5 138t24 195.5v969h-274v-955q0 -229 -140 -229q-69 0 -103.5 53.5t-34.5 175.5v955h-274v-969z" />
<glyph unicode="V" horiz-adv-x="1044" d="M57 1434h277l189 -999l188 999h277l-288 -1434h-356z" />
<glyph unicode="W" horiz-adv-x="1574" d="M57 1434h277l166 -981l159 981h256l160 -981l165 981h277l-264 -1434h-323l-143 762l-144 -762h-323z" />
<glyph unicode="X" horiz-adv-x="1048" d="M57 0l283 734l-267 700h285l167 -452l169 452h285l-273 -699l286 -735h-284l-182 469l-184 -469h-285z" />
<glyph unicode="Y" horiz-adv-x="1067" d="M57 1434h285l190 -566l192 566h285l-335 -879v-555h-284v554z" />
<glyph unicode="Z" horiz-adv-x="931" d="M50 0v221l528 946h-512v267h806v-228l-525 -939h534v-267h-831z" />
<glyph unicode="[" horiz-adv-x="618" d="M102 -287v1823h416v-267h-133v-1288h133v-268h-416z" />
<glyph unicode="\" horiz-adv-x="872" d="M44 1434h288l496 -1434h-288z" />
<glyph unicode="]" horiz-adv-x="618" d="M102 -19h134v1288h-134v267h416v-1823h-416v268z" />
<glyph unicode="^" horiz-adv-x="929" d="M102 950l363 474l362 -474h-198l-164 215l-165 -215h-198z" />
<glyph unicode="_" horiz-adv-x="1052" d="M102 -30h848v-267h-848v267z" />
<glyph unicode="`" horiz-adv-x="608" d="M118 1468h258l115 -329h-180z" />
<glyph unicode="a" d="M56 344v338q0 99 23.5 171.5t63.5 112t85 58t96 18.5q141 0 211 -103l30 85h161v-1024h-161l-29 90q-70 -106 -212 -106q-51 0 -96 18.5t-85 58t-63.5 112t-23.5 171.5zM286 459q0 -105 11.5 -163.5t33.5 -81t61 -22.5q57 0 80 56q22 54 22 198v13v108q0 153 -25 210 t-79 57q-37 0 -58.5 -22t-33.5 -81t-12 -164v-108z" />
<glyph unicode="b" d="M65 0v1434h230v-468q63 76 178 76q50 0 94.5 -18.5t83 -58t61 -112t22.5 -171.5v-338q0 -99 -22.5 -171.5t-61 -112t-83 -58t-94.5 -18.5q-145 0 -217 108l-31 -92h-160zM296 459v-13q0 -144 22 -198q23 -56 80 -56q39 0 61 22.5t33.5 81t11.5 163.5v108q0 105 -12 164 t-33.5 81t-58.5 22q-54 0 -79 -57t-25 -210v-108z" />
<glyph unicode="c" horiz-adv-x="772" d="M56 344v338q0 98 29.5 171t79.5 112.5t106 58t118 18.5t117 -17.5t104 -56t78.5 -110t30.5 -168.5v-52h-225q-1 108 -28 152t-76 44q-56 0 -80 -56.5t-24 -210.5v-108q1 -155 24 -211t81 -56q51 0 77 43.5t27 152.5h224v-50q-1 -78 -20.5 -140.5t-51.5 -101.5t-76 -65 t-88.5 -36.5t-93.5 -10.5q-62 0 -118 18.5t-106 58t-79.5 112.5t-29.5 171z" />
<glyph unicode="d" d="M56 344v338q0 99 22.5 171.5t61 112t83 58t94.5 18.5q116 0 179 -76v468h230v-1434h-161l-30 92q-72 -108 -218 -108q-50 0 -94.5 18.5t-83 58t-61 112t-22.5 171.5zM286 459q0 -105 11.5 -163.5t33.5 -81t61 -22.5q57 0 80 56q22 54 22 198v13v108q0 153 -25 210t-79 57 q-37 0 -58.5 -22t-33.5 -81t-12 -164v-108z" />
<glyph unicode="e" horiz-adv-x="776" d="M56 344v338q0 98 29.5 171t79.5 112.5t106 58t118 18.5q49 0 94.5 -10.5t90 -37t77 -66.5t53 -103t20.5 -143v-252h-437v-46q0 -107 25.5 -149t78.5 -43q98 0 103 147h230q-1 -79 -21.5 -141.5t-53 -101.5t-77 -65t-89.5 -36.5t-94 -10.5q-62 0 -118 18.5t-106 58 t-79.5 112.5t-29.5 171zM286 600h207v58q-1 174 -103 176q-51 -1 -77 -39.5t-27 -137.5v-57z" />
<glyph unicode="f" horiz-adv-x="600" d="M53 816v207h112v68q0 103 22.5 176t64.5 112t91.5 56t112.5 17h92v-207h-29q-71 -1 -97 -40.5t-27 -152.5l1 -28h152v-208h-152v-816h-230v816h-113z" />
<glyph unicode="g" d="M56 360v322q0 99 22.5 171.5t61 112t83 58t94.5 18.5q145 0 218 -107l30 90h161v-1019q0 -98 -30 -170.5t-80 -111.5t-105.5 -57.5t-117.5 -18.5q-43 0 -83.5 8.5t-81 28.5t-73 50t-56.5 77.5t-33 107.5h234q22 -64 91 -64q51 0 77.5 37t27.5 129v56q-64 -78 -179 -78 q-50 0 -94.5 18.5t-83 58t-61 112t-22.5 171.5zM286 464q0 -153 24 -210.5t80 -57.5q55 0 79.5 57.5t24.5 210.5v102q0 104 -11 163t-32.5 82t-58.5 23q-57 0 -81 -57t-25 -211v-102z" />
<glyph unicode="h" horiz-adv-x="794" d="M68 0v1434h230v-472q63 80 178 80q50 0 94.5 -18.5t83.5 -58t61.5 -112t22.5 -171.5v-682h-231v567q0 105 -12 164t-33.5 81t-58.5 22q-52 0 -78 -45t-27 -160v-629h-230z" />
<glyph unicode="i" horiz-adv-x="382" d="M68 1160v229h250v-229h-250zM78 0v1024h231v-1024h-231z" />
<glyph unicode="j" horiz-adv-x="520" d="M65 -147h28q74 1 99 45q24 43 24 161v10v955h232v-1017q0 -104 -22.5 -177t-64.5 -111.5t-92 -55.5t-114 -17h-90v207zM207 1161v228h249v-228h-249z" />
<glyph unicode="k" horiz-adv-x="776" d="M65 0v1434h231v-783l181 373h238l-213 -498l227 -526h-239l-194 404v-404h-231z" />
<glyph unicode="l" horiz-adv-x="356" d="M68 0v1434h231v-1434h-231z" />
<glyph unicode="m" horiz-adv-x="1228" d="M65 0v1024h160l33 -91q73 109 214 109q66 0 121.5 -31.5t88.5 -99.5q71 131 228 131q50 0 94.5 -18.5t83 -58t61 -112t22.5 -171.5v-682h-231v567q0 105 -12 164t-33.5 81t-58.5 22q-46 0 -72 -32.5t-31 -111.5v-690h-230v567q0 105 -12 164t-34 81t-59 22 q-50 0 -76 -40.5t-27 -143.5v-650h-230z" />
<glyph unicode="n" horiz-adv-x="792" d="M65 0v1024h160l34 -91q72 109 214 109q50 0 94.5 -18.5t83 -58t61 -112t22.5 -171.5v-682h-230v567q0 105 -12 164t-33.5 81t-58.5 22q-52 0 -78 -45t-27 -160v-629h-230z" />
<glyph unicode="o" horiz-adv-x="780" d="M56 344v338q0 98 29.5 171t79.5 112.5t106 58t118 18.5q49 0 94.5 -10.5t90.5 -37t77.5 -66.5t53 -103t20.5 -143v-338q0 -80 -20.5 -143t-53 -103t-77.5 -66.5t-90.5 -37t-94.5 -10.5q-62 0 -118 18.5t-106 58t-79.5 112.5t-29.5 171zM286 460q1 -155 24 -211.5 t81 -56.5q56 0 80 58q23 55 23 198v12v107q0 152 -25 209.5t-79 57.5q-56 0 -80 -56.5t-24 -210.5v-107z" />
<glyph unicode="p" d="M65 -334v1359h160l31 -92q73 109 218 109q50 0 94.5 -18.5t83 -58t61 -112.5t22.5 -172v-338q0 -99 -22.5 -171.5t-61 -112t-83 -58t-94.5 -18.5q-116 0 -179 76v-393h-230zM296 459q0 -153 25 -210.5t79 -57.5q55 0 79.5 57t24.5 211v107q-1 154 -24.5 211t-80.5 57 t-81 -57q-22 -55 -22 -199v-12v-107z" />
<glyph unicode="q" d="M56 343v338q0 99 22.5 172t61 112.5t83 58t94.5 18.5q145 0 218 -109l30 92h161v-1359h-230v393q-63 -76 -179 -76q-50 0 -94.5 18.5t-83 58t-61 112t-22.5 171.5zM286 459q0 -154 24.5 -211t79.5 -57q54 0 79 57.5t25 210.5v107q0 105 -10.5 163.5t-32 81.5t-59.5 23 q-57 0 -81 -57t-25 -211v-107z" />
<glyph unicode="r" horiz-adv-x="569" d="M65 0v1024h160l42 -118q46 66 113 101t143 35v-207q-112 0 -169.5 -62t-58.5 -205v-568h-230z" />
<glyph unicode="s" horiz-adv-x="747" d="M41 290v33h231l-1 -27q2 -53 31.5 -78.5t71.5 -25.5q48 0 75.5 24.5t27.5 75.5q0 73 -39 105.5t-124 48.5q-110 17 -184.5 89.5t-74.5 197.5q0 155 88.5 232t229.5 77q135 0 227.5 -81t94.5 -224v-19h-230v15q-2 52 -28 76.5t-63 24.5q-90 0 -90 -86q3 -83 108 -108 q92 -18 156 -51.5t97.5 -79.5t47.5 -95t14 -110q0 -161 -91 -240.5t-242 -79.5q-63 0 -121.5 19.5t-106 56.5t-76 96.5t-29.5 133.5z" />
<glyph unicode="t" horiz-adv-x="600" d="M53 817v207h112v313h231v-313h152v-207h-153v-408q0 -132 25 -175.5t100 -44.5h28v-207h-91q-64 0 -113.5 16.5t-91.5 55.5t-64.5 113t-22.5 181v469h-112z" />
<glyph unicode="u" horiz-adv-x="786" d="M59 342v682h230v-566q0 -154 24.5 -211t79.5 -57q52 0 78.5 45t27.5 160v629h230v-1024h-161l-34 91q-72 -109 -214 -109q-50 0 -94.5 18.5t-83 58t-61 112t-22.5 171.5z" />
<glyph unicode="v" horiz-adv-x="884" d="M48 1024h232l163 -668l162 668h232l-261 -1023h-267z" />
<glyph unicode="w" horiz-adv-x="1273" d="M48 1024h232l125 -718l136 718h194l135 -718l125 718h232l-199 -1024h-280l-111 573l-110 -573h-280z" />
<glyph unicode="x" horiz-adv-x="845" d="M48 0l195 523l-184 501h238l127 -379l128 379h238l-184 -500l194 -524h-238l-138 336l-138 -336h-238z" />
<glyph unicode="y" horiz-adv-x="768" d="M48 360v664h231v-548q0 -154 24.5 -211t79.5 -57q54 0 79 57.5t26 210.5v549h230v-1027q-1 -77 -21.5 -138.5t-52.5 -100.5t-76 -64.5t-89 -36t-93 -10.5q-43 0 -83.5 8.5t-81 28.5t-73 50t-56.5 77.5t-33 107.5h234q22 -64 91 -64q51 0 77 36.5t27 127.5v58 q-62 -78 -178 -78q-50 0 -94.5 18.5t-83.5 58t-61.5 112t-22.5 171.5z" />
<glyph unicode="z" horiz-adv-x="716" d="M48 0v169l364 647h-340v208h589v-171l-359 -646h368v-207h-622z" />
<glyph unicode="{" horiz-adv-x="829" d="M102 504v267h11q93 2 131 42t42 165v222q3 158 93 247t240 89h109v-266h-56q-43 0 -74 -32.5t-31 -82.5v-221q0 -76 -17 -135.5t-60 -104t-110 -56.5q187 -35 187 -261v-282q0 -50 31 -82t74 -32h56v-266h-109q-150 0 -240.5 88.5t-94.5 247.5v241q-2 67 -12.5 108 t-33 63.5t-50.5 30.5t-75 10h-11z" />
<glyph unicode="|" horiz-adv-x="485" d="M102 -123v1557h283v-1557h-283z" />
<glyph unicode="}" horiz-adv-x="829" d="M102 -19h56q43 0 74 32.5t31 82.5v281q0 228 187 261q-67 12 -110 56.5t-60 104t-17 135.5v221q0 50 -31 82t-74 32h-56v267h109q150 0 240 -88.5t94 -247.5v-225q1 -64 11.5 -104t33 -61.5t51.5 -29t76 -9.5h11v-267h-11q-47 -2 -75 -10t-51 -30.5t-33.5 -65 t-13.5 -110.5v-237q-3 -158 -93 -247t-240 -89h-109v266z" />
<glyph unicode="~" horiz-adv-x="1107" d="M103 426q0 77 15 143t44.5 118.5t79.5 82.5t115 30q34 0 67.5 -8.5t57 -19t76.5 -35.5q42 -23 60.5 -32.5t50 -18.5t58.5 -6q37 4 57 34t21 76h200q0 -159 -62 -263t-185 -104q-25 0 -46.5 3.5t-46 13t-39 16t-48 24t-50.5 26.5q-79 41 -134 36q-43 -3 -66.5 -34.5 t-23.5 -81.5h-201z" />
<glyph unicode="&#xa1;" horiz-adv-x="454" d="M102 853v247h251v-247h-251zM107 161l32 532h177l32 -535v-492h-241v495z" />
<glyph unicode="&#xa2;" horiz-adv-x="772" d="M56 344v338q0 146 61 229t158 111v209h231v-211q94 -28 153 -108.5t60 -222.5v-51h-225q-1 108 -28 152t-76 44q-56 0 -80 -56.5t-24 -210.5v-108q1 -155 24 -211t81 -56q51 0 77 43.5t27 152.5h224v-50q-1 -142 -60 -223t-153 -109v-205h-231v203q-97 28 -158 111 t-61 229z" />
<glyph unicode="&#xa3;" horiz-adv-x="1048" d="M56 0v267h97v286h-97v268h97v139q0 109 24.5 195t65 141t96 91t113.5 50.5t122 14.5q63 0 119.5 -14.5t112 -49.5t96 -89t66 -139t26.5 -192v-16h-281v8q-9 226 -139 226q-140 0 -140 -243v-122h263v-268h-263v-286h506v-267h-884z" />
<glyph unicode="&#xa4;" horiz-adv-x="1228" />
<glyph unicode="&#xa5;" horiz-adv-x="1114" d="M53 1434h285l219 -554l219 554h285l-207 -464h180v-268h-277l-29 -53l-6 -30h313v-268h-336v-351h-284v351h-334v268h311l-7 30l-28 53h-276v268h179z" />
<glyph unicode="&#xa6;" horiz-adv-x="487" d="M102 -123v655h284v-655h-284zM102 778v656h284v-656h-284z" />
<glyph unicode="&#xa7;" horiz-adv-x="833" d="M44 164v33h259l-1 -27q1 -59 35 -89t80 -30q52 0 83 27t31 82q0 85 -44.5 120t-140.5 53q-57 8 -106.5 31t-90.5 61t-65 96.5t-24 130.5q0 141 81 227q-81 86 -81 211q0 173 99.5 259.5t255.5 86.5q152 0 255 -91t104 -252v-19h-258v13q-1 58 -30.5 87t-70.5 29 q-42 0 -69.5 -23.5t-27.5 -72.5q0 -92 119 -121q353 -64 353 -374q0 -134 -65 -220q65 -88 65 -218q0 -178 -102.5 -267.5t-270.5 -89.5q-69 0 -134.5 22t-119 64t-86.5 109.5t-33 151.5zM301 668q0 -16 4 -29.5t8.5 -23t15.5 -18.5t17.5 -14t21.5 -12t21 -9t23.5 -7.5 t20.5 -6.5q48 -16 78 -37q41 32 41 98q0 57 -32.5 87t-92.5 50q-6 2 -26 9t-31 11q-69 -23 -69 -98z" />
<glyph unicode="&#xa8;" horiz-adv-x="765" d="M113 1208v226h229v-226h-229zM432 1208v226h229v-226h-229z" />
<glyph unicode="&#xa9;" horiz-adv-x="1275" d="M91 882q0 149 72.5 275.5t199 201.5t276.5 75q112 0 214 -44t175 -118.5t116.5 -176.5t43.5 -213q0 -149 -73.5 -276t-200 -201t-275.5 -74q-150 0 -276.5 74t-199 201t-72.5 276zM247 882q0 -168 109.5 -285t282.5 -117t282.5 117t109.5 285q0 167 -110 285t-282 118 t-282 -118t-110 -285zM433 817v141q0 126 60 183.5t145 57.5q82 0 139.5 -50t63.5 -161v-25h-125q-6 67 -25 93t-53 26q-40 0 -58 -40.5t-18 -148.5v-13q0 -108 18 -148.5t59 -40.5q35 0 53.5 26.5t24.5 93.5h124v-24q-6 -111 -63.5 -161t-139.5 -50q-39 0 -73.5 12.5 t-65 38.5t-48.5 75t-18 115z" />
<glyph unicode="&#xaa;" d="M56 344v338q0 99 23.5 171.5t63.5 112t85 58t96 18.5q141 0 211 -103l30 85h161v-1024h-161l-29 90q-70 -106 -212 -106q-51 0 -96 18.5t-85 58t-63.5 112t-23.5 171.5zM286 459q0 -105 11.5 -163.5t33.5 -81t61 -22.5q57 0 80 56.5t22 210.5v108q0 153 -25 210t-79 57 q-37 0 -58.5 -22t-33.5 -81t-12 -164v-108z" />
<glyph unicode="&#xab;" horiz-adv-x="888" d="M103 403v271l314 281v-271l-166 -146l166 -145v-271zM474 403v271l314 281v-271l-166 -146l166 -145v-271z" />
<glyph unicode="&#xac;" horiz-adv-x="1161" d="M102 547v267h957v-479h-282v212h-675z" />
<glyph unicode="&#xad;" horiz-adv-x="712" d="M102 416v267h508v-267h-508z" />
<glyph unicode="&#xae;" horiz-adv-x="1275" d="M91 866q0 149 73 275.5t199 201t276 74.5t276.5 -74.5t199.5 -201t73 -275.5t-73 -276t-199.5 -201.5t-276.5 -74.5t-276 74.5t-199 201.5t-73 276zM247 866q0 -168 110 -285t282 -117t282.5 117.5t110.5 284.5q0 168 -110.5 285.5t-282.5 117.5t-282 -117.5t-110 -285.5 zM456 569v604h184q96 0 148.5 -48t52.5 -123v-30q-1 -46 -24.5 -82t-64.5 -56l104 -265h-135l-87 222h-49v-222h-129zM585 924h49q78 0 78 65q0 66 -78 66h-49v-131z" />
<glyph unicode="&#xaf;" horiz-adv-x="768" d="M102 1228v206h563v-206h-563z" />
<glyph unicode="&#xb0;" horiz-adv-x="768" d="M102 1289q0 116 82.5 198.5t198.5 82.5q117 0 199.5 -82.5t82.5 -198.5q0 -117 -82.5 -199.5t-199.5 -82.5q-116 0 -198.5 82.5t-82.5 199.5zM289 1289q0 -40 27 -67.5t67 -27.5t68 27.5t28 67.5t-28 67.5t-68 27.5t-67 -27.5t-27 -67.5z" />
<glyph unicode="&#xb1;" horiz-adv-x="1161" d="M102 68v267h956v-267h-956zM102 645v267h336v171h284v-171h336v-267h-336v-170h-283v170h-337z" />
<glyph unicode="&#xb4;" horiz-adv-x="608" d="M118 1136l115 330h258l-193 -330h-180z" />
<glyph unicode="&#xb6;" horiz-adv-x="1380" d="M53 934v196q0 121 89 212.5t214 91.5h970v-267h-78v-1501h-282v1501h-136v-1501h-282v965h-192q-128 0 -215.5 87t-87.5 216z" />
<glyph unicode="&#xb7;" horiz-adv-x="454" d="M102 610v246h251v-246h-251z" />
<glyph unicode="&#xb8;" horiz-adv-x="509" d="M102 -194h30q51 4 69.5 35.5t19.5 101.5v57h187v-63q-2 -160 -60.5 -227t-212.5 -70h-33v166z" />
<glyph unicode="&#xba;" horiz-adv-x="780" d="M56 344v338q0 98 29.5 171t79.5 112.5t106 58t118 18.5q49 0 94.5 -10.5t90.5 -37t77.5 -66.5t53 -103t20.5 -143v-338q0 -80 -20.5 -143t-53 -103t-77.5 -66.5t-90.5 -37t-94.5 -10.5q-62 0 -118 18.5t-106 58t-79.5 112.5t-29.5 171zM286 460q1 -155 24 -211.5 t81 -56.5q56 0 80 57.5t23 210.5v107q0 152 -25 209.5t-79 57.5q-56 0 -80 -56.5t-24 -210.5v-107z" />
<glyph unicode="&#xbb;" horiz-adv-x="888" d="M102 122v271l167 145l-167 146v271l315 -282v-270zM473 122v271l167 145l-167 146v271l315 -282v-270z" />
<glyph unicode="&#xbc;" horiz-adv-x="1335" d="M73 1276v158h237v-692h-172v534h-65zM185 0l587 1434h209l-587 -1434h-209zM749 111v175l131 406h173l-127 -424h120v252h173v-252h43v-157h-43v-110h-173v110h-297z" />
<glyph unicode="&#xbd;" horiz-adv-x="1308" d="M73 1275v159h238v-693h-174v534h-64zM185 0l587 1434h209l-587 -1434h-209zM764 461v6q3 62 25 107.5t56.5 70.5t72 37t79.5 13h16q94 -1 158 -53.5t66 -161.5v-7q0 -48 -19.5 -88t-49.5 -68.5t-61.5 -52.5t-61.5 -52t-43 -55h228v-157h-458v74q0 53 16 96t42 72t57 53.5 t62.5 43.5t57.5 38t42 42.5t16 50.5q0 33 -17 51t-41 19h-5q-56 0 -66 -79h-172z" />
<glyph unicode="&#xbe;" horiz-adv-x="1497" d="M67 953v5h161q4 -27 21.5 -42t41.5 -16h10q24 0 40.5 13.5t17.5 35.5l1 7q1 29 -19.5 46.5t-59.5 18.5h-60v160h60q33 0 54 13t22 38l1 6q0 23 -16.5 36.5t-40.5 13.5h-8q-54 0 -63 -55h-161v6q6 102 70 154.5t153 53.5h18q94 -1 156 -48.5t63 -151.5v-11 q0 -48 -21 -85.5t-50 -49.5q31 -15 51.5 -54.5t21.5 -91.5v-10q-1 -104 -63.5 -153t-160.5 -50h-15q-91 0 -155.5 52t-69.5 159zM353 0l587 1434h210l-588 -1434h-209zM912 111v174l130 407h174l-128 -424h120v252h173v-252h43v-157h-43v-111h-172v111h-297z" />
<glyph unicode="&#xbf;" horiz-adv-x="1044" d="M102 103v4q0 81 19.5 141.5t51 96.5t69 64t75 51.5t68.5 50t50.5 69t19.5 99.5h228q0 -85 -16.5 -149.5t-43 -102.5t-58 -67.5t-63.5 -52t-58.5 -47t-43 -62t-16.5 -88.5q0 -81 37 -129.5t93 -48.5h9q55 2 91 52.5t46 144.5h282v-11q-5 -120 -43 -210t-98 -140.5 t-126.5 -75t-141.5 -26.5h-19q-76 0 -145.5 23.5t-131 72.5t-98.5 137t-37 204zM443 860v247h250v-247h-250z" />
<glyph unicode="&#xc0;" horiz-adv-x="1042" d="M57 0l288 1434h351l289 -1434h-274l-65 317h-249l-66 -317h-274zM336 1878h258l114 -330h-179zM426 592h189l-94 531z" />
<glyph unicode="&#xc1;" horiz-adv-x="1042" d="M57 0l288 1434h351l289 -1434h-274l-65 317h-249l-66 -317h-274zM358 1545l114 330h258l-192 -330h-180zM426 592h189l-94 531z" />
<glyph unicode="&#xc2;" horiz-adv-x="1042" d="M57 0l288 1434h351l289 -1434h-274l-65 317h-249l-66 -317h-274zM235 1539l164 315h246l164 -314h-168l-119 128l-118 -129h-169zM426 592h189l-94 531z" />
<glyph unicode="&#xc3;" horiz-adv-x="1042" d="M57 0l288 1434h351l289 -1434h-274l-65 317h-249l-66 -317h-274zM210 1546q0 61 9 112.5t29 96.5t58 71t90 26q37 0 66 -13.5t77 -47.5q47 -40 88 -27q38 8 40 88h168q0 -61 -9 -112.5t-29 -96.5t-58 -71t-90 -26q-37 0 -66.5 13t-76.5 48q-40 33 -79 31q-48 -4 -49 -92 h-168zM426 592h189l-94 531z" />
<glyph unicode="&#xc4;" horiz-adv-x="1042" d="M57 0l288 1434h351l289 -1434h-274l-65 317h-249l-66 -317h-274zM248 1617v226h229v-226h-229zM426 592h189l-94 531zM567 1617v226h230v-226h-230z" />
<glyph unicode="&#xc5;" horiz-adv-x="1042" d="M57 0l288 1434h351l289 -1434h-274l-65 317h-249l-66 -317h-274zM295 1722q0 93 66.5 160t160.5 67t160.5 -67t66.5 -160q0 -94 -66.5 -161t-160.5 -67t-160.5 66.5t-66.5 161.5zM426 592h189l-94 531zM457 1722q0 -28 18.5 -47.5t46.5 -19.5q27 0 46.5 19.5t19.5 47.5 q0 26 -19.5 45.5t-46.5 19.5t-46 -19t-19 -46z" />
<glyph unicode="&#xc6;" horiz-adv-x="1232" d="M79 0l287 1434h791v-267h-346v-309h326v-266h-326v-326h346v-266h-620v317h-118l-66 -317h-274zM448 592h88v508z" />
<glyph unicode="&#xc7;" horiz-adv-x="946" d="M74 479v477q0 110 24.5 197t64.5 142t95.5 91t113.5 51t123 15q62 0 118.5 -14t110.5 -49.5t93 -89t64 -138t26 -191.5v-44h-274v37q-9 223 -138 223q-140 0 -140 -243v-449q0 -244 140 -244q128 0 138 222v40h274v-45q-3 -202 -80 -314.5t-201 -148.5v-55 q-1 -164 -56.5 -234t-204.5 -75h-45v166l43 3q42 7 58.5 36.5t17.5 90.5v53l-32 5q-69 12 -126 44t-105 87.5t-75 146t-27 207.5z" />
<glyph unicode="&#xc8;" horiz-adv-x="735" d="M76 0v1434h621v-267h-347v-309h327v-266h-327v-326h347v-266h-621zM182 1878h258l115 -330h-180z" />
<glyph unicode="&#xc9;" horiz-adv-x="735" d="M76 0v1434h621v-267h-347v-309h327v-266h-327v-326h347v-266h-621zM182 1545l115 330h258l-193 -330h-180z" />
<glyph unicode="&#xca;" horiz-adv-x="735" d="M76 0v1434h621v-267h-347v-309h327v-266h-327v-326h347v-266h-621zM82 1539l163 315h247l163 -314h-168l-118 128l-119 -129h-168z" />
<glyph unicode="&#xcb;" horiz-adv-x="735" d="M76 0v1434h621v-267h-347v-309h327v-266h-327v-326h347v-266h-621zM95 1617v226h229v-226h-229zM414 1617v226h229v-226h-229z" />
<glyph unicode="&#xcc;" horiz-adv-x="436" d="M31 1878h258l115 -330h-180zM76 0v1434h284v-1434h-284z" />
<glyph unicode="&#xcd;" horiz-adv-x="436" d="M32 1545l114 330h258l-193 -330h-179zM76 0v1434h284v-1434h-284z" />
<glyph unicode="&#xce;" horiz-adv-x="436" d="M-69 1539l164 315h246l164 -314h-169l-118 128l-119 -129h-168zM76 0v1434h284v-1434h-284z" />
<glyph unicode="&#xcf;" horiz-adv-x="436" d="M-56 1617v226h229v-226h-229zM76 0v1434h284v-1434h-284zM263 1617v226h229v-226h-229z" />
<glyph unicode="&#xd0;" horiz-adv-x="958" d="M-12 562v267h88v605h396q64 0 120.5 -13t112 -48t95 -89.5t64 -143t24.5 -202.5v-442q0 -114 -24.5 -202.5t-64 -143t-95 -89.5t-112 -48t-120.5 -13h-396v562h-88zM350 266h122q67 0 104.5 60t37.5 184v415q0 124 -37.5 183t-104.5 59h-122v-338h146v-267h-146v-296z " />
<glyph unicode="&#xd1;" horiz-adv-x="1021" d="M72 0v1434h269l345 -804v804h265v-1434h-270l-344 804v-804h-265zM199 1546q0 61 9 112.5t29.5 96.5t58.5 71t90 26q37 0 65.5 -13.5t76.5 -47.5q47 -40 88 -27q38 8 40 88h168q0 -61 -9 -112.5t-29 -96.5t-58 -71t-90 -26q-36 0 -65.5 12.5t-76.5 48.5q-40 33 -80 31 q-48 -4 -49 -92h-168z" />
<glyph unicode="&#xd2;" horiz-adv-x="978" d="M68 479v477q0 110 24.5 197t64.5 142t95.5 91t113.5 51t123 15q64 0 121.5 -14.5t114 -50.5t97 -91t65.5 -142.5t25 -197.5v-477q0 -110 -25 -197t-65.5 -142t-97 -91t-114 -50.5t-121.5 -14.5q-65 0 -123 14.5t-113.5 51t-95.5 91.5t-64.5 141.5t-24.5 196.5zM304 1878 h258l115 -330h-180zM349 494q0 -244 140 -244q67 0 104 59.5t37 184.5v449q0 124 -37.5 183.5t-103.5 59.5q-140 0 -140 -243v-449z" />
<glyph unicode="&#xd3;" horiz-adv-x="978" d="M68 479v477q0 110 24.5 197t64.5 142t95.5 91t113.5 51t123 15q64 0 121.5 -14.5t114 -50.5t97 -91t65.5 -142.5t25 -197.5v-477q0 -110 -25 -197t-65.5 -142t-97 -91t-114 -50.5t-121.5 -14.5q-65 0 -123 14.5t-113.5 51t-95.5 91.5t-64.5 141.5t-24.5 196.5zM304 1545 l115 330h258l-193 -330h-180zM349 494q0 -244 140 -244q67 0 104 59.5t37 184.5v449q0 124 -37.5 183.5t-103.5 59.5q-140 0 -140 -243v-449z" />
<glyph unicode="&#xd4;" horiz-adv-x="978" d="M68 479v477q0 110 24.5 197t64.5 142t95.5 91t113.5 51t123 15q64 0 121.5 -14.5t114 -50.5t97 -91t65.5 -142.5t25 -197.5v-477q0 -110 -25 -197t-65.5 -142t-97 -91t-114 -50.5t-121.5 -14.5q-65 0 -123 14.5t-113.5 51t-95.5 91.5t-64.5 141.5t-24.5 196.5zM204 1539 l163 315h247l163 -314h-168l-118 128l-119 -129h-168zM349 494q0 -244 140 -244q67 0 104 59.5t37 184.5v449q0 124 -37.5 183.5t-103.5 59.5q-140 0 -140 -243v-449z" />
<glyph unicode="&#xd5;" horiz-adv-x="978" d="M68 479v477q0 110 24.5 197t64.5 142t95.5 91t113.5 51t123 15q64 0 121.5 -14.5t114 -50.5t97 -91t65.5 -142.5t25 -197.5v-477q0 -110 -25 -197t-65.5 -142t-97 -91t-114 -50.5t-121.5 -14.5q-65 0 -123 14.5t-113.5 51t-95.5 91.5t-64.5 141.5t-24.5 196.5zM181 1546 q0 60 9 111.5t29 97t58 71.5t90 26q38 0 67 -14t75 -48q49 -39 88 -26q40 8 40 88h168q0 -60 -9 -111.5t-29 -97t-58 -71.5t-90 -26q-36 0 -65.5 13t-76.5 48q-40 33 -80 31q-48 -4 -48 -92h-168zM349 494q0 -244 140 -244q67 0 104 59.5t37 184.5v449q0 124 -37.5 183.5 t-103.5 59.5q-140 0 -140 -243v-449z" />
<glyph unicode="&#xd6;" horiz-adv-x="978" d="M68 479v477q0 110 24.5 197t64.5 142t95.5 91t113.5 51t123 15q64 0 121.5 -14.5t114 -50.5t97 -91t65.5 -142.5t25 -197.5v-477q0 -110 -25 -197t-65.5 -142t-97 -91t-114 -50.5t-121.5 -14.5q-65 0 -123 14.5t-113.5 51t-95.5 91.5t-64.5 141.5t-24.5 196.5zM217 1617 v226h229v-226h-229zM349 494q0 -244 140 -244q67 0 104 59.5t37 184.5v449q0 124 -37.5 183.5t-103.5 59.5q-140 0 -140 -243v-449zM536 1617v226h229v-226h-229z" />
<glyph unicode="&#xd7;" horiz-adv-x="1067" d="M102 314l238 237l-238 238l201 200l238 -237l237 237l189 -189l-237 -237l236 -237l-200 -200l-237 237l-238 -238z" />
<glyph unicode="&#xd8;" horiz-adv-x="978" d="M66 479v477q0 110 24.5 197t64.5 142t95.5 91t113.5 51t123 15q89 0 162 -28l39 112h169l-70 -202q123 -128 123 -378v-477q0 -110 -25 -197t-65.5 -142t-97 -91t-114 -50.5t-121.5 -14.5q-89 0 -159 26l-40 -112h-169l70 202q-123 128 -123 379zM349 559l210 605 q-29 22 -70 22q-140 0 -140 -243v-384zM418 271q28 -21 71 -21q67 0 104 59.5t37 184.5v389z" />
<glyph unicode="&#xd9;" horiz-adv-x="974" d="M76 465q0 -109 23.5 -194t62 -138.5t93 -87.5t111.5 -47.5t122 -13.5q64 0 120.5 13t111.5 47.5t94.5 87t63.5 138t24 195.5v969h-274v-955q0 -229 -140 -229q-69 0 -103.5 53.5t-34.5 175.5v955h-274v-969zM301 1878h258l115 -330h-180z" />
<glyph unicode="&#xda;" horiz-adv-x="974" d="M76 465q0 -109 23.5 -194t62 -138.5t93 -87.5t111.5 -47.5t122 -13.5q64 0 120.5 13t111.5 47.5t94.5 87t63.5 138t24 195.5v969h-274v-955q0 -229 -140 -229q-69 0 -103.5 53.5t-34.5 175.5v955h-274v-969zM301 1545l115 330h258l-193 -330h-180z" />
<glyph unicode="&#xdb;" horiz-adv-x="974" d="M76 465q0 -109 23.5 -194t62 -138.5t93 -87.5t111.5 -47.5t122 -13.5q64 0 120.5 13t111.5 47.5t94.5 87t63.5 138t24 195.5v969h-274v-955q0 -229 -140 -229q-69 0 -103.5 53.5t-34.5 175.5v955h-274v-969zM201 1539l163 315h247l164 -314h-169l-118 128l-119 -129h-168 z" />
<glyph unicode="&#xdc;" horiz-adv-x="974" d="M76 465q0 -109 23.5 -194t62 -138.5t93 -87.5t111.5 -47.5t122 -13.5q64 0 120.5 13t111.5 47.5t94.5 87t63.5 138t24 195.5v969h-274v-955q0 -229 -140 -229q-69 0 -103.5 53.5t-34.5 175.5v955h-274v-969zM214 1617v226h229v-226h-229zM533 1617v226h229v-226h-229z " />
<glyph unicode="&#xdd;" horiz-adv-x="1067" d="M57 1434h285l190 -566l192 566h285l-335 -879v-555h-284v554zM347 1545l115 330h258l-193 -330h-180z" />
<glyph unicode="&#xde;" horiz-adv-x="919" d="M76 0v1439h274v-185h73q66 -3 125 -16.5t115.5 -43.5t97 -73.5t65 -111t24.5 -151.5v-88q0 -83 -24.5 -149.5t-65 -110.5t-97 -74t-115.5 -44.5t-125 -17.5h-73v-374h-274zM350 638h81q64 0 108 40t44 129v15q0 89 -43.5 128.5t-108.5 39.5h-81v-352z" />
<glyph unicode="&#xdf;" horiz-adv-x="1132" d="M62 0v997q0 121 38.5 210t107.5 139.5t154 74.5t189 26h36q81 0 152 -14t133.5 -46t108 -79t72.5 -117.5t30 -158.5v-29q0 -93 -41 -166.5t-99 -100.5q66 -26 108.5 -103t42.5 -181v-23q-1 -117 -39.5 -203t-105 -134t-145.5 -70t-173 -22h-205v267h205q89 0 134.5 40 t47.5 111v21q0 72 -45.5 117t-139.5 45h-94v269h85q175 0 180 138v18q0 72 -51.5 113.5t-159.5 41.5h-34q-98 -2 -152.5 -43.5t-58.5 -120.5v-1017h-281z" />
<glyph unicode="&#xe0;" d="M56 344v338q0 99 23.5 171.5t63.5 112t85 58t96 18.5q141 0 211 -103l30 85h161v-1024h-161l-29 90q-70 -106 -212 -106q-51 0 -96 18.5t-85 58t-63.5 112t-23.5 171.5zM209 1468h258l114 -329h-180zM286 459q0 -105 11.5 -163.5t33.5 -81t61 -22.5q57 0 80 56.5 t22 210.5v108q0 153 -25 210t-79 57q-37 0 -58.5 -22t-33.5 -81t-12 -164v-108z" />
<glyph unicode="&#xe1;" d="M56 344v338q0 99 23.5 171.5t63.5 112t85 58t96 18.5q141 0 211 -103l30 85h161v-1024h-161l-29 90q-70 -106 -212 -106q-51 0 -96 18.5t-85 58t-63.5 112t-23.5 171.5zM209 1136l114 330h258l-192 -330h-180zM286 459q0 -105 11.5 -163.5t33.5 -81t61 -22.5 q57 0 80 56.5t22 210.5v108q0 153 -25 210t-79 57q-37 0 -58.5 -22t-33.5 -81t-12 -164v-108z" />
<glyph unicode="&#xe2;" d="M56 344v338q0 99 23.5 171.5t63.5 112t85 58t96 18.5q141 0 211 -103l30 85h161v-1024h-161l-29 90q-70 -106 -212 -106q-51 0 -96 18.5t-85 58t-63.5 112t-23.5 171.5zM108 1129l164 316h246l164 -315h-168l-119 128l-118 -129h-169zM286 459q0 -105 11.5 -163.5 t33.5 -81t61 -22.5q57 0 80 56.5t22 210.5v108q0 153 -25 210t-79 57q-37 0 -58.5 -22t-33.5 -81t-12 -164v-108z" />
<glyph unicode="&#xe3;" d="M56 344v338q0 99 23.5 171.5t63.5 112t85 58t96 18.5q141 0 211 -103l30 85h161v-1024h-161l-29 90q-70 -106 -212 -106q-51 0 -96 18.5t-85 58t-63.5 112t-23.5 171.5zM85 1138q0 60 9 111.5t29 97t58 71.5t90 26q38 0 66 -13.5t75 -48.5q50 -40 89 -27q40 8 40 89h167 q0 -61 -9 -112t-29 -96.5t-57.5 -71.5t-89.5 -26q-36 0 -65.5 13t-76.5 48q-40 33 -80 31q-48 -4 -48 -92h-168zM286 459q0 -105 11.5 -163.5t33.5 -81t61 -22.5q57 0 80 56.5t22 210.5v108q0 153 -25 210t-79 57q-37 0 -58.5 -22t-33.5 -81t-12 -164v-108z" />
<glyph unicode="&#xe4;" d="M56 344v338q0 99 23.5 171.5t63.5 112t85 58t96 18.5q141 0 211 -103l30 85h161v-1024h-161l-29 90q-70 -106 -212 -106q-51 0 -96 18.5t-85 58t-63.5 112t-23.5 171.5zM121 1208v226h229v-226h-229zM286 459q0 -105 11.5 -163.5t33.5 -81t61 -22.5q57 0 80 56.5 t22 210.5v108q0 153 -25 210t-79 57q-37 0 -58.5 -22t-33.5 -81t-12 -164v-108zM440 1208v226h229v-226h-229z" />
<glyph unicode="&#xe5;" d="M56 344v338q0 99 23.5 171.5t63.5 112t85 58t96 18.5q141 0 211 -103l30 85h161v-1024h-161l-29 90q-70 -106 -212 -106q-51 0 -96 18.5t-85 58t-63.5 112t-23.5 171.5zM168 1312q0 93 66.5 160t160.5 67t160.5 -67t66.5 -160q0 -94 -66.5 -161t-160.5 -67t-160.5 66.5 t-66.5 161.5zM286 459q0 -105 11.5 -163.5t33.5 -81t61 -22.5q57 0 80 56.5t22 210.5v108q0 153 -25 210t-79 57q-37 0 -58.5 -22t-33.5 -81t-12 -164v-108zM330 1312q0 -28 18.5 -47t46.5 -19q27 0 46.5 19t19.5 47q0 26 -19.5 46t-46.5 20t-46 -19.5t-19 -46.5z" />
<glyph unicode="&#xe6;" horiz-adv-x="1308" d="M56 344v338q0 99 23.5 171.5t63.5 112t85 58t96 18.5q141 0 211 -103l30 85h160v-52q73 70 193 70q49 0 94.5 -10.5t90 -37t77 -66.5t53 -103t20.5 -143v-252h-437v-46q0 -107 25.5 -149t78.5 -43q98 0 103 147h230q-1 -79 -21.5 -141.5t-53 -101.5t-77 -65t-89.5 -36.5 t-94 -10.5q-119 0 -192 70v-54h-161l-29 90q-70 -106 -212 -106q-51 0 -96 18.5t-85 58t-63.5 112t-23.5 171.5zM286 460q1 -154 25 -211t81 -57q38 0 59.5 23t32 81.5t10.5 163.5v107q0 153 -25 210t-79 57q-37 0 -58.5 -22t-33.5 -81t-12 -164v-107zM815 600h207v58 q-1 174 -103 176q-50 0 -76.5 -39t-27.5 -138v-57z" />
<glyph unicode="&#xe7;" horiz-adv-x="772" d="M56 344v338q0 98 29.5 171t79.5 112.5t106 58t118 18.5q49 0 93.5 -10.5t88 -36t75.5 -64.5t52 -101t21 -140v-52h-225q-1 108 -28 152t-76 44q-56 0 -80 -56.5t-24 -210.5v-107q1 -155 24 -211.5t81 -56.5q51 0 77 43.5t27 152.5h224v-50q-3 -245 -180 -324v-66 q0 -84 -13 -139t-44 -94t-83.5 -56.5t-133.5 -18.5h-31v166h30q51 3 69.5 34t19.5 100v52q-21 0 -51 5q-107 22 -176.5 106t-69.5 241z" />
<glyph unicode="&#xe8;" horiz-adv-x="776" d="M56 344v338q0 98 29.5 171t79.5 112.5t106 58t118 18.5q49 0 94.5 -10.5t90 -37t77 -66.5t53 -103t20.5 -143v-252h-437v-46q0 -107 25.5 -149t78.5 -43q98 0 103 147h230q-1 -79 -21.5 -141.5t-53 -101.5t-77 -65t-89.5 -36.5t-94 -10.5q-62 0 -118 18.5t-106 58 t-79.5 112.5t-29.5 171zM202 1468h258l115 -329h-180zM286 600h207v58q-1 174 -103 176q-51 -1 -77 -39.5t-27 -137.5v-57z" />
<glyph unicode="&#xe9;" horiz-adv-x="776" d="M56 344v338q0 98 29.5 171t79.5 112.5t106 58t118 18.5q49 0 94.5 -10.5t90 -37t77 -66.5t53 -103t20.5 -143v-252h-437v-46q0 -107 25.5 -149t78.5 -43q98 0 103 147h230q-1 -79 -21.5 -141.5t-53 -101.5t-77 -65t-89.5 -36.5t-94 -10.5q-62 0 -118 18.5t-106 58 t-79.5 112.5t-29.5 171zM202 1136l115 330h258l-193 -330h-180zM286 600h207v58q-1 174 -103 176q-51 -1 -77 -39.5t-27 -137.5v-57z" />
<glyph unicode="&#xea;" horiz-adv-x="776" d="M56 344v338q0 98 29.5 171t79.5 112.5t106 58t118 18.5q49 0 94.5 -10.5t90 -37t77 -66.5t53 -103t20.5 -143v-251h-437v-47q0 -107 25.5 -149t78.5 -43q98 0 103 147h230q-1 -79 -21.5 -141.5t-53 -101.5t-77 -65t-89.5 -36.5t-94 -10.5q-62 0 -118 18.5t-106 58 t-79.5 112.5t-29.5 171zM102 1129l163 316h247l163 -315h-168l-118 128l-119 -129h-168zM286 601h207v57q-1 174 -103 176q-51 -1 -77 -39.5t-27 -137.5v-56z" />
<glyph unicode="&#xeb;" horiz-adv-x="776" d="M56 344v338q0 98 29.5 171t79.5 112.5t106 58t118 18.5q49 0 94.5 -10.5t90 -37t77 -66.5t53 -103t20.5 -143v-252h-437v-46q0 -107 25.5 -149t78.5 -43q98 0 103 147h230q-1 -79 -21.5 -141.5t-53 -101.5t-77 -65t-89.5 -36.5t-94 -10.5q-62 0 -118 18.5t-106 58 t-79.5 112.5t-29.5 171zM115 1208v226h229v-226h-229zM286 600h207v58q-1 174 -103 176q-51 -1 -77 -39.5t-27 -137.5v-57zM434 1208v226h229v-226h-229z" />
<glyph unicode="&#xec;" horiz-adv-x="536" d="M93 1468h258l115 -329h-180zM217 0v1024h231v-1024h-231z" />
<glyph unicode="&#xed;" horiz-adv-x="522" d="M62 1136l114 330h258l-192 -330h-180zM88 0v1024h231v-1024h-231z" />
<glyph unicode="&#xee;" horiz-adv-x="608" d="M18 1129l164 316h246l164 -315h-168l-119 128l-118 -129h-169zM195 0v1024h230v-1024h-230z" />
<glyph unicode="&#xef;" horiz-adv-x="665" d="M59 1208v226h230v-226h-230zM227 0v1024h231v-1024h-231zM379 1208v226h229v-226h-229z" />
<glyph unicode="&#xf0;" horiz-adv-x="952" d="M56 344v338q0 99 30 172t80.5 112.5t106.5 57.5t118 18q67 0 104 -51v81q-1 95 -27 133t-77 38q-40 0 -64 -28t-34 -96h-226l2 20q5 85 35.5 148.5t77.5 97.5t99 50t110 16q147 0 236 -89l122 72l109 -176l-147 -86q13 -34 13 -78v-750q-1 -78 -21 -141t-52.5 -103 t-76 -67t-89 -38t-94.5 -11q-62 0 -118 18t-106.5 57.5t-80.5 112.5t-30 172zM286 460q-1 -153 23 -210.5t80 -57.5q58 0 81 56.5t24 211.5v107q0 151 -24 209t-79 58q-54 0 -79.5 -57.5t-25.5 -209.5v-107z" />
<glyph unicode="&#xf1;" horiz-adv-x="792" d="M65 0v1024h160l34 -91q72 109 214 109q50 0 94.5 -18.5t83 -58t61 -112t22.5 -171.5v-682h-230v567q0 105 -12 164t-33.5 81t-58.5 22q-52 0 -78 -45t-27 -160v-629h-230zM85 1138q0 60 9 111.5t29 97t58 71.5t90 26q38 0 67 -14t75 -48q49 -39 88 -27q40 8 40 89h168 q0 -60 -9 -111.5t-29 -97t-58 -71.5t-90 -26q-36 0 -65 13t-76 48q-40 33 -80 31q-49 -4 -49 -92h-168z" />
<glyph unicode="&#xf2;" horiz-adv-x="780" d="M56 344v338q0 98 29.5 171t79.5 112.5t106 58t118 18.5q49 0 94.5 -10.5t90.5 -37t77.5 -66.5t53 -103t20.5 -143v-338q0 -80 -20.5 -143t-53 -103t-77.5 -66.5t-90.5 -37t-94.5 -10.5q-62 0 -118 18.5t-106 58t-79.5 112.5t-29.5 171zM205 1468h258l115 -329h-180z M286 460q1 -155 24 -211.5t81 -56.5q56 0 80 57.5t23 210.5v107q0 152 -25 209.5t-79 57.5q-56 0 -80 -56.5t-24 -210.5v-107z" />
<glyph unicode="&#xf3;" horiz-adv-x="780" d="M56 344v338q0 98 29.5 171t79.5 112.5t106 58t118 18.5q49 0 94.5 -10.5t90.5 -37t77.5 -66.5t53 -103t20.5 -143v-338q0 -80 -20.5 -143t-53 -103t-77.5 -66.5t-90.5 -37t-94.5 -10.5q-62 0 -118 18.5t-106 58t-79.5 112.5t-29.5 171zM205 1136l115 330h258l-193 -330 h-180zM286 460q1 -155 24 -211.5t81 -56.5q56 0 80 57.5t23 210.5v107q0 152 -25 209.5t-79 57.5q-56 0 -80 -56.5t-24 -210.5v-107z" />
<glyph unicode="&#xf4;" horiz-adv-x="780" d="M56 344v338q0 98 29.5 171t79.5 112.5t106 58t118 18.5q49 0 94.5 -10.5t90.5 -37t77.5 -66.5t53 -103t20.5 -143v-338q0 -80 -20.5 -143t-53 -103t-77.5 -66.5t-90.5 -37t-94.5 -10.5q-62 0 -118 18.5t-106 58t-79.5 112.5t-29.5 171zM104 1129l164 316h246l164 -315 h-168l-119 128l-118 -129h-169zM286 460q1 -155 24 -211.5t81 -56.5q56 0 80 57.5t23 210.5v107q0 152 -25 209.5t-79 57.5q-56 0 -80 -56.5t-24 -210.5v-107z" />
<glyph unicode="&#xf5;" horiz-adv-x="780" d="M56 344v338q0 98 29.5 171t79.5 112.5t106 58t118 18.5q49 0 94.5 -10.5t90.5 -37t77.5 -66.5t53 -103t20.5 -143v-338q0 -80 -20.5 -143t-53 -103t-77.5 -66.5t-90.5 -37t-94.5 -10.5q-62 0 -118 18.5t-106 58t-79.5 112.5t-29.5 171zM80 1138q0 61 9 112t29 96.5 t57.5 71.5t89.5 26q38 0 67 -14t75 -48q50 -40 89 -27q39 8 39 89h168q0 -61 -9 -112t-29 -96.5t-57.5 -71.5t-89.5 -26q-36 0 -65.5 13t-76.5 48q-40 33 -80 31q-48 -4 -48 -92h-168zM286 460q1 -155 24 -211.5t81 -56.5q56 0 80 57.5t23 210.5v107q0 152 -25 209.5 t-79 57.5q-56 0 -80 -56.5t-24 -210.5v-107z" />
<glyph unicode="&#xf6;" horiz-adv-x="780" d="M56 344v338q0 98 29.5 171t79.5 112.5t106 58t118 18.5q49 0 94.5 -10.5t90.5 -37t77.5 -66.5t53 -103t20.5 -143v-338q0 -80 -20.5 -143t-53 -103t-77.5 -66.5t-90.5 -37t-94.5 -10.5q-62 0 -118 18.5t-106 58t-79.5 112.5t-29.5 171zM117 1208v226h230v-226h-230z M286 460q1 -155 24 -211.5t81 -56.5q56 0 80 57.5t23 210.5v107q0 152 -25 209.5t-79 57.5q-56 0 -80 -56.5t-24 -210.5v-107zM436 1208v226h230v-226h-230z" />
<glyph unicode="&#xf7;" horiz-adv-x="1161" d="M102 408v267h956v-267h-956zM447 792v247h251v-247h-251zM449 43v247h250v-247h-250z" />
<glyph unicode="&#xf8;" horiz-adv-x="860" d="M107 344v338q0 98 29.5 171t79.5 112.5t106 58t118 18.5q64 0 115 -16l35 100h131l-55 -160q110 -95 110 -284v-338q0 -80 -20.5 -143t-53 -103t-77.5 -66.5t-90.5 -37t-94.5 -10.5q-61 0 -111 15l-35 -101h-130l55 159q-112 95 -112 287zM337 460q0 -42 1 -61l147 423 q-19 12 -45 12q-56 0 -79.5 -56.5t-23.5 -210.5v-107zM400 201q18 -9 42 -9q56 0 80.5 57.5t23.5 210.5v107q0 36 -1 52z" />
<glyph unicode="&#xf9;" horiz-adv-x="786" d="M59 342v682h230v-566q0 -154 24.5 -211t79.5 -57q52 0 78.5 45t27.5 160v629h230v-1024h-161l-34 91q-72 -109 -214 -109q-50 0 -94.5 18.5t-83 58t-61 112t-22.5 171.5zM208 1468h258l114 -329h-179z" />
<glyph unicode="&#xfa;" horiz-adv-x="786" d="M59 342v682h230v-566q0 -154 24.5 -211t79.5 -57q52 0 78.5 45t27.5 160v629h230v-1024h-161l-34 91q-72 -109 -214 -109q-50 0 -94.5 18.5t-83 58t-61 112t-22.5 171.5zM208 1136l115 330h257l-192 -330h-180z" />
<glyph unicode="&#xfb;" horiz-adv-x="786" d="M59 342v682h230v-566q0 -154 24.5 -211t79.5 -57q52 0 78.5 45t27.5 160v629h230v-1024h-161l-34 91q-72 -109 -214 -109q-50 0 -94.5 18.5t-83 58t-61 112t-22.5 171.5zM107 1129l164 316h246l164 -315h-168l-119 128l-118 -129h-169z" />
<glyph unicode="&#xfc;" horiz-adv-x="786" d="M59 342v682h230v-566q0 -154 24.5 -211t79.5 -57q52 0 78.5 45t27.5 160v629h230v-1024h-161l-34 91q-72 -109 -214 -109q-50 0 -94.5 18.5t-83 58t-61 112t-22.5 171.5zM120 1208v226h229v-226h-229zM439 1208v226h230v-226h-230z" />
<glyph unicode="&#xfd;" horiz-adv-x="768" d="M48 360v664h231v-548q0 -154 24.5 -211t79.5 -57q54 0 79 57.5t26 210.5v549h230v-1027q-1 -77 -21.5 -138.5t-52.5 -100.5t-76 -64.5t-89 -36t-93 -10.5q-43 0 -83.5 8.5t-81 28.5t-73 50t-56.5 77.5t-33 107.5h234q22 -64 91 -64q51 0 77 36.5t27 127.5v58 q-62 -78 -178 -78q-50 0 -94.5 18.5t-83.5 58t-61.5 112t-22.5 171.5zM198 1136l114 330h258l-193 -330h-179z" />
<glyph unicode="&#xfe;" d="M65 -334v1768h230v-470q64 78 179 78q50 0 94.5 -18.5t83 -58t61 -112.5t22.5 -172v-338q0 -99 -22.5 -171.5t-61 -112t-83 -58t-94.5 -18.5q-116 0 -179 76v-393h-230zM296 459q0 -153 25 -210.5t79 -57.5q55 0 79.5 57t24.5 211v107q-1 154 -24.5 211t-80.5 57 t-80.5 -57t-22.5 -211v-107z" />
<glyph unicode="&#xff;" horiz-adv-x="768" d="M48 360v664h231v-548q0 -154 24.5 -211t79.5 -57q54 0 79 57.5t26 210.5v549h230v-1027q-1 -77 -21.5 -138.5t-52.5 -100.5t-76 -64.5t-89 -36t-93 -10.5q-43 0 -83.5 8.5t-81 28.5t-73 50t-56.5 77.5t-33 107.5h234q22 -64 91 -64q51 0 77 36.5t27 127.5v58 q-62 -78 -178 -78q-50 0 -94.5 18.5t-83.5 58t-61.5 112t-22.5 171.5zM110 1208v226h229v-226h-229zM429 1208v226h229v-226h-229z" />
<glyph unicode="&#x152;" horiz-adv-x="1398" d="M56 479v477q0 110 24.5 197t64.5 142t95.5 91t113.5 51t123 15q147 0 227 -92v74h621v-267h-347v-309h326v-266h-326v-326h347v-266h-621v76q-80 -92 -227 -92q-65 0 -123 14.5t-113.5 51t-95.5 91.5t-64.5 141.5t-24.5 196.5zM337 494q0 -244 140 -244q67 0 104 59.5 t37 184.5v449q0 124 -37.5 183.5t-103.5 59.5q-140 0 -140 -243v-449z" />
<glyph unicode="&#x153;" horiz-adv-x="1325" d="M95 682q0 98 23.5 171t63.5 113t85.5 58.5t95.5 18.5q169 0 237 -137q85 136 268 136q49 0 94.5 -10.5t90 -37t77 -66.5t53 -103t20.5 -143v-251h-437v-52q0 -105 26 -145.5t79 -41.5q98 0 103 147h229q-1 -79 -21.5 -141.5t-53 -101.5t-77 -65t-89.5 -36.5t-94 -10.5 q-183 0 -268 136q-68 -136 -237 -136q-50 0 -95 18.5t-85 58t-63.5 112.5t-23.5 171zM326 460q1 -155 24 -211.5t81 -56.5q56 0 80 57.5t23 210.5v107q0 152 -25.5 209.5t-79.5 57.5q-56 0 -79.5 -56.5t-23.5 -210.5v-107zM766 638h204v60q-4 134 -101 136q-46 -1 -73 -31 t-30 -105v-60z" />
<glyph unicode="&#x178;" horiz-adv-x="1067" d="M57 1434h285l190 -566l192 566h285l-335 -879v-555h-284v554zM259 1617v226h230v-226h-230zM579 1617v226h229v-226h-229z" />
<glyph unicode="&#x2c6;" horiz-adv-x="866" d="M147 1129l163 316h247l163 -315h-168l-118 128l-119 -129h-168z" />
<glyph unicode="&#x2dc;" horiz-adv-x="772" d="M73 1137q0 60 9 111.5t29.5 96.5t58 71t89.5 26q38 0 66 -13.5t77 -48.5q43 -36 84 -28q44 6 44 90h168q0 -60 -9 -111.5t-29.5 -96.5t-58.5 -71t-90 -26q-36 0 -65.5 12.5t-76.5 47.5q-41 36 -81 31q-47 -6 -47 -91h-168z" />
<glyph unicode="&#x2000;" horiz-adv-x="974" />
<glyph unicode="&#x2001;" horiz-adv-x="1949" />
<glyph unicode="&#x2002;" horiz-adv-x="974" />
<glyph unicode="&#x2003;" horiz-adv-x="1949" />
<glyph unicode="&#x2004;" horiz-adv-x="649" />
<glyph unicode="&#x2005;" horiz-adv-x="487" />
<glyph unicode="&#x2006;" horiz-adv-x="324" />
<glyph unicode="&#x2007;" horiz-adv-x="324" />
<glyph unicode="&#x2008;" horiz-adv-x="243" />
<glyph unicode="&#x2009;" horiz-adv-x="389" />
<glyph unicode="&#x200a;" horiz-adv-x="108" />
<glyph unicode="&#x2010;" horiz-adv-x="712" d="M102 416v267h508v-267h-508z" />
<glyph unicode="&#x2011;" horiz-adv-x="712" d="M102 416v267h508v-267h-508z" />
<glyph unicode="&#x2012;" horiz-adv-x="712" d="M102 416v267h508v-267h-508z" />
<glyph unicode="&#x2013;" horiz-adv-x="966" d="M102 415v268h762v-268h-762z" />
<glyph unicode="&#x2014;" horiz-adv-x="1310" d="M102 415v268h1106v-268h-1106z" />
<glyph unicode="&#x2018;" horiz-adv-x="454" d="M102 936v247l91 251h97l-43 -251h106v-247h-251z" />
<glyph unicode="&#x2019;" horiz-adv-x="454" d="M102 1187v247h251v-247l-91 -251h-96l43 251h-107z" />
<glyph unicode="&#x201a;" horiz-adv-x="454" d="M102 0v247h251v-247l-91 -251h-96l43 251h-107z" />
<glyph unicode="&#x201c;" horiz-adv-x="854" d="M102 936v247l91 251h97l-43 -251h106v-247h-251zM501 936v247l90 251h97l-43 -251h106v-247h-250z" />
<glyph unicode="&#x201d;" horiz-adv-x="854" d="M102 1187v247h251v-247l-91 -251h-96l43 251h-107zM501 1187v247h250v-247l-91 -251h-96l43 251h-106z" />
<glyph unicode="&#x201e;" horiz-adv-x="454" d="M102 0v247h251v-247l-91 -251h-96l43 251h-107z" />
<glyph unicode="&#x2022;" horiz-adv-x="794" d="M56 601q0 141 99.5 241t241.5 100t241.5 -100t99.5 -241q0 -142 -99.5 -241.5t-241.5 -99.5t-241.5 99.5t-99.5 241.5z" />
<glyph unicode="&#x2026;" horiz-adv-x="1126" d="M102 0v247h251v-247h-251zM438 0v247h251v-247h-251zM774 0v247h250v-247h-250z" />
<glyph unicode="&#x202f;" horiz-adv-x="389" />
<glyph unicode="&#x2039;" horiz-adv-x="520" d="M103 403v271l314 281v-271l-166 -146l166 -145v-271z" />
<glyph unicode="&#x203a;" horiz-adv-x="520" d="M102 122v271l167 145l-167 146v271l315 -282v-270z" />
<glyph unicode="&#x205f;" horiz-adv-x="487" />
<glyph unicode="&#x20ac;" horiz-adv-x="1034" d="M53 572v112h103v67h-103v111h103v94q0 110 24.5 197t64.5 142t95.5 91t113.5 51t123 15q63 0 119 -14t110 -49.5t93.5 -89t64.5 -138t26 -192.5v-43h-274l-1 35q-9 225 -138 225q-140 0 -140 -243v-81h429l-111 -111h-318v-67h251l-112 -112h-139v-78q0 -244 140 -244 q130 0 139 227v35h274v-44q-1 -108 -25.5 -193t-64 -138.5t-94 -89t-110.5 -49.5t-119 -14q-65 0 -123 14.5t-113.5 51t-95.5 91.5t-64.5 141.5t-24.5 196.5v93h-103z" />
<glyph unicode="&#x2122;" horiz-adv-x="1347" d="M31 1251v183h478v-183h-139v-647h-200v647h-139zM546 604v830h258l127 -391l128 391h258v-830h-201v448l-119 -350h-128l-122 350v-448h-201z" />
<glyph unicode="&#x25fc;" horiz-adv-x="1024" d="M0 0v1024h1024v-1024h-1024z" />
</font>
</defs>
</svg>
