<?xml version="1.0" standalone="no"?>
<!DOCTYPE svg PUBLIC "-//W3C//DTD SVG 1.1//EN" "http://www.w3.org/Graphics/SVG/1.1/DTD/svg11.dtd" >
<svg xmlns="http://www.w3.org/2000/svg" xmlns:xlink="http://www.w3.org/1999/xlink" version="1.1">
<metadata></metadata>
<defs>
<font id="neusalight" horiz-adv-x="817" >
<font-face units-per-em="2048" ascent="1536" descent="-512" />
<missing-glyph horiz-adv-x="614" />
<glyph unicode="&#xfb01;" horiz-adv-x="974" d="M92 986v36h185v70q0 78 7.5 135t23.5 96.5t37 64.5t54.5 38.5t67.5 19t84 6.5h25v-36h-23q-39 0 -65.5 -3t-54 -11.5t-44.5 -23.5t-32.5 -40t-23.5 -61t-13 -86t-5 -116v-51h261v-38h-261v-986h-38v986h-185zM797 1223v57h55v-57h-55zM805 0v1024h39v-1024h-39z" />
<glyph unicode="&#xfb02;" horiz-adv-x="948" d="M92 986v36h185v70q0 78 7.5 135t23.5 96.5t37 64.5t54.5 38.5t67.5 19t84 6.5h25v-36h-27q-45 -1 -74.5 -5t-58.5 -16.5t-46 -35t-30.5 -60.5t-19 -93t-5.5 -131v-51h261v-38h-261v-986h-38v986h-185zM797 0v1434h38v-1434h-38z" />
<glyph horiz-adv-x="0" />
<glyph horiz-adv-x="682" />
<glyph unicode=" "  horiz-adv-x="614" />
<glyph unicode="&#x09;" horiz-adv-x="614" />
<glyph unicode="&#xa0;" horiz-adv-x="614" />
<glyph unicode="!" horiz-adv-x="260" d="M102 0v57h55v-57h-55zM109 286v1150h40v-494l-4 -656h-36z" />
<glyph unicode="&#x22;" horiz-adv-x="391" d="M102 1434h40l-6 -286h-28zM249 1434h40l-6 -286h-28z" />
<glyph unicode="#" horiz-adv-x="1357" d="M103 480l8 38h316l73 355h-314l8 38h316l111 523h40l-111 -523h337l113 523h39l-112 -523h328l-8 -38h-328l-74 -355h328l-8 -38h-328l-102 -480h-40l102 480h-338l-103 -480h-40l103 480h-316zM466 518h339l74 355h-339z" />
<glyph unicode="$" horiz-adv-x="1073" d="M123 418h40q0 -87 23.5 -157t61 -113.5t88 -72.5t100 -41t101.5 -12q168 0 271 86.5t103 266.5q0 62 -19 114t-49.5 88.5t-77 68.5t-93 53t-106.5 41q-10 3 -46 15t-51.5 17.5t-51 19.5t-54 24.5t-49 29t-47.5 36t-38 43.5t-32 53t-19 62.5t-8 74.5q0 87 30.5 153 t83 104.5t114 58t131.5 21.5v84h40v-84q70 -3 133.5 -29t117.5 -76t86 -135t32 -194h-40q0 103 -30.5 182t-82 124t-111.5 67.5t-125 22.5q-66 0 -124.5 -16.5t-107.5 -50t-78 -93.5t-29 -139q1 -47 14 -88t31.5 -70.5t47 -55t54 -41.5t60 -31t57 -22t53 -16.5t40.5 -12.5 q100 -34 168.5 -69.5t118.5 -83.5t73.5 -109.5t23.5 -141.5q0 -99 -29.5 -174t-83 -120t-120.5 -68.5t-149 -27.5v-86h-40v86q-57 1 -112 15.5t-109 48t-94.5 81.5t-65.5 123t-25 166z" />
<glyph unicode="%" horiz-adv-x="1292" d="M102 1010v244q0 44 14.5 79t36 56t49.5 35t52.5 19t46.5 5q31 0 63.5 -10t63.5 -31t51 -61t20 -92v-244q0 -52 -19.5 -91.5t-51.5 -60.5t-63.5 -31t-63.5 -11q-22 0 -46.5 5t-52.5 19t-49.5 35t-36 56t-14.5 79zM143 1010q0 -42 16.5 -74t42 -48t50.5 -24t49 -8 q60 2 109 39.5t49 114.5v244q0 77 -49 115t-109 38q-24 0 -49 -7.5t-50.5 -24t-42 -48t-16.5 -73.5v-244zM175 0l892 1434h49l-892 -1434h-49zM792 180v243q0 54 21 94.5t53.5 61t64 30t60.5 9.5q31 0 63.5 -10.5t63.5 -31.5t51 -61t20 -92v-243q0 -52 -20 -92t-51 -61 t-63.5 -31t-63.5 -10q-22 0 -46.5 5t-52.5 19t-49.5 35t-36 56t-14.5 79zM833 180q0 -42 16 -73.5t42 -48t51 -24t49 -8.5q59 0 108.5 38.5t49.5 115.5v243q0 77 -49.5 115.5t-108.5 38.5q-24 0 -49 -8t-50.5 -24t-42 -48t-16.5 -74v-243z" />
<glyph unicode="&#x26;" horiz-adv-x="1136" d="M92 354v37q0 139 71.5 229t201.5 123q-115 33 -183.5 114.5t-68.5 211.5v37q0 90 33.5 159.5t89.5 108.5t120.5 58.5t134.5 19.5h235v-38h-235q-64 0 -120 -15t-107 -49.5t-81 -99.5t-30 -154v-16q0 -87 32 -151.5t85.5 -99.5t114 -51.5t127.5 -16.5h404v372h40v-372h88 v-38h-88v-361q0 -90 -22 -157.5t-57.5 -108t-88 -66t-105.5 -35t-120 -11.5h-47q-111 0 -206 41.5t-156.5 127.5t-61.5 201zM132 364q0 -86 33 -153.5t88 -107.5t122 -60.5t141 -20.5h29q64 0 112.5 6.5t99.5 27.5t84 57.5t54 100t21 150.5v359h-404q-172 0 -276 -85.5 t-104 -256.5v-17z" />
<glyph unicode="'" horiz-adv-x="245" d="M102 1434h40l-6 -286h-28z" />
<glyph unicode="(" horiz-adv-x="473" d="M102 -132v1513q0 67 43 111t102 44h123v-38h-123q-43 0 -74 -33t-31 -84v-1515q0 -50 31 -82.5t74 -32.5h123v-38h-123q-59 0 -102 44t-43 111z" />
<glyph unicode=")" horiz-adv-x="473" d="M102 -249h124q42 0 73 32.5t31 82.5v1515q0 51 -30.5 84t-73.5 33h-124v38h123q59 0 102 -44t43 -111v-1513q0 -67 -43 -111t-102 -44h-123v38z" />
<glyph unicode="*" horiz-adv-x="802" d="M103 1236l12 38l266 -86v278h40v-278l264 86l14 -38l-266 -86l164 -228l-32 -22l-164 225l-164 -225l-32 22l164 228z" />
<glyph unicode="+" horiz-adv-x="1052" d="M102 619v40h404v404h40v-404h404v-40h-404v-403h-40v403h-404z" />
<glyph unicode="," horiz-adv-x="260" d="M102 0v57h55v-57l-29 -46h-14l10 46h-22z" />
<glyph unicode="-" horiz-adv-x="712" d="M102 531v40h508v-40h-508z" />
<glyph unicode="." horiz-adv-x="260" d="M102 0v57h55v-57h-55z" />
<glyph unicode="/" horiz-adv-x="890" d="M103 0l645 1434h40l-645 -1434h-40z" />
<glyph unicode="0" horiz-adv-x="1075" d="M123 479v398q0 110 23.5 196.5t63 141.5t93.5 91.5t111.5 51t122.5 14.5q64 0 121 -14.5t112 -50.5t94.5 -91t64 -142t24.5 -197v-398q0 -110 -24.5 -197t-64 -142t-94.5 -91t-112 -50.5t-121 -14.5q-65 0 -122.5 14.5t-111.5 51t-93.5 91.5t-63 141.5t-23.5 196.5z M163 500q0 -137 31 -234t86 -148.5t118 -73.5t139 -22q59 0 110.5 13t101.5 46.5t85.5 86t57 137.5t21.5 195v356q0 110 -21.5 195t-57 137.5t-85.5 86t-101.5 46.5t-110.5 13q-76 0 -139 -22t-118 -73.5t-86 -148.5t-31 -234v-356z" />
<glyph unicode="1" horiz-adv-x="376" d="M92 1314v38h161v-1352h-40v1314h-121z" />
<glyph unicode="2" horiz-adv-x="1001" d="M92 0v38q0 78 26.5 146t71.5 119.5t103.5 98.5t123 87.5t129 80t123 83t103.5 90.5t71.5 107.5t26.5 128.5q0 78 -22 141t-56 101.5t-80 64.5t-90 36t-89 10h-21q-45 0 -90 -9.5t-91 -33.5t-84 -59t-67.5 -91t-43.5 -125h-42l5 19q19 85 62 151t99 104.5t115 59t119 22.5 h39q66 0 129.5 -22t120 -66t91.5 -122.5t35 -180.5v-4q0 -71 -26.5 -134.5t-71 -112t-102.5 -93.5t-122.5 -85t-128.5 -80t-122 -85.5t-102.5 -94.5t-71 -113t-26.5 -137h761v-40h-805z" />
<glyph unicode="3" horiz-adv-x="1028" d="M92 364h40q14 -93 55 -162.5t98 -107t115 -55t118 -17.5h29q65 0 126 20t111.5 58.5t81 101.5t30.5 142v16q0 157 -103 240t-266 83h-123v37h123q50 0 97.5 9.5t93.5 32t80.5 55.5t56 85t21.5 116v17q0 66 -24 119t-60 85.5t-81.5 54t-86.5 30t-77 8.5h-29 q-58 0 -114.5 -16.5t-111 -51.5t-96 -99.5t-58.5 -150.5h-41l2 12q19 86 63 153.5t101 107t117 60.5t120 23h47q41 0 88.5 -11t98 -37t90.5 -62.5t66 -92.5t26 -122v-37q0 -116 -69.5 -194.5t-183.5 -110.5q128 -32 200.5 -119.5t72.5 -212.5v-37q0 -105 -57 -186.5 t-145 -122.5t-187 -41h-47q-63 0 -126 21.5t-121 64t-101 117t-58 169.5z" />
<glyph unicode="4" horiz-adv-x="1011" d="M92 355v37l542 960h44l-542 -959h588v631h39v-631h156v-38h-156v-355h-39v355h-632z" />
<glyph unicode="5" horiz-adv-x="1038" d="M103 364h40q14 -93 55 -162.5t98 -107t115 -55t118 -17.5h28q65 0 126 20t111.5 58.5t81.5 101.5t31 142v107q0 157 -103.5 239.5t-266.5 82.5h-367v579h678v-38h-638v-503h203q1 0 42 1t70 0.5t73 -4.5t76 -13q128 -32 200.5 -120.5t72.5 -213.5v-127 q0 -105 -57.5 -186.5t-145.5 -122.5t-187 -41h-47q-50 0 -99.5 12.5t-99.5 41t-91 70.5t-72 105t-43 139z" />
<glyph unicode="6" horiz-adv-x="1034" d="M103 372v505q0 110 25.5 196.5t66.5 141.5t98 91.5t116 51t124 14.5q55 0 107.5 -11t104.5 -37t90.5 -66t62.5 -103t24 -141h-40q0 72 -21.5 129t-56 92t-81.5 58t-93.5 32t-96.5 9q-61 0 -113.5 -12t-105 -44t-89 -83t-59.5 -135t-23 -194v-266q40 92 119 148.5 t201 56.5h109q79 0 143 -26t103.5 -68t66 -97.5t37 -110t10.5 -110.5q0 -71 -18.5 -138.5t-58 -130t-112.5 -101t-171 -39.5h-109q-76 1 -138 25t-101.5 63t-66.5 90.5t-39.5 103.5t-14.5 106zM143 393q0 -67 16.5 -128.5t52 -117.5t100 -90t151.5 -35h109q87 1 151.5 35 t100 90t52 117.5t16.5 128.5t-16.5 129.5t-51.5 119t-100 91t-152 34.5h-109q-87 0 -152 -34.5t-100 -91t-51.5 -119t-16.5 -129.5z" />
<glyph unicode="7" horiz-adv-x="970" d="M92 1314v38h770v-34l-601 -1318h-44l600 1314h-725z" />
<glyph unicode="8" horiz-adv-x="1040" d="M92 334v37q0 125 72.5 212.5t200.5 119.5q-114 32 -183 110.5t-69 194.5v37q0 66 26 122.5t66 92.5t90 62t97.5 37t88.5 11h78q41 0 88.5 -11t98 -37t90.5 -62t66 -92.5t26 -122.5v-37q0 -116 -69 -194.5t-183 -110.5q128 -32 200 -119.5t72 -212.5v-37 q0 -105 -57.5 -186.5t-145 -122.5t-186.5 -41h-78q-99 0 -186.5 41t-145 122.5t-57.5 186.5zM132 344q0 -79 30.5 -142t81 -101.5t111.5 -58.5t126 -20h78q65 0 126 20t111.5 58.5t81.5 101.5t31 142v16q0 156 -103.5 239t-266.5 83h-37q-163 0 -266.5 -83t-103.5 -239v-16z M153 1018q0 -64 21.5 -116t56 -85t80.5 -55.5t93.5 -32t97.5 -9.5h37q50 0 97.5 9.5t93.5 32t80.5 55.5t56 85t21.5 116v17q0 66 -24 119t-60 85.5t-81.5 54t-86.5 30t-77 8.5h-78q-36 0 -77 -8.5t-86.5 -30t-81.5 -54t-59.5 -85.5t-23.5 -119v-17z" />
<glyph unicode="9" horiz-adv-x="1013" d="M92 963q0 56 11 110t37.5 109t66.5 96t103.5 67t142.5 27h108q76 -1 138 -25t102 -63t67.5 -91t39.5 -104t14 -106v-504q0 -110 -25.5 -196.5t-66.5 -141.5t-98 -91.5t-116 -51t-124 -14.5q-55 0 -107.5 11t-104.5 37t-90.5 66t-62.5 103t-24 141h40q0 -72 21.5 -129 t56 -92t81.5 -58t93.5 -32t96.5 -9q61 0 113.5 11.5t105 43.5t89 83t59.5 135t23 194v267q-40 -93 -119.5 -149t-200.5 -56h-109q-79 0 -143 26t-103.5 68t-66.5 97.5t-37.5 110t-10.5 110.5zM132 963q0 -53 9.5 -103t33.5 -100t59.5 -87.5t92 -60.5t126.5 -23h109 q87 0 152 34.5t100 91t51.5 119t16.5 129.5t-16.5 128.5t-52 117.5t-100 90t-151.5 35h-109q-70 -1 -126 -24t-92 -59.5t-59.5 -86t-33.5 -99.5t-10 -102z" />
<glyph unicode=":" horiz-adv-x="260" d="M102 0v56h55v-56h-55zM102 682v56h55v-56h-55z" />
<glyph unicode=";" horiz-adv-x="260" d="M102 0v57h55v-57l-29 -46h-14l10 46h-22zM102 682v56h55v-56h-55z" />
<glyph unicode="&#x3c;" horiz-adv-x="796" d="M102 674v51l593 389v-50l-556 -365l556 -363v-51z" />
<glyph unicode="=" horiz-adv-x="1052" d="M102 542v40h848v-40h-848zM102 855v40h848v-40h-848z" />
<glyph unicode="&#x3e;" horiz-adv-x="796" d="M102 285v51l556 363l-556 365v50l593 -389v-51z" />
<glyph unicode="?" horiz-adv-x="1019" d="M102 1096l2 13q19 87 62.5 154.5t100 106.5t115.5 59.5t120 22.5h39q66 0 129.5 -22t120 -66t91.5 -122.5t35 -180.5v-4q0 -78 -23.5 -138.5t-61.5 -98.5t-83.5 -69t-91 -60t-83.5 -62t-61.5 -84t-23.5 -117h-44q0 72 24 127.5t62 90.5t84 64.5t92 59.5t84 66t62 93 t24 132q0 78 -21.5 141t-56 101.5t-80 64.5t-89.5 36t-89 10h-21q-45 0 -90 -9.5t-91 -33.5t-84 -59t-67.5 -91t-43.5 -125h-42zM441 0v57h54v-57h-54z" />
<glyph unicode="@" horiz-adv-x="1505" d="M102 574q0 142 16 246t59.5 196.5t116.5 150t190.5 90.5t278.5 33q99 0 180.5 -12t143 -31t109.5 -52.5t81 -68.5t56.5 -87t36.5 -99t20.5 -113.5t9.5 -122t2 -133.5v-303q0 -89 -59.5 -148.5t-148.5 -59.5q-148 0 -178 145q-34 -98 -104 -144.5t-159 -46.5 q-47 0 -88.5 11t-80.5 37t-67.5 66.5t-45.5 103.5t-17 143v338q0 99 25.5 172t69.5 112.5t94.5 57.5t109.5 18q86 0 154.5 -43t104.5 -131v156h38v-787q0 -86 29 -127t115 -41q77 0 122.5 45.5t45.5 122.5v303q-1 101 -4.5 162.5t-16 142t-36.5 128.5t-67.5 101t-106 80.5 t-155.5 46t-213 18.5q-112 0 -200.5 -15.5t-153 -44t-111.5 -74t-77 -98.5t-47.5 -125.5t-24 -147.5t-6.5 -171q0 -105 6.5 -187t23.5 -161t46 -136.5t75 -107t108.5 -80t147.5 -47.5t193 -17h307v-40h-307q-130 0 -230.5 23.5t-170.5 71t-117 111.5t-74 155t-38 189.5 t-11 225.5zM492 391q0 -79 15 -139.5t39 -98t58.5 -61.5t70.5 -33t78 -9q259 0 259 341v306q0 340 -259 340q-52 0 -95 -15.5t-82.5 -51.5t-61.5 -105.5t-22 -167.5v-306z" />
<glyph unicode="A" horiz-adv-x="1132" d="M123 0l423 1434h41l423 -1434h-40l-152 515h-503l-152 -515h-40zM327 557h479l-240 812z" />
<glyph unicode="B" horiz-adv-x="1003" d="M164 0v1434h309q78 0 148.5 -19t130.5 -57.5t95.5 -106t35.5 -155.5v-35q0 -124 -66.5 -202.5t-177.5 -112.5q134 -31 208.5 -120.5t74.5 -226.5v-37q0 -174 -115 -268t-315 -94h-328zM204 38h288q185 0 287.5 83t102.5 241v37q0 157 -102.5 240.5t-287.5 83.5h-288v-685 zM204 761h269q104 0 185 30t133 99.5t52 170.5v35q0 79 -31 138.5t-84.5 94t-117.5 51t-137 16.5h-269v-635z" />
<glyph unicode="C" horiz-adv-x="1064" d="M164 479v477q0 110 23.5 197t63 142t93.5 91t111.5 51t122.5 15q60 0 114 -13t106 -45.5t90.5 -82.5t64 -128.5t30.5 -178.5v-27h-40l-2 27q-8 116 -40.5 199t-84.5 127.5t-110 64t-128 19.5q-76 0 -139 -22t-118 -73.5t-86 -148.5t-31 -234v-436q0 -137 31 -234 t86 -148.5t118 -73.5t139 -22q69 0 126.5 19t109 62.5t85 125t42.5 195.5l2 35h40v-23q-5 -100 -30.5 -179.5t-63.5 -129.5t-90 -83t-106.5 -46.5t-114.5 -13.5q-65 0 -122.5 14.5t-111.5 51t-93.5 91.5t-63 141.5t-23.5 196.5z" />
<glyph unicode="D" horiz-adv-x="1083" d="M164 0v1434h350q64 0 121 -14.5t112 -50.5t94.5 -91t64 -142.5t24.5 -197.5v-442q0 -110 -24.5 -197.5t-64 -142.5t-94.5 -91t-112 -50.5t-121 -14.5h-350zM204 38h310q59 0 110.5 13t101.5 46.5t85.5 86t57 137.5t21.5 195v401q0 110 -21.5 195.5t-57 138t-85.5 86 t-101.5 46.5t-110.5 13h-310v-1358z" />
<glyph unicode="E" horiz-adv-x="866" d="M164 0v1434h621v-38h-581v-635h560v-37h-560v-686h581v-38h-621z" />
<glyph unicode="F" horiz-adv-x="854" d="M164 0v1434h609v-38h-569v-651h548v-38h-548v-707h-40z" />
<glyph unicode="G" horiz-adv-x="1150" d="M164 479v477q0 110 23.5 197t63 142t93.5 91t111.5 51t122.5 15q62 0 118.5 -14t110.5 -48.5t94 -87.5t65.5 -136.5t27.5 -188.5v-21h-40v17q-3 101 -26.5 179.5t-59 127t-84.5 79.5t-99 43t-107 12q-76 0 -139 -22t-118 -73.5t-86 -148.5t-31 -234v-436q0 -137 31 -234 t86 -148.5t118 -73.5t139 -22q59 0 110.5 13t101.5 46.5t85.5 86t57 137.5t21.5 195v193h-351v38h391v-252q0 -110 -24.5 -197t-64 -142t-94.5 -91t-112 -50.5t-121 -14.5q-65 0 -122.5 14.5t-111.5 51t-93.5 91.5t-63 141.5t-23.5 196.5z" />
<glyph unicode="H" horiz-adv-x="1064" d="M164 0v1434h40v-673h657v673h40v-1434h-40v724h-657v-724h-40z" />
<glyph unicode="I" horiz-adv-x="368" d="M164 0v1434h40v-1434h-40z" />
<glyph unicode="J" horiz-adv-x="681" d="M123 -16v38h20q52 3 98 19t90.5 51.5t76 88.5t51 135t19.5 184v934h40v-955q0 -103 -21.5 -186t-56.5 -138t-83 -93t-99 -56t-107 -22h-28z" />
<glyph unicode="K" horiz-adv-x="1046" d="M164 0v1434h40v-670l612 670h56l-634 -695l685 -739h-56l-663 716v-716h-40z" />
<glyph unicode="L" horiz-adv-x="894" d="M164 0v1434h40v-1396h569v-38h-609z" />
<glyph unicode="M" horiz-adv-x="1318" d="M158 0v1434h40l458 -1378l459 1378h40v-1434h-40v1313l-437 -1313h-43l-437 1313v-1313h-40z" />
<glyph unicode="N" horiz-adv-x="1054" d="M158 0v1434h40l659 -1352v1352h40v-1434h-40l-659 1352v-1352h-40z" />
<glyph unicode="O" horiz-adv-x="1116" d="M144 479v477q0 110 23.5 196.5t62.5 142t93.5 91.5t111.5 51t122 15q64 0 121 -14.5t112 -50.5t94.5 -91t64 -142.5t24.5 -197.5v-477q0 -110 -24.5 -197t-64 -142t-94.5 -91t-112 -50.5t-121 -14.5q-82 0 -152 25t-130.5 79.5t-95.5 154.5t-35 236zM184 500 q0 -110 21 -195t55.5 -137.5t84 -86t101 -46.5t111.5 -13q59 0 110.5 13t101.5 46.5t85.5 86t57 137.5t21.5 195v436q0 110 -21.5 195t-57 137.5t-85.5 86t-101.5 46.5t-110.5 13q-60 0 -111.5 -13t-101 -46.5t-84 -86t-55.5 -137.5t-21 -195v-436z" />
<glyph unicode="P" horiz-adv-x="1036" d="M164 0v1434h309q61 0 117.5 -11t110.5 -37.5t94 -66t64 -100.5t24 -137v-64q0 -74 -24 -134.5t-64 -100.5t-94 -67t-111 -38.5t-117 -11.5h-269v-666h-40zM204 704h269q57 0 107.5 9t99.5 32t84.5 58.5t57 93t21.5 131.5v43q0 76 -21.5 134t-56.5 93.5t-84.5 58t-99.5 31 t-108 8.5h-269v-692z" />
<glyph unicode="Q" horiz-adv-x="1208" d="M164 479v477q0 110 23.5 197t63 142t93.5 91t111.5 51t122.5 15q64 0 121 -14.5t112 -50.5t94.5 -91t64 -142.5t24.5 -197.5v-477q0 -351 -231 -457h282v-38h-469q-64 0 -121.5 15t-111.5 51t-93 91t-62.5 141.5t-23.5 196.5zM204 500q0 -137 31 -234t86 -148.5 t118 -73.5t139 -22q59 0 110.5 13t101.5 46.5t85.5 86t57 137.5t21.5 195v436q0 110 -21.5 195t-57 137.5t-85.5 86t-101.5 46.5t-110.5 13q-76 0 -139 -22t-118 -73.5t-86 -148.5t-31 -234v-436z" />
<glyph unicode="R" horiz-adv-x="1034" d="M164 0v1434h330q61 0 117.5 -11t110.5 -37t93.5 -65.5t63.5 -101t24 -137.5v-43q0 -79 -26 -142t-71 -103.5t-100 -65t-120 -34.5l325 -694h-44l-325 687h-338v-687h-40zM204 725h290q57 0 107.5 8.5t99.5 31.5t84 58.5t56.5 93.5t21.5 132v22q0 76 -21.5 134.5t-56.5 94 t-84.5 57.5t-99 30.5t-107.5 8.5h-290v-671z" />
<glyph unicode="S" horiz-adv-x="1073" d="M123 418h40q0 -87 23.5 -157t61 -113.5t88 -72.5t100 -41t101.5 -12q81 0 147 18.5t118 58t80.5 107t28.5 158.5q0 67 -19 121.5t-49 92t-77.5 69.5t-92.5 52t-107 41q-13 4 -45.5 14.5t-51.5 17t-52 19.5t-53.5 23.5t-49.5 28.5t-47 36t-38.5 43.5t-32 53t-19 63.5 t-7.5 76q0 72 22 130.5t58.5 96t86 63t102.5 36.5t110 11q72 0 139 -24.5t124 -73.5t91.5 -136t34.5 -200h-40q0 103 -30.5 182t-82 124t-111.5 67.5t-125 22.5q-66 0 -124.5 -16.5t-107.5 -50t-78 -93.5t-29 -139q1 -48 14 -89.5t31.5 -71t47 -55t54.5 -41.5t60 -30.5 t57 -21.5t52.5 -15.5t40.5 -12.5q101 -34 168.5 -69t118.5 -83t74 -112t23 -150q0 -103 -32.5 -178.5t-91 -118.5t-130.5 -63t-160 -20q-57 0 -113 14t-111 47t-96.5 81.5t-67.5 123.5t-26 168z" />
<glyph unicode="T" horiz-adv-x="966" d="M123 1396v38h721v-38h-340v-1396h-40v1396h-341z" />
<glyph unicode="U" horiz-adv-x="1138" d="M164 479q0 -108 23 -194t61.5 -141.5t91.5 -92t110.5 -52t121.5 -15.5q80 0 149.5 25.5t129.5 80.5t95 154.5t35 234.5v955h-40v-934q0 -132 -31 -228.5t-85 -149t-116.5 -76.5t-136.5 -24q-59 0 -111 14t-100 49t-82 88t-54.5 136.5t-20.5 190.5v934h-40v-955z" />
<glyph unicode="V" horiz-adv-x="1132" d="M123 1434h40l403 -1370l404 1370h40l-423 -1434h-41z" />
<glyph unicode="W" horiz-adv-x="1693" d="M123 1434h40l329 -1352l334 1352h42l335 -1352l328 1352h40l-349 -1434h-39l-336 1357l-336 -1357h-39z" />
<glyph unicode="X" horiz-adv-x="1034" d="M123 0l373 715l-373 719h44l349 -672l351 672h44l-373 -716l373 -718h-44l-348 671l-352 -671h-44z" />
<glyph unicode="Y" horiz-adv-x="1038" d="M123 1434h44l347 -777l355 777h46l-381 -821v-613h-40v613z" />
<glyph unicode="Z" horiz-adv-x="1116" d="M123 0v40l807 1356h-790v38h837v-41l-806 -1353h823v-40h-871z" />
<glyph unicode="[" horiz-adv-x="376" d="M102 -287v1823h173v-40h-133v-1743h133v-40h-173z" />
<glyph unicode="\" horiz-adv-x="890" d="M103 1434h40l645 -1434h-40z" />
<glyph unicode="]" horiz-adv-x="376" d="M102 -247h134v1743h-134v40h173v-1823h-173v40z" />
<glyph unicode="^" horiz-adv-x="1028" d="M102 767l412 632l412 -632h-48l-364 555l-363 -555h-49z" />
<glyph unicode="_" horiz-adv-x="1052" d="M102 -164h848v-40h-848v40z" />
<glyph unicode="`" horiz-adv-x="413" d="M102 1433h86l123 -224h-45z" />
<glyph unicode="a" d="M103 344v338q0 99 25.5 172t69.5 112.5t94.5 57.5t109.5 18q86 0 154 -43t104 -131v156h38v-1024h-38v163q-36 -92 -104 -135.5t-154 -43.5q-59 0 -109.5 18t-94.5 57.5t-69.5 112.5t-25.5 172zM141 360q0 -97 21.5 -166.5t60 -106t82 -52t96.5 -15.5q259 0 259 340v306 q0 340 -259 340q-52 0 -95 -15.5t-82 -51.5t-61 -105.5t-22 -167.5v-306z" />
<glyph unicode="b" horiz-adv-x="821" d="M123 0v1434h38v-566q36 89 104.5 131.5t154.5 42.5q59 0 109.5 -18t94.5 -57.5t69.5 -112.5t25.5 -172v-338q0 -99 -25.5 -172t-69.5 -112.5t-94.5 -57.5t-109.5 -18q-86 0 -154 43.5t-104 135.5v-163h-39zM161 360q0 -340 259 -340q53 0 96.5 15.5t82.5 52t60.5 106 t21.5 166.5v306q0 98 -22 167.5t-61.5 105.5t-82.5 51.5t-95 15.5q-259 0 -259 -340v-306z" />
<glyph unicode="c" horiz-adv-x="796" d="M103 344v338q0 99 25 171.5t68.5 112t93.5 58t109 18.5q57 0 106 -16.5t92.5 -53t70 -104t30.5 -159.5v-27h-38q-2 93 -25 159t-61.5 100.5t-81 49.5t-93.5 15q-258 0 -258 -340v-306q0 -340 258 -340q52 0 95 15.5t81 50t60.5 100.5t24.5 158h38v-23q-3 -93 -29.5 -161 t-70 -105t-93 -54t-106.5 -17q-59 0 -109 18.5t-93.5 58t-68.5 112t-25 171.5z" />
<glyph unicode="d" d="M103 344v338q0 99 25.5 172t69.5 112.5t94.5 57.5t109.5 18q86 0 154 -42.5t104 -131.5v566h38v-1434h-38v163q-36 -92 -104 -135.5t-154 -43.5q-59 0 -109.5 18t-94.5 57.5t-69.5 112.5t-25.5 172zM141 360q0 -97 21.5 -166.5t60 -106t82 -52t96.5 -15.5q259 0 259 340 v306q0 340 -259 340q-52 0 -95 -15.5t-82 -51.5t-61 -105.5t-22 -167.5v-306z" />
<glyph unicode="e" horiz-adv-x="794" d="M103 344v338q0 99 25 171.5t68.5 112t93.5 58t109 18.5q58 0 108 -18t94 -57.5t69.5 -112.5t25.5 -172v-201h-555v-121q0 -340 258 -340q50 0 91.5 14.5t79.5 47.5t61 95.5t27 150.5h38q-2 -95 -28 -164.5t-69.5 -107t-93 -55t-106.5 -17.5q-59 0 -109 18.5t-93.5 58 t-68.5 112t-25 171.5zM141 518h517v148q0 98 -22 167.5t-61 105.5t-82 51.5t-94 15.5q-258 0 -258 -340v-148z" />
<glyph unicode="f" horiz-adv-x="667" d="M92 986v36h185v70q0 92 11.5 156.5t31 103.5t55 61t74.5 30t98 9h29v-36h-29q-54 -1 -87 -7t-64 -25.5t-46.5 -57t-25 -99t-9.5 -152.5v-51h261v-38h-261v-986h-38v986h-185z" />
<glyph unicode="g" d="M102 360v322q0 99 25.5 172t69.5 112.5t95 57.5t110 18q86 0 154 -43t104 -131v156h38v-1024q-1 -96 -26.5 -167t-69 -110t-93.5 -57t-108 -18q-61 0 -113.5 18t-98 65.5t-66.5 120.5h42q56 -168 236 -168q259 0 259 341v155q-36 -92 -104 -136t-154 -44q-59 0 -110 18 t-95 57.5t-69.5 112.5t-25.5 172zM140 376q0 -97 21.5 -166.5t60.5 -106t82.5 -52t96.5 -15.5q259 0 259 340v290q0 340 -259 340q-52 0 -95 -15.5t-82.5 -51.5t-61.5 -105.5t-22 -167.5v-290z" />
<glyph unicode="h" horiz-adv-x="837" d="M129 0v1434h38v-572q35 91 103.5 135.5t155.5 44.5q59 0 109.5 -18t94.5 -57.5t69.5 -112.5t25.5 -172v-682h-38v666q0 98 -22 167.5t-61.5 105.5t-82.5 51.5t-95 15.5q-259 0 -259 -340v-666h-38z" />
<glyph unicode="i" horiz-adv-x="307" d="M129 1223v57h55v-57h-55zM137 0v1024h39v-1024h-39z" />
<glyph unicode="j" horiz-adv-x="550" d="M123 -318h23q46 1 75.5 4.5t59.5 16t47 35t31 60t19.5 92.5t5.5 132v1002h38v-1018q0 -94 -12 -158.5t-32 -104t-56.5 -61t-76 -28.5t-100.5 -8h-22v36zM378 1225v52h50v-52h-50z" />
<glyph unicode="k" horiz-adv-x="745" d="M119 0v1434h38v-891l425 481h48l-443 -502l466 -522h-48l-448 502v-502h-38z" />
<glyph unicode="l" horiz-adv-x="280" d="M129 0v1434h38v-1434h-38z" />
<glyph unicode="m" horiz-adv-x="1384" d="M123 0v1024h38v-162q34 91 103 135.5t156 44.5q99 0 175.5 -51.5t106.5 -166.5q30 111 102.5 164.5t168.5 53.5q59 0 109.5 -18t94.5 -57.5t69.5 -112.5t25.5 -172v-682h-38v666q0 98 -22 167.5t-61.5 105.5t-82.5 51.5t-95 15.5q-233 0 -254 -277v-729h-38v666 q0 98 -22 167.5t-61.5 105.5t-82.5 51.5t-95 15.5q-259 0 -259 -340v-666h-38z" />
<glyph unicode="n" horiz-adv-x="831" d="M123 0v1024h38v-162q34 91 103 135.5t156 44.5q59 0 109.5 -18t94.5 -57.5t69.5 -112.5t25.5 -172v-682h-38v666q0 98 -22 167.5t-61.5 105.5t-82.5 51.5t-95 15.5q-259 0 -259 -340v-666h-38z" />
<glyph unicode="o" horiz-adv-x="800" d="M103 344v338q0 99 25 171.5t68.5 112t93.5 58t109 18.5t109.5 -18t94.5 -57.5t69.5 -112.5t25.5 -172v-338q0 -99 -25.5 -172t-69.5 -112.5t-94.5 -57.5t-109.5 -18t-109 18.5t-93.5 58t-68.5 112t-25 171.5zM141 360q0 -340 258 -340q53 0 96.5 15.5t82.5 52t60.5 106 t21.5 166.5v306q0 98 -22 167.5t-61.5 105.5t-82.5 51.5t-95 15.5q-258 0 -258 -340v-306z" />
<glyph unicode="p" d="M119 -334v1358h38v-163q36 92 104 135.5t154 43.5q59 0 110 -18t95 -57.5t69.5 -112.5t25.5 -172v-338q0 -99 -25.5 -172t-69.5 -112.5t-95 -57.5t-110 -18q-86 0 -154 42.5t-104 131.5v-490h-38zM157 358q0 -340 259 -340q52 0 95 15.5t82.5 51.5t61.5 105.5t22 167.5 v306q0 97 -21.5 166.5t-60.5 106t-82.5 52t-96.5 15.5q-259 0 -259 -340v-306z" />
<glyph unicode="q" d="M103 342v338q0 99 25.5 172t69.5 112.5t94.5 57.5t109.5 18q86 0 154 -43.5t104 -135.5v163h38v-1358h-38v490q-36 -89 -104 -131.5t-154 -42.5q-59 0 -109.5 18t-94.5 57.5t-69.5 112.5t-25.5 172zM141 358q0 -98 22 -167.5t61 -105.5t82 -51.5t95 -15.5q259 0 259 340 v306q0 340 -259 340q-53 0 -96.5 -15.5t-82 -52t-60 -106t-21.5 -166.5v-306z" />
<glyph unicode="r" horiz-adv-x="522" d="M123 0v1024h38v-188q36 100 107.5 153t161.5 53v-34q-113 0 -191 -95t-78 -272v-641h-38z" />
<glyph unicode="s" horiz-adv-x="786" d="M92 278v17h38v-15q2 -73 26 -126t63 -81t82 -40.5t92 -12.5q263 0 263 246q0 103 -60.5 165t-173.5 100q-10 3 -34.5 11t-38.5 12.5t-38.5 14t-39.5 17.5t-36.5 21t-34.5 25.5t-28 31t-23.5 38.5t-14 45t-5.5 54q0 124 79.5 182.5t197.5 58.5q49 0 95 -16t86.5 -49 t66.5 -91t30 -134v-21h-38v25q-7 131 -74.5 190.5t-165.5 59.5q-239 0 -239 -205q1 -31 9.5 -58.5t21 -47t32.5 -36.5t37.5 -27.5t42.5 -21.5t41.5 -16t40 -12.5t32.5 -10.5q143 -48 206.5 -121t63.5 -184q0 -75 -24.5 -131t-67.5 -88t-95 -47.5t-114 -15.5q-51 0 -100.5 16 t-94.5 49t-74 92t-32 137z" />
<glyph unicode="t" horiz-adv-x="667" d="M92 990v34h185v313h38v-313h261v-34h-261v-613q0 -73 5 -127t12.5 -92.5t24 -64t32.5 -40.5t44.5 -22.5t53.5 -10t66 -2.5h23v-36h-25q-51 1 -84 5t-67.5 17.5t-54.5 39t-37 67t-24 103.5t-7 147v629h-185z" />
<glyph unicode="u" horiz-adv-x="821" d="M113 342v682h38v-666q0 -98 22 -167.5t61.5 -105.5t82.5 -51.5t95 -15.5q258 0 258 340v666h39v-1024h-39v162q-34 -91 -102.5 -135.5t-155.5 -44.5q-59 0 -109.5 18t-94.5 57.5t-69.5 112.5t-25.5 172z" />
<glyph unicode="v" horiz-adv-x="927" d="M92 1024h40l332 -968l331 968h41l-351 -1024h-42z" />
<glyph unicode="w" horiz-adv-x="1425" d="M92 1024h40l271 -958l290 958h40l290 -958l271 958h40l-289 -1024h-42l-290 958l-290 -958h-41z" />
<glyph unicode="x" horiz-adv-x="798" d="M92 0l287 510l-287 514h42l264 -472l266 472h42l-287 -510l287 -514h-42l-264 473l-265 -473h-43z" />
<glyph unicode="y" horiz-adv-x="780" d="M92 360v664h38v-648q0 -98 22 -167.5t61.5 -105.5t82.5 -51.5t95 -15.5q259 0 259 340v648h38v-1051q-5 -89 -31.5 -154.5t-69.5 -101.5t-91.5 -52.5t-104.5 -16.5q-61 0 -113.5 18t-98 65.5t-66.5 120.5h42q56 -168 236 -168q259 0 259 341v155q-35 -91 -103 -135.5 t-155 -44.5q-59 0 -110 18t-95 57.5t-69.5 112.5t-25.5 172z" />
<glyph unicode="z" horiz-adv-x="790" d="M92 0v36l560 950h-537v38h581v-36l-559 -952h561v-36h-606z" />
<glyph unicode="{" horiz-adv-x="704" d="M102 605v40h11q95 3 158 63.5t63 149.5v523q0 67 43 111t102 44h123v-38h-124q-43 0 -73.5 -33t-30.5 -84v-523q0 -79 -45 -142t-119 -91q74 -30 119 -92.5t45 -141.5v-525q0 -50 31 -82.5t73 -32.5h124v-38h-123q-59 0 -102 44t-43 111v524q0 87 -63 148t-158 65h-11z " />
<glyph unicode="|" horiz-adv-x="243" d="M102 -123v1557h40v-1557h-40z" />
<glyph unicode="}" horiz-adv-x="704" d="M102 -247h124q42 0 73 32.5t31 82.5v523q0 79 45 142.5t119 91.5q-75 30 -119.5 92.5t-44.5 140.5v523q0 50 -31 82.5t-73 32.5h-124v40h123q59 0 102 -44t43 -111v-523q0 -87 63 -148t158 -65h11v-40h-11q-95 -3 -158 -63.5t-63 -149.5v-524q0 -67 -43 -111t-102 -44 h-123v40z" />
<glyph unicode="~" horiz-adv-x="1181" d="M102 405q0 124 64 203.5t174 79.5q64 0 116.5 -25t108.5 -70q11 -8 43 -35t46.5 -37.5t45 -30.5t52.5 -29t53.5 -16.5t63.5 -7.5q83 0 126.5 61t43.5 155h41q0 -112 -56 -184t-155 -72q-36 0 -71.5 8.5t-58.5 16.5t-58 30.5t-47 31.5t-49.5 39.5t-43.5 35.5 q-107 89 -201 89q-93 0 -145 -69t-52 -174h-41z" />
<glyph unicode="&#xa1;" horiz-adv-x="260" d="M102 1045v57h55v-57h-55zM113 -334v1150h32v-656l4 -494h-36z" />
<glyph unicode="&#xa2;" horiz-adv-x="800" d="M103 344v338q0 94 23 165t63 111t87 60.5t103 23.5v189h40v-189q117 -7 195 -86.5t84 -248.5v-25h-38q-2 93 -25 159t-61.5 100.5t-81 49.5t-93.5 15q-258 0 -258 -340v-306q0 -340 258 -340q52 0 95 15.5t81 50t60.5 100.5t24.5 158h38v-23q-3 -89 -27 -155 t-64.5 -103.5t-86.5 -56.5t-101 -22v-185h-40v185q-56 3 -103 23.5t-87 60.5t-63 111t-23 165z" />
<glyph unicode="&#xa3;" horiz-adv-x="1126" d="M92 0v40h123v671h-123v40h123v218q1 133 37 230.5t96.5 150.5t130 77.5t150.5 24.5q77 0 143 -23t124.5 -73t95 -142t42.5 -217v-20h-40v16q-8 119 -40.5 204t-84.5 131t-110.5 66t-129.5 20q-76 0 -139 -22t-118 -73.5t-86 -148.5t-31 -234v-185h345v-40h-345v-671h722 v-40h-885z" />
<glyph unicode="&#xa4;" horiz-adv-x="1228" />
<glyph unicode="&#xa5;" horiz-adv-x="1153" d="M82 1434h46l448 -736l449 736h46l-365 -599h295v-40h-319l-82 -138v-41h401v-40h-405v-576h-40v576h-402v40h400v41l-82 138h-318v40h293z" />
<glyph unicode="&#xa6;" horiz-adv-x="243" d="M102 -123v655h40v-655h-40zM102 778v656h40v-656h-40z" />
<glyph unicode="&#xa7;" horiz-adv-x="870" d="M103 155v9h40v-8q1 -82 29 -143.5t72.5 -94.5t92 -48.5t98.5 -15.5q133 0 212.5 64t79.5 204q0 52 -15 95t-38 72.5t-60 54.5t-72.5 40.5t-83.5 31.5q-11 4 -40 13t-45.5 15t-45 17.5t-46 22.5t-41 27t-38 35.5t-28 43.5t-20 54t-6.5 65q0 167 140 232q-140 76 -140 229 q0 70 25.5 123t69 82.5t94 44t107.5 14.5q55 0 106.5 -18.5t96 -55.5t72 -102t29.5 -150v-14h-40v13q-2 76 -25.5 133.5t-61.5 90.5t-82.5 49t-94.5 16q-51 0 -95.5 -12t-81.5 -38t-58 -71t-21 -105q0 -27 5 -51t12.5 -42.5t21.5 -36t26.5 -29.5t32.5 -24t34 -19.5t38 -16.5 t37.5 -13.5t38.5 -12.5t36 -12q63 -21 109.5 -45t92.5 -62t70.5 -94.5t24.5 -128.5q0 -153 -100 -233q100 -86 100 -228q0 -78 -27 -138.5t-74 -96t-105.5 -53.5t-125.5 -18q-54 0 -108.5 18t-105.5 55.5t-84 106.5t-34 159zM189 708q0 -27 5 -51t12.5 -42.5t21.5 -35.5 t26 -29t32 -24.5t34.5 -19.5t38 -16t37.5 -14t38.5 -12.5t35.5 -11.5q109 -37 168 -79q89 68 89 210q0 65 -21 114.5t-62 83t-83.5 54.5t-103.5 42q-2 1 -48.5 16t-72.5 25q-147 -47 -147 -210z" />
<glyph unicode="&#xa8;" horiz-adv-x="446" d="M102 1377v57h55v-57h-55zM290 1377v57h55v-57h-55z" />
<glyph unicode="&#xa9;" horiz-adv-x="1208" d="M61 881q0 147 71 274t196.5 203t275.5 76t275.5 -76t196.5 -203t71 -274t-71 -274t-196.5 -203t-275.5 -76t-275.5 76t-196.5 203t-71 274zM100 881q0 -141 64 -258.5t180.5 -187t259.5 -69.5t260 69.5t181.5 187.5t64.5 258t-64.5 258t-181.5 188t-260 70t-259.5 -70 t-180.5 -187.5t-64 -258.5zM354 856v45q0 99 20 171.5t56 112.5t79 58.5t95 18.5q218 0 256 -258v-4h-40q-19 124 -75 174.5t-141 50.5q-46 0 -82 -15.5t-66.5 -51.5t-47 -105t-16.5 -168v-13q0 -98 16 -166.5t46 -105.5t66 -52.5t84 -15.5q86 0 141.5 50t74.5 173h40v-4 q-38 -256 -256 -256q-52 0 -95 18.5t-79 58.5t-56 112.5t-20 171.5z" />
<glyph unicode="&#xaa;" d="M103 344v338q0 99 25.5 172t69.5 112.5t94.5 57.5t109.5 18q86 0 154 -43t104 -131v156h38v-1024h-38v163q-36 -92 -104 -135.5t-154 -43.5q-59 0 -109.5 18t-94.5 57.5t-69.5 112.5t-25.5 172zM141 360q0 -97 21.5 -166.5t60 -106t82 -52t96.5 -15.5q259 0 259 340v306 q0 340 -259 340q-52 0 -95 -15.5t-82 -51.5t-61 -105.5t-22 -167.5v-306z" />
<glyph unicode="&#xab;" horiz-adv-x="679" d="M102 545v51l238 188v-53l-205 -162l205 -159v-53zM339 545v51l238 188v-53l-205 -162l205 -159v-53z" />
<glyph unicode="&#xac;" horiz-adv-x="1052" d="M102 619v40h848v-296h-40v256h-808z" />
<glyph unicode="&#xad;" horiz-adv-x="712" d="M102 531v40h508v-40h-508z" />
<glyph unicode="&#xae;" horiz-adv-x="1208" d="M61 881q0 147 71 274t196.5 203t275.5 76t275.5 -76t196.5 -203t71 -274t-71 -274t-196.5 -203t-275.5 -76t-275.5 76t-196.5 203t-71 274zM100 881q0 -141 64 -258.5t180.5 -187t259.5 -69.5t260 69.5t181.5 187.5t64.5 258t-64.5 258t-181.5 188t-260 70t-259.5 -70 t-180.5 -187.5t-64 -258.5zM411 506v746h199q94 0 158.5 -54.5t64.5 -144.5v-6q-3 -78 -55.5 -129t-130.5 -62l223 -350h-48l-222 348h-148v-348h-41zM452 895h160q79 0 129 42t50 116t-50 116t-129 42h-160v-316z" />
<glyph unicode="&#xaf;" horiz-adv-x="800" d="M102 1393v41h597v-41h-597z" />
<glyph unicode="&#xb0;" horiz-adv-x="690" d="M102 1208q0 100 71 170.5t171 70.5q101 0 172 -70.5t71 -170.5q0 -101 -71 -172.5t-172 -71.5q-100 0 -171 71.5t-71 172.5zM145 1208q0 -83 58 -142t141 -59q84 0 142.5 58.5t58.5 142.5q0 83 -58 141t-143 58q-83 0 -141 -58t-58 -141z" />
<glyph unicode="&#xb1;" horiz-adv-x="1052" d="M102 0v40h848v-40h-848zM102 715v40h404v304h40v-304h404v-40h-404v-302h-40v302h-404z" />
<glyph unicode="&#xb4;" horiz-adv-x="413" d="M102 1209l123 224h85l-163 -224h-45z" />
<glyph unicode="&#xb6;" horiz-adv-x="1077" d="M92 934v196q0 121 89 212.5t214 91.5h591v-40h-78v-1728h-40v1728h-240v-1728h-40v965h-193q-128 0 -215.5 87t-87.5 216z" />
<glyph unicode="&#xb7;" horiz-adv-x="260" d="M102 608v57h55v-57h-55z" />
<glyph unicode="&#xb8;" horiz-adv-x="436" d="M102 -297h64q70 0 98.5 36t28.5 119v142h41v-142q0 -102 -39 -149t-129 -47h-64v41z" />
<glyph unicode="&#xba;" horiz-adv-x="800" d="M103 344v338q0 99 25 171.5t68.5 112t93.5 58t109 18.5t109.5 -18t94.5 -57.5t69.5 -112.5t25.5 -172v-338q0 -99 -25.5 -172t-69.5 -112.5t-94.5 -57.5t-109.5 -18t-109 18.5t-93.5 58t-68.5 112t-25 171.5zM141 360q0 -340 258 -340q53 0 96.5 15.5t82.5 52t60.5 106 t21.5 166.5v306q0 98 -22 167.5t-61.5 105.5t-82.5 51.5t-95 15.5q-258 0 -258 -340v-306z" />
<glyph unicode="&#xbb;" horiz-adv-x="679" d="M102 357v53l205 160l-205 161v53l238 -188v-51zM339 357v53l205 159l-205 162v53l238 -188v-51z" />
<glyph unicode="&#xbc;" horiz-adv-x="1167" d="M102 1395v39h110v-693h-40v654h-70zM147 0l689 1434h40l-689 -1434h-40zM620 162v38l289 492h45l-286 -492h276v328h42v-328h78v-38h-78v-162h-41v162h-325z" />
<glyph unicode="&#xbd;" horiz-adv-x="1253" d="M102 1395v39h110v-693h-40v654h-70zM147 0l689 1434h40l-689 -1434h-40zM735 0v39q0 59 28 106.5t69.5 76.5t90 59.5t90 57t69.5 67.5t28 92q0 45 -15 78.5t-38.5 50.5t-47 25t-45.5 8h-10q-58 0 -109 -36t-68 -108h-40l2 9q19 83 75.5 125.5t121.5 47.5h28 q69 0 127.5 -51t58.5 -149v-4q0 -49 -20.5 -89.5t-54 -68.5t-73.5 -52.5t-79.5 -48t-73 -49.5t-54 -63.5t-20.5 -82.5h367v-40h-407z" />
<glyph unicode="&#xbe;" horiz-adv-x="1300" d="M82 928v4h40q10 -52 40 -87.5t64 -49t71 -13.5h18q58 0 103 36.5t45 103.5v8q0 75 -46.5 119.5t-111.5 44.5h-69v38h69q32 0 64.5 11.5t59 42t26.5 74.5v8q0 63 -45 95t-95 32h-18q-56 0 -104 -33.5t-64 -103.5h-43v4q19 83 77.5 126.5t121.5 45.5h30q35 0 74.5 -15 t73 -54t33.5 -93v-16q0 -53 -37 -94t-89 -50q63 -22 98.5 -67.5t35.5 -108.5v-19q0 -78 -58 -126t-131 -48h-30q-61 0 -124 48.5t-79 136.5zM301 0l688 1434h41l-689 -1434h-40zM753 162v38l289 492h45l-285 -492h275v328h42v-328h78v-38h-78v-162h-41v162h-325z" />
<glyph unicode="&#xbf;" horiz-adv-x="1019" d="M102 57v4q0 78 23.5 138.5t61.5 98.5t84 69t91.5 60t83.5 62t61.5 84t23.5 117h44q0 -72 -24 -127.5t-62 -90.5t-84 -64.5t-92.5 -59.5t-84.5 -66t-62 -93t-24 -132q0 -78 22 -141t56 -101.5t80 -64.5t90 -36t89 -10h21q45 0 89.5 9.5t91 33.5t84 59t67 91t43.5 125h42 l-2 -12q-19 -87 -62 -154.5t-99.5 -107t-116 -60t-119.5 -22.5h-39q-66 0 -129.5 22t-120.5 66t-92 122.5t-35 180.5zM525 1062v56h54v-56h-54z" />
<glyph unicode="&#xc0;" horiz-adv-x="1132" d="M123 0l423 1434h41l423 -1434h-40l-152 515h-503l-152 -515h-40zM327 557h479l-240 812zM463 1843h86l123 -225h-45z" />
<glyph unicode="&#xc1;" horiz-adv-x="1132" d="M123 0l423 1434h41l423 -1434h-40l-152 515h-503l-152 -515h-40zM327 557h479l-240 812zM463 1618l123 225h85l-163 -225h-45z" />
<glyph unicode="&#xc2;" horiz-adv-x="1132" d="M123 0l423 1434h41l423 -1434h-40l-152 515h-503l-152 -515h-40zM305 1587l234 256h57l234 -256h-57l-205 224l-206 -224h-57zM327 557h479l-240 812z" />
<glyph unicode="&#xc3;" horiz-adv-x="1132" d="M123 0l423 1434h41l423 -1434h-40l-152 515h-503l-152 -515h-40zM312 1622v39t2 40t6 43.5t12 36.5t19.5 33t30 20t42.5 9q30 0 60 -16t49.5 -34.5t58.5 -58.5q30 -34 55 -51t35.5 -18.5t30.5 -1.5q44 0 58 41t14 139h40v-39t-2 -40t-6 -43.5t-12 -36.5t-19.5 -33 t-30 -20t-42.5 -9q-36 0 -72 22.5t-96 86.5q-44 47 -67.5 59.5t-53.5 12.5q-44 0 -58 -41.5t-14 -139.5h-40zM327 557h479l-240 812z" />
<glyph unicode="&#xc4;" horiz-adv-x="1132" d="M123 0l423 1434h41l423 -1434h-40l-152 515h-503l-152 -515h-40zM327 557h479l-240 812zM447 1787v56h55v-56h-55zM635 1787v56h55v-56h-55z" />
<glyph unicode="&#xc5;" horiz-adv-x="1132" d="M123 0l423 1434h41l423 -1434h-40l-152 515h-503l-152 -515h-40zM327 557h479l-240 812zM387 1663q0 73 52.5 126.5t128.5 53.5q74 0 128 -53.5t54 -126.5q0 -76 -53.5 -130t-128.5 -54q-76 0 -128.5 53.5t-52.5 130.5zM428 1663q0 -60 40 -102t100 -42q59 0 100 42 t41 102q0 56 -41.5 97.5t-99.5 41.5q-59 0 -99.5 -41.5t-40.5 -97.5z" />
<glyph unicode="&#xc6;" horiz-adv-x="1245" d="M123 0l420 1434h620v-38h-580v-635h560v-37h-560v-686h580v-38h-620v515h-228l-152 -515h-40zM327 557h216v731z" />
<glyph unicode="&#xc7;" horiz-adv-x="1064" d="M164 479v477q0 110 23.5 197t63 142t93.5 91t111.5 51t122.5 15q77 0 143 -22.5t124 -72t95 -140t43 -214.5v-26h-40l-2 26q-8 116 -40.5 199t-84.5 128t-110 64.5t-128 19.5q-76 0 -139 -22t-118 -73.5t-86 -148.5t-31 -234v-436q0 -110 21 -195t56 -138t84.5 -86.5 t101 -46.5t111.5 -13q54 0 101.5 11.5t93 40t79.5 73t58 115.5t31 163l2 34h40v-22q-5 -110 -34 -193.5t-76 -135t-102.5 -80.5t-121.5 -38v-131q0 -102 -38.5 -149t-128.5 -47h-64v40h64q69 0 98 36.5t29 119.5v125h-31q-65 0 -122.5 15t-111.5 51t-93.5 91t-63 142 t-23.5 197z" />
<glyph unicode="&#xc8;" horiz-adv-x="866" d="M164 0v1434h621v-38h-581v-635h560v-37h-560v-686h581v-38h-621zM330 1843h86l123 -225h-45z" />
<glyph unicode="&#xc9;" horiz-adv-x="866" d="M164 0v1434h621v-38h-581v-635h560v-37h-560v-686h581v-38h-621zM330 1618l123 225h86l-164 -225h-45z" />
<glyph unicode="&#xca;" horiz-adv-x="866" d="M164 0v1434h621v-38h-581v-635h560v-37h-560v-686h581v-38h-621zM172 1587l234 256h57l234 -256h-57l-206 224l-205 -224h-57z" />
<glyph unicode="&#xcb;" horiz-adv-x="866" d="M164 0v1434h621v-38h-581v-635h560v-37h-560v-686h581v-38h-621zM314 1787v56h55v-56h-55zM502 1787v56h55v-56h-55z" />
<glyph unicode="&#xcc;" horiz-adv-x="368" d="M80 1843h85l123 -225h-44zM164 0v1434h40v-1434h-40z" />
<glyph unicode="&#xcd;" horiz-adv-x="368" d="M80 1618l123 225h85l-163 -225h-45zM164 0v1434h40v-1434h-40z" />
<glyph unicode="&#xce;" horiz-adv-x="368" d="M-78 1587l234 256h56l234 -256h-57l-205 224l-205 -224h-57zM164 0v1434h40v-1434h-40z" />
<glyph unicode="&#xcf;" horiz-adv-x="368" d="M64 1787v56h55v-56h-55zM164 0v1434h40v-1434h-40zM252 1787v56h54v-56h-54z" />
<glyph unicode="&#xd0;" horiz-adv-x="1083" d="M66 670v40h98v724h350q64 0 121 -14.5t112 -50.5t94.5 -91t64 -142.5t24.5 -197.5v-442q0 -110 -24.5 -197.5t-64 -142.5t-94.5 -91t-112 -50.5t-121 -14.5h-350v670h-98zM204 38h310q59 0 110.5 13t101.5 46.5t85.5 86t57 137.5t21.5 195v401q0 110 -21.5 195.5t-57 138 t-85.5 86t-101.5 46.5t-110.5 13h-310v-686h370v-40h-370v-632z" />
<glyph unicode="&#xd1;" horiz-adv-x="1054" d="M158 0v1434h40l659 -1352v1352h40v-1434h-40l-659 1352v-1352h-40zM275 1622v39t2 40t6 43.5t12 36.5t19.5 33t30 20t42.5 9q30 0 60 -16t49.5 -34.5t58.5 -58.5q30 -34 55 -51t35.5 -18.5t30.5 -1.5q44 0 58 41t14 139h40v-39t-2 -40t-6 -43.5t-12 -36.5t-19.5 -33 t-30 -20t-42.5 -9q-36 0 -72 22.5t-96 86.5q-44 47 -67.5 59.5t-53.5 12.5q-44 0 -58 -41.5t-14 -139.5h-40z" />
<glyph unicode="&#xd2;" horiz-adv-x="1116" d="M144 479v477q0 110 23.5 196.5t62.5 142t93.5 91.5t111.5 51t122 15q64 0 121 -14.5t112 -50.5t94.5 -91t64 -142.5t24.5 -197.5v-477q0 -110 -24.5 -197t-64 -142t-94.5 -91t-112 -50.5t-121 -14.5q-82 0 -152 25t-130.5 79.5t-95.5 154.5t-35 236zM184 500 q0 -110 21 -195t55.5 -137.5t84 -86t101 -46.5t111.5 -13q59 0 110.5 13t101.5 46.5t85.5 86t57 137.5t21.5 195v436q0 110 -21.5 195t-57 137.5t-85.5 86t-101.5 46.5t-110.5 13q-60 0 -111.5 -13t-101 -46.5t-84 -86t-55.5 -137.5t-21 -195v-436zM455 1843h86l122 -225 h-44z" />
<glyph unicode="&#xd3;" horiz-adv-x="1116" d="M144 479v477q0 110 23.5 196.5t62.5 142t93.5 91.5t111.5 51t122 15q64 0 121 -14.5t112 -50.5t94.5 -91t64 -142.5t24.5 -197.5v-477q0 -110 -24.5 -197t-64 -142t-94.5 -91t-112 -50.5t-121 -14.5q-82 0 -152 25t-130.5 79.5t-95.5 154.5t-35 236zM184 500 q0 -110 21 -195t55.5 -137.5t84 -86t101 -46.5t111.5 -13q59 0 110.5 13t101.5 46.5t85.5 86t57 137.5t21.5 195v436q0 110 -21.5 195t-57 137.5t-85.5 86t-101.5 46.5t-110.5 13q-60 0 -111.5 -13t-101 -46.5t-84 -86t-55.5 -137.5t-21 -195v-436zM455 1618l123 225h85 l-163 -225h-45z" />
<glyph unicode="&#xd4;" horiz-adv-x="1116" d="M144 479v477q0 110 23.5 196.5t62.5 142t93.5 91.5t111.5 51t122 15q64 0 121 -14.5t112 -50.5t94.5 -91t64 -142.5t24.5 -197.5v-477q0 -110 -24.5 -197t-64 -142t-94.5 -91t-112 -50.5t-121 -14.5q-82 0 -152 25t-130.5 79.5t-95.5 154.5t-35 236zM184 500 q0 -110 21 -195t55.5 -137.5t84 -86t101 -46.5t111.5 -13q59 0 110.5 13t101.5 46.5t85.5 86t57 137.5t21.5 195v436q0 110 -21.5 195t-57 137.5t-85.5 86t-101.5 46.5t-110.5 13q-60 0 -111.5 -13t-101 -46.5t-84 -86t-55.5 -137.5t-21 -195v-436zM297 1587l234 256h57 l233 -256h-56l-206 224l-205 -224h-57z" />
<glyph unicode="&#xd5;" horiz-adv-x="1116" d="M144 479v477q0 110 23.5 196.5t62.5 142t93.5 91.5t111.5 51t122 15q64 0 121 -14.5t112 -50.5t94.5 -91t64 -142.5t24.5 -197.5v-477q0 -110 -24.5 -197t-64 -142t-94.5 -91t-112 -50.5t-121 -14.5q-82 0 -152 25t-130.5 79.5t-95.5 154.5t-35 236zM184 500 q0 -110 21 -195t55.5 -137.5t84 -86t101 -46.5t111.5 -13q59 0 110.5 13t101.5 46.5t85.5 86t57 137.5t21.5 195v436q0 110 -21.5 195t-57 137.5t-85.5 86t-101.5 46.5t-110.5 13q-60 0 -111.5 -13t-101 -46.5t-84 -86t-55.5 -137.5t-21 -195v-436zM306 1622v39t2 40t6 43.5 t12 36.5t19.5 33t30 20t42.5 9q30 0 60 -16t49.5 -34.5t58.5 -58.5q30 -34 55 -51t35.5 -18.5t30.5 -1.5q44 0 58 41t14 139h40v-39t-2 -40t-6 -43.5t-12 -36.5t-19.5 -33t-30 -20t-42.5 -9q-36 0 -72 22.5t-96 86.5q-44 47 -67.5 59.5t-53.5 12.5q-44 0 -58 -41.5 t-14 -139.5h-40z" />
<glyph unicode="&#xd6;" horiz-adv-x="1116" d="M144 479v477q0 110 23.5 196.5t62.5 142t93.5 91.5t111.5 51t122 15q64 0 121 -14.5t112 -50.5t94.5 -91t64 -142.5t24.5 -197.5v-477q0 -110 -24.5 -197t-64 -142t-94.5 -91t-112 -50.5t-121 -14.5q-82 0 -152 25t-130.5 79.5t-95.5 154.5t-35 236zM184 500 q0 -110 21 -195t55.5 -137.5t84 -86t101 -46.5t111.5 -13q59 0 110.5 13t101.5 46.5t85.5 86t57 137.5t21.5 195v436q0 110 -21.5 195t-57 137.5t-85.5 86t-101.5 46.5t-110.5 13q-60 0 -111.5 -13t-101 -46.5t-84 -86t-55.5 -137.5t-21 -195v-436zM439 1787v56h55v-56h-55z M627 1787v56h55v-56h-55z" />
<glyph unicode="&#xd7;" horiz-adv-x="829" d="M102 354l285 285l-285 285l28 28l285 -285l285 285l28 -28l-285 -285l285 -285l-28 -27l-285 284l-285 -284z" />
<glyph unicode="&#xd8;" horiz-adv-x="1116" d="M144 479v477q0 110 23.5 196.5t62.5 142t93.5 91.5t111.5 51t122 15q166 0 272 -94l81 178h41l-94 -206q116 -128 116 -374v-477q0 -110 -24.5 -197t-64 -142t-94.5 -91t-112 -50.5t-121 -14.5q-165 0 -269 92l-82 -178h-40l94 206q-116 128 -116 375zM184 500 q0 -235 94 -357l534 1177q-95 94 -255 94q-60 0 -111.5 -13t-101 -46.5t-84 -86t-55.5 -137.5t-21 -195v-436zM305 113q92 -91 252 -91q59 0 110.5 13t101.5 46.5t85.5 86t57 137.5t21.5 195v436q0 232 -94 354z" />
<glyph unicode="&#xd9;" horiz-adv-x="1138" d="M164 479q0 -108 23 -194t61.5 -141.5t91.5 -92t110.5 -52t121.5 -15.5q80 0 149.5 25.5t129.5 80.5t95 154.5t35 234.5v955h-40v-934q0 -132 -31 -228.5t-85 -149t-116.5 -76.5t-136.5 -24q-59 0 -111 14t-100 49t-82 88t-54.5 136.5t-20.5 190.5v934h-40v-955zM466 1843 h85l123 -225h-45z" />
<glyph unicode="&#xda;" horiz-adv-x="1138" d="M164 479q0 -108 23 -194t61.5 -141.5t91.5 -92t110.5 -52t121.5 -15.5q80 0 149.5 25.5t129.5 80.5t95 154.5t35 234.5v955h-40v-934q0 -132 -31 -228.5t-85 -149t-116.5 -76.5t-136.5 -24q-59 0 -111 14t-100 49t-82 88t-54.5 136.5t-20.5 190.5v934h-40v-955zM466 1618 l123 225h85l-164 -225h-44z" />
<glyph unicode="&#xdb;" horiz-adv-x="1138" d="M164 479q0 -108 23 -194t61.5 -141.5t91.5 -92t110.5 -52t121.5 -15.5q80 0 149.5 25.5t129.5 80.5t95 154.5t35 234.5v955h-40v-934q0 -132 -31 -228.5t-85 -149t-116.5 -76.5t-136.5 -24q-59 0 -111 14t-100 49t-82 88t-54.5 136.5t-20.5 190.5v934h-40v-955zM308 1587 l233 256h57l234 -256h-57l-205 224l-205 -224h-57z" />
<glyph unicode="&#xdc;" horiz-adv-x="1138" d="M164 479q0 -108 23 -194t61.5 -141.5t91.5 -92t110.5 -52t121.5 -15.5q80 0 149.5 25.5t129.5 80.5t95 154.5t35 234.5v955h-40v-934q0 -132 -31 -228.5t-85 -149t-116.5 -76.5t-136.5 -24q-59 0 -111 14t-100 49t-82 88t-54.5 136.5t-20.5 190.5v934h-40v-955zM450 1787 v56h54v-56h-54zM637 1787v56h55v-56h-55z" />
<glyph unicode="&#xdd;" horiz-adv-x="1038" d="M123 1434h44l347 -777l355 777h46l-381 -821v-613h-40v613zM416 1618l123 225h85l-164 -225h-44z" />
<glyph unicode="&#xde;" horiz-adv-x="974" d="M164 0v1452h40v-262h208q61 0 117.5 -11t110.5 -37t93.5 -65.5t63.5 -101t24 -137.5v-43q0 -75 -24 -135.5t-64 -100t-93.5 -66.5t-110.5 -38.5t-117 -11.5h-208v-443h-40zM204 481h208q57 0 107.5 8.5t99.5 31.5t84 58.5t56.5 93.5t21.5 132v22q0 76 -21.5 134.5 t-56.5 94t-84.5 57.5t-99 30.5t-107.5 8.5h-208v-671z" />
<glyph unicode="&#xdf;" horiz-adv-x="1036" d="M113 0v1096q0 87 35 155t91 106.5t118 57.5t124 19h66q63 0 124.5 -19t117.5 -57t91 -106t35 -156v-35q0 -123 -66 -202t-178 -113q135 -31 209 -120t74 -227v-37q0 -174 -115 -268t-315 -94h-207v38h207q186 0 288 83t102 241v37q0 157 -102.5 240.5t-287.5 83.5h-82v38 h63q104 0 185 30t133 99.5t52 170.5v35q0 78 -30.5 138t-80 94t-104.5 51t-113 17h-66q-58 0 -113 -17t-104.5 -51t-80 -94t-30.5 -138v-1096h-40z" />
<glyph unicode="&#xe0;" d="M103 344v338q0 99 25.5 172t69.5 112.5t94.5 57.5t109.5 18q86 0 154 -43t104 -131v156h38v-1024h-38v163q-36 -92 -104 -135.5t-154 -43.5q-59 0 -109.5 18t-94.5 57.5t-69.5 112.5t-25.5 172zM141 360q0 -97 21.5 -166.5t60 -106t82 -52t96.5 -15.5q259 0 259 340v306 q0 340 -259 340q-52 0 -95 -15.5t-82 -51.5t-61 -105.5t-22 -167.5v-306zM306 1433h85l123 -224h-45z" />
<glyph unicode="&#xe1;" d="M103 344v338q0 99 25.5 172t69.5 112.5t94.5 57.5t109.5 18q86 0 154 -43t104 -131v156h38v-1024h-38v163q-36 -92 -104 -135.5t-154 -43.5q-59 0 -109.5 18t-94.5 57.5t-69.5 112.5t-25.5 172zM141 360q0 -97 21.5 -166.5t60 -106t82 -52t96.5 -15.5q259 0 259 340v306 q0 340 -259 340q-52 0 -95 -15.5t-82 -51.5t-61 -105.5t-22 -167.5v-306zM306 1209l122 224h86l-164 -224h-44z" />
<glyph unicode="&#xe2;" d="M103 344v338q0 99 25.5 172t69.5 112.5t94.5 57.5t109.5 18q86 0 154 -43t104 -131v156h38v-1024h-38v163q-36 -92 -104 -135.5t-154 -43.5q-59 0 -109.5 18t-94.5 57.5t-69.5 112.5t-25.5 172zM141 360q0 -97 21.5 -166.5t60 -106t82 -52t96.5 -15.5q259 0 259 340v306 q0 340 -259 340q-52 0 -95 -15.5t-82 -51.5t-61 -105.5t-22 -167.5v-306zM148 1178l233 256h57l234 -256h-57l-205 223l-206 -223h-56z" />
<glyph unicode="&#xe3;" d="M103 344v338q0 99 25.5 172t69.5 112.5t94.5 57.5t109.5 18q86 0 154 -43t104 -131v156h38v-1024h-38v163q-36 -92 -104 -135.5t-154 -43.5q-59 0 -109.5 18t-94.5 57.5t-69.5 112.5t-25.5 172zM141 360q0 -97 21.5 -166.5t60 -106t82 -52t96.5 -15.5q259 0 259 340v306 q0 340 -259 340q-52 0 -95 -15.5t-82 -51.5t-61 -105.5t-22 -167.5v-306zM154 1213v39t2 40t6 43.5t12 36.5t19.5 33t30 20t42.5 9q30 0 60 -16t49.5 -34.5t58.5 -58.5q30 -34 55 -51t36 -19t30 -2q44 0 58 41.5t14 139.5h40v-39t-2 -40t-6 -43.5t-12 -36.5t-19.5 -33 t-30 -20t-42.5 -9q-36 0 -72 22t-96 86q-44 47 -67.5 59.5t-53.5 12.5q-44 0 -58 -41t-14 -139h-40z" />
<glyph unicode="&#xe4;" d="M103 344v338q0 99 25.5 172t69.5 112.5t94.5 57.5t109.5 18q86 0 154 -43t104 -131v156h38v-1024h-38v163q-36 -92 -104 -135.5t-154 -43.5q-59 0 -109.5 18t-94.5 57.5t-69.5 112.5t-25.5 172zM141 360q0 -97 21.5 -166.5t60 -106t82 -52t96.5 -15.5q259 0 259 340v306 q0 340 -259 340q-52 0 -95 -15.5t-82 -51.5t-61 -105.5t-22 -167.5v-306zM290 1377v57h54v-57h-54zM477 1377v57h55v-57h-55z" />
<glyph unicode="&#xe5;" d="M103 344v338q0 99 25.5 172t69.5 112.5t94.5 57.5t109.5 18q86 0 154 -43t104 -131v156h38v-1024h-38v163q-36 -92 -104 -135.5t-154 -43.5q-59 0 -109.5 18t-94.5 57.5t-69.5 112.5t-25.5 172zM141 360q0 -97 21.5 -166.5t60 -106t82 -52t96.5 -15.5q259 0 259 340v306 q0 340 -259 340q-52 0 -95 -15.5t-82 -51.5t-61 -105.5t-22 -167.5v-306zM230 1253q0 73 52.5 126.5t127.5 53.5q74 0 128 -53.5t54 -126.5q0 -76 -53.5 -130t-128.5 -54q-76 0 -128 53.5t-52 130.5zM270 1253q0 -60 40 -102t100 -42q59 0 100 42t41 102q0 56 -41.5 98 t-99.5 42q-59 0 -99.5 -41.5t-40.5 -98.5z" />
<glyph unicode="&#xe6;" horiz-adv-x="1355" d="M103 344v338q0 99 25.5 172t69.5 112.5t94.5 57.5t109.5 18q86 0 154 -43t104 -131v156h38v-139q38 82 106.5 119.5t152.5 37.5q58 0 108 -18t94 -57.5t69.5 -112.5t25.5 -172v-201h-556v-121q0 -340 259 -340q50 0 91.5 14.5t79.5 47.5t61 95.5t27 150.5h38 q-2 -95 -28 -164.5t-69.5 -107t-93 -55t-106.5 -17.5q-84 0 -152.5 37.5t-106.5 119.5v-141h-38v163q-36 -92 -104 -135.5t-154 -43.5q-59 0 -109.5 18t-94.5 57.5t-69.5 112.5t-25.5 172zM141 360q0 -97 21.5 -166.5t60 -106t82 -52t96.5 -15.5q259 0 259 340v306 q0 340 -259 340q-52 0 -95 -15.5t-82 -51.5t-61 -105.5t-22 -167.5v-306zM698 518h518v148q0 98 -22 167.5t-61 105.5t-82 51.5t-94 15.5q-259 0 -259 -340v-148z" />
<glyph unicode="&#xe7;" horiz-adv-x="796" d="M103 344v338q0 99 25 171.5t68.5 112t93.5 58t109 18.5q57 0 106 -16.5t92.5 -53t70 -103.5t30.5 -158v-29h-38q-2 93 -25 159t-61.5 100.5t-81 49.5t-93.5 15q-258 0 -258 -340v-306q0 -340 258 -340q52 0 95 15.5t81 50t60.5 100.5t24.5 158h38v-23q-8 -251 -182 -317 v-146q0 -102 -38.5 -149t-128.5 -47h-64v40h64q69 0 98 36.5t29 119.5v134q-38 -9 -76 -9q-59 0 -109.5 18.5t-94 58.5t-68.5 112.5t-25 171.5z" />
<glyph unicode="&#xe8;" horiz-adv-x="794" d="M103 344v338q0 99 25 171.5t68.5 112t93.5 58t109 18.5q58 0 108 -18t94 -57.5t69.5 -112.5t25.5 -172v-201h-555v-121q0 -340 258 -340q50 0 91.5 14.5t79.5 47.5t61 95.5t27 150.5h38q-2 -95 -28 -164.5t-69.5 -107t-93 -55t-106.5 -17.5q-59 0 -109 18.5t-93.5 58 t-68.5 112t-25 171.5zM141 518h517v148q0 98 -22 167.5t-61 105.5t-82 51.5t-94 15.5q-258 0 -258 -340v-148zM293 1433h86l122 -224h-44z" />
<glyph unicode="&#xe9;" horiz-adv-x="794" d="M103 344v338q0 99 25 171.5t68.5 112t93.5 58t109 18.5q58 0 108 -18t94 -57.5t69.5 -112.5t25.5 -172v-201h-555v-121q0 -340 258 -340q50 0 91.5 14.5t79.5 47.5t61 95.5t27 150.5h38q-2 -95 -28 -164.5t-69.5 -107t-93 -55t-106.5 -17.5q-59 0 -109 18.5t-93.5 58 t-68.5 112t-25 171.5zM141 518h517v148q0 98 -22 167.5t-61 105.5t-82 51.5t-94 15.5q-258 0 -258 -340v-148zM293 1209l123 224h85l-163 -224h-45z" />
<glyph unicode="&#xea;" horiz-adv-x="794" d="M103 344v338q0 99 25 171.5t68.5 112t93.5 58t109 18.5q58 0 108 -18t94 -57.5t69.5 -112.5t25.5 -172v-201h-555v-121q0 -340 258 -340q50 0 91.5 14.5t79.5 47.5t61 95.5t27 150.5h38q-2 -95 -28 -164.5t-69.5 -107t-93 -55t-106.5 -17.5q-59 0 -109 18.5t-93.5 58 t-68.5 112t-25 171.5zM135 1178l234 256h57l233 -256h-56l-206 223l-205 -223h-57zM141 518h517v148q0 98 -22 167.5t-61 105.5t-82 51.5t-94 15.5q-258 0 -258 -340v-148z" />
<glyph unicode="&#xeb;" horiz-adv-x="794" d="M103 344v338q0 99 25 171.5t68.5 112t93.5 58t109 18.5q58 0 108 -18t94 -57.5t69.5 -112.5t25.5 -172v-201h-555v-121q0 -340 258 -340q50 0 91.5 14.5t79.5 47.5t61 95.5t27 150.5h38q-2 -95 -28 -164.5t-69.5 -107t-93 -55t-106.5 -17.5q-59 0 -109 18.5t-93.5 58 t-68.5 112t-25 171.5zM141 518h517v148q0 98 -22 167.5t-61 105.5t-82 51.5t-94 15.5q-258 0 -258 -340v-148zM277 1377v57h55v-57h-55zM465 1377v57h55v-57h-55z" />
<glyph unicode="&#xec;" horiz-adv-x="448" d="M121 1433h85l123 -224h-44zM205 0v1024h38v-1024h-38z" />
<glyph unicode="&#xed;" horiz-adv-x="448" d="M121 1209l123 224h85l-163 -224h-45zM205 0v1024h38v-1024h-38z" />
<glyph unicode="&#xee;" horiz-adv-x="448" d="M-37 1178l234 256h56l234 -256h-57l-205 223l-205 -223h-57zM205 0v1024h38v-1024h-38z" />
<glyph unicode="&#xef;" horiz-adv-x="448" d="M104 1377v57h55v-57h-55zM205 0v1024h38v-1024h-38zM292 1377v57h55v-57h-55z" />
<glyph unicode="&#xf0;" horiz-adv-x="929" d="M103 344v338q0 99 25.5 172t69 112.5t94 57.5t109.5 18q82 0 151 -44t108 -128v205q0 341 -259 341q-182 0 -238 -172h-42l6 16q34 100 108.5 146t165.5 46q155 0 234 -113l158 95l18 -33l-157 -93q43 -82 44 -206v-758q-6 -185 -89.5 -272.5t-207.5 -87.5 q-59 0 -109.5 18t-94 57.5t-69 112.5t-25.5 172zM141 360q0 -97 21.5 -166.5t60 -106t82 -52t96.5 -15.5q259 0 259 340v306q0 91 -21.5 159t-59 106t-82 56.5t-96.5 18.5t-95 -15.5t-82 -51.5t-61 -105.5t-22 -167.5v-306z" />
<glyph unicode="&#xf1;" horiz-adv-x="831" d="M123 0v1024h38v-162q34 91 103 135.5t156 44.5q59 0 109.5 -18t94.5 -57.5t69.5 -112.5t25.5 -172v-682h-38v666q0 98 -22 167.5t-61.5 105.5t-82.5 51.5t-95 15.5q-259 0 -259 -340v-666h-38zM160 1213v39t2 40t6 43.5t12 36.5t19.5 33t30 20t42.5 9q30 0 60 -16 t49.5 -34.5t58.5 -58.5q30 -34 55 -51t36 -19t30 -2q44 0 58 41.5t14 139.5h41v-39t-2 -40t-6 -43t-12.5 -37t-20 -33.5t-30 -20t-42.5 -8.5q-36 0 -72 22t-96 86q-44 47 -67.5 59.5t-53.5 12.5q-44 0 -58 -41t-14 -139h-40z" />
<glyph unicode="&#xf2;" horiz-adv-x="800" d="M103 344v338q0 99 25 171.5t68.5 112t93.5 58t109 18.5t109.5 -18t94.5 -57.5t69.5 -112.5t25.5 -172v-338q0 -99 -25.5 -172t-69.5 -112.5t-94.5 -57.5t-109.5 -18t-109 18.5t-93.5 58t-68.5 112t-25 171.5zM141 360q0 -340 258 -340q53 0 96.5 15.5t82.5 52t60.5 106 t21.5 166.5v306q0 98 -22 167.5t-61.5 105.5t-82.5 51.5t-95 15.5q-258 0 -258 -340v-306zM297 1433h86l123 -224h-45z" />
<glyph unicode="&#xf3;" horiz-adv-x="800" d="M103 344v338q0 99 25 171.5t68.5 112t93.5 58t109 18.5t109.5 -18t94.5 -57.5t69.5 -112.5t25.5 -172v-338q0 -99 -25.5 -172t-69.5 -112.5t-94.5 -57.5t-109.5 -18t-109 18.5t-93.5 58t-68.5 112t-25 171.5zM141 360q0 -340 258 -340q53 0 96.5 15.5t82.5 52t60.5 106 t21.5 166.5v306q0 98 -22 167.5t-61.5 105.5t-82.5 51.5t-95 15.5q-258 0 -258 -340v-306zM297 1209l123 224h86l-164 -224h-45z" />
<glyph unicode="&#xf4;" horiz-adv-x="800" d="M103 344v338q0 99 25 171.5t68.5 112t93.5 58t109 18.5t109.5 -18t94.5 -57.5t69.5 -112.5t25.5 -172v-338q0 -99 -25.5 -172t-69.5 -112.5t-94.5 -57.5t-109.5 -18t-109 18.5t-93.5 58t-68.5 112t-25 171.5zM139 1178l234 256h57l233 -256h-56l-206 223l-205 -223h-57z M141 360q0 -340 258 -340q53 0 96.5 15.5t82.5 52t60.5 106t21.5 166.5v306q0 98 -22 167.5t-61.5 105.5t-82.5 51.5t-95 15.5q-258 0 -258 -340v-306z" />
<glyph unicode="&#xf5;" horiz-adv-x="800" d="M103 344v338q0 99 25 171.5t68.5 112t93.5 58t109 18.5t109.5 -18t94.5 -57.5t69.5 -112.5t25.5 -172v-338q0 -99 -25.5 -172t-69.5 -112.5t-94.5 -57.5t-109.5 -18t-109 18.5t-93.5 58t-68.5 112t-25 171.5zM141 360q0 -340 258 -340q53 0 96.5 15.5t82.5 52t60.5 106 t21.5 166.5v306q0 98 -22 167.5t-61.5 105.5t-82.5 51.5t-95 15.5q-258 0 -258 -340v-306zM146 1213v39t2 40t6 43.5t12 36.5t19.5 33t30 20t42.5 9q30 0 60 -16t49.5 -34.5t58.5 -58.5q30 -34 55 -51t36 -19t30 -2q44 0 58 41.5t14 139.5h40v-39t-2 -40t-6 -43.5t-12 -36.5 t-19.5 -33t-30 -20t-42.5 -9q-36 0 -72 22t-96 86q-44 47 -67.5 59.5t-53.5 12.5q-44 0 -58 -41t-14 -139h-40z" />
<glyph unicode="&#xf6;" horiz-adv-x="800" d="M103 344v338q0 99 25 171.5t68.5 112t93.5 58t109 18.5t109.5 -18t94.5 -57.5t69.5 -112.5t25.5 -172v-338q0 -99 -25.5 -172t-69.5 -112.5t-94.5 -57.5t-109.5 -18t-109 18.5t-93.5 58t-68.5 112t-25 171.5zM141 360q0 -340 258 -340q53 0 96.5 15.5t82.5 52t60.5 106 t21.5 166.5v306q0 98 -22 167.5t-61.5 105.5t-82.5 51.5t-95 15.5q-258 0 -258 -340v-306zM281 1377v57h55v-57h-55zM469 1377v57h55v-57h-55z" />
<glyph unicode="&#xf7;" horiz-adv-x="1052" d="M102 506v40h848v-40h-848zM502 150v56h54v-56h-54zM502 840v56h54v-56h-54z" />
<glyph unicode="&#xf8;" horiz-adv-x="800" d="M102 344v338q0 99 25 171.5t69 112t94 58t109 18.5q120 0 195 -67l68 151h41l-81 -180q76 -93 76 -264v-338q0 -99 -25.5 -172t-69.5 -112.5t-94.5 -57.5t-109.5 -18q-111 0 -184 59l-65 -145h-41l78 172q-85 93 -85 274zM140 360q0 -169 63 -253l374 831q-65 68 -178 68 q-259 0 -259 -340v-306zM230 77q61 -57 169 -57q53 0 96.5 15.5t82.5 52t60.5 106t21.5 166.5v306q0 155 -57 240z" />
<glyph unicode="&#xf9;" horiz-adv-x="821" d="M113 342v682h38v-666q0 -98 22 -167.5t61.5 -105.5t82.5 -51.5t95 -15.5q258 0 258 340v666h39v-1024h-39v162q-34 -91 -102.5 -135.5t-155.5 -44.5q-59 0 -109.5 18t-94.5 57.5t-69.5 112.5t-25.5 172zM308 1433h85l123 -224h-45z" />
<glyph unicode="&#xfa;" horiz-adv-x="821" d="M113 342v682h38v-666q0 -98 22 -167.5t61.5 -105.5t82.5 -51.5t95 -15.5q258 0 258 340v666h39v-1024h-39v162q-34 -91 -102.5 -135.5t-155.5 -44.5q-59 0 -109.5 18t-94.5 57.5t-69.5 112.5t-25.5 172zM308 1209l123 224h85l-164 -224h-44z" />
<glyph unicode="&#xfb;" horiz-adv-x="821" d="M113 342v682h38v-666q0 -98 22 -167.5t61.5 -105.5t82.5 -51.5t95 -15.5q258 0 258 340v666h39v-1024h-39v162q-34 -91 -102.5 -135.5t-155.5 -44.5q-59 0 -109.5 18t-94.5 57.5t-69.5 112.5t-25.5 172zM150 1178l233 256h57l234 -256h-57l-205 223l-205 -223h-57z" />
<glyph unicode="&#xfc;" horiz-adv-x="821" d="M113 342v682h38v-666q0 -98 22 -167.5t61.5 -105.5t82.5 -51.5t95 -15.5q258 0 258 340v666h39v-1024h-39v162q-34 -91 -102.5 -135.5t-155.5 -44.5q-59 0 -109.5 18t-94.5 57.5t-69.5 112.5t-25.5 172zM292 1377v57h54v-57h-54zM479 1377v57h55v-57h-55z" />
<glyph unicode="&#xfd;" horiz-adv-x="780" d="M92 360v664h38v-648q0 -98 22 -167.5t61.5 -105.5t82.5 -51.5t95 -15.5q259 0 259 340v648h38v-1051q-5 -89 -31.5 -154.5t-69.5 -101.5t-91.5 -52.5t-104.5 -16.5q-61 0 -113.5 18t-98 65.5t-66.5 120.5h42q56 -168 236 -168q259 0 259 341v155q-35 -91 -103 -135.5 t-155 -44.5q-59 0 -110 18t-95 57.5t-69.5 112.5t-25.5 172zM287 1209l123 224h85l-163 -224h-45z" />
<glyph unicode="&#xfe;" d="M119 -334v1768h38v-573q36 92 104 135.5t154 43.5q59 0 110 -18t95 -57.5t69.5 -112.5t25.5 -172v-338q0 -99 -25.5 -172t-69.5 -112.5t-95 -57.5t-110 -18q-86 0 -154 42.5t-104 131.5v-490h-38zM157 358q0 -340 259 -340q52 0 95 15.5t82.5 51.5t61.5 105.5t22 167.5 v306q0 97 -21.5 166.5t-60.5 106t-82.5 52t-96.5 15.5q-259 0 -259 -340v-306z" />
<glyph unicode="&#xff;" horiz-adv-x="780" d="M92 360v664h38v-648q0 -98 22 -167.5t61.5 -105.5t82.5 -51.5t95 -15.5q259 0 259 340v648h38v-1051q-5 -89 -31.5 -154.5t-69.5 -101.5t-91.5 -52.5t-104.5 -16.5q-61 0 -113.5 18t-98 65.5t-66.5 120.5h42q56 -168 236 -168q259 0 259 341v155q-35 -91 -103 -135.5 t-155 -44.5q-59 0 -110 18t-95 57.5t-69.5 112.5t-25.5 172zM271 1377v57h55v-57h-55zM459 1377v57h54v-57h-54z" />
<glyph unicode="&#x152;" horiz-adv-x="1718" d="M102 479v477q0 110 23.5 197t63 142t93.5 91t111.5 51t122.5 15q79 0 147.5 -22t131 -79.5t96.5 -145.5v229h621v-38h-581v-635h561v-37h-561v-686h581v-38h-621v231q-34 -88 -96.5 -145.5t-131 -79.5t-147.5 -22q-65 0 -122.5 14.5t-111.5 51t-93.5 91.5t-63 141.5 t-23.5 196.5zM142 500q0 -110 21 -195t56 -138t84.5 -86.5t101 -46.5t111.5 -13q59 0 110.5 13t101.5 46.5t85.5 86t57 138t21.5 195.5v436q0 110 -21.5 195t-57 137.5t-85.5 86t-101.5 46.5t-110.5 13q-76 0 -139 -22t-118 -73.5t-86 -148.5t-31 -234v-436z" />
<glyph unicode="&#x153;" horiz-adv-x="1562" d="M205 344v338q0 99 25 171.5t68.5 112t94 58t109.5 18.5q62 0 114.5 -18.5t98.5 -67t67 -122.5q32 109 107 158.5t171 49.5q58 0 108 -18t93.5 -57.5t69 -112.5t25.5 -172v-201h-555v-121q0 -340 259 -340q50 0 91.5 14.5t79 47.5t60.5 95.5t27 150.5h38 q-2 -95 -28 -164.5t-69 -107t-92.5 -55t-106.5 -17.5q-96 0 -171 49.5t-107 158.5q-21 -74 -67 -122.5t-98.5 -67t-114.5 -18.5q-59 0 -109.5 18.5t-94 58t-68.5 112t-25 171.5zM243 360q0 -340 259 -340q53 0 96.5 15.5t82.5 52t60.5 106t21.5 166.5v306q0 98 -22 167.5 t-61.5 105.5t-82.5 51.5t-95 15.5q-259 0 -259 -340v-306zM801 518h517v147q0 98 -22 168t-61 106t-81.5 51.5t-93.5 15.5q-259 0 -259 -341v-147z" />
<glyph unicode="&#x178;" horiz-adv-x="1038" d="M123 1434h44l347 -777l355 777h46l-381 -821v-613h-40v613zM400 1787v56h55v-56h-55zM588 1787v56h54v-56h-54z" />
<glyph unicode="&#x2c6;" horiz-adv-x="729" d="M102 1178l234 256h57l233 -256h-57l-205 223l-205 -223h-57z" />
<glyph unicode="&#x2dc;" horiz-adv-x="718" d="M103 1213v39t2 40t6 43.5t12 36.5t19.5 33t30 20t42.5 9q30 0 60 -16t49.5 -34.5t58.5 -58.5q30 -34 55 -51t36 -19t30 -2q44 0 58 41.5t14 139.5h40v-39t-2 -40t-6 -43.5t-12 -36.5t-19.5 -33t-30 -20t-42.5 -9q-36 0 -72 22t-96 86q-44 47 -67.5 59.5t-53.5 12.5 q-44 0 -58 -41t-14 -139h-40z" />
<glyph unicode="&#x2000;" horiz-adv-x="921" />
<glyph unicode="&#x2001;" horiz-adv-x="1843" />
<glyph unicode="&#x2002;" horiz-adv-x="921" />
<glyph unicode="&#x2003;" horiz-adv-x="1843" />
<glyph unicode="&#x2004;" horiz-adv-x="614" />
<glyph unicode="&#x2005;" horiz-adv-x="460" />
<glyph unicode="&#x2006;" horiz-adv-x="307" />
<glyph unicode="&#x2007;" horiz-adv-x="307" />
<glyph unicode="&#x2008;" horiz-adv-x="230" />
<glyph unicode="&#x2009;" horiz-adv-x="368" />
<glyph unicode="&#x200a;" horiz-adv-x="102" />
<glyph unicode="&#x2010;" horiz-adv-x="712" d="M102 531v40h508v-40h-508z" />
<glyph unicode="&#x2011;" horiz-adv-x="712" d="M102 531v40h508v-40h-508z" />
<glyph unicode="&#x2012;" horiz-adv-x="712" d="M102 531v40h508v-40h-508z" />
<glyph unicode="&#x2013;" horiz-adv-x="966" d="M102 531v40h762v-40h-762z" />
<glyph unicode="&#x2014;" horiz-adv-x="1310" d="M102 531v40h1106v-40h-1106z" />
<glyph unicode="&#x2018;" horiz-adv-x="260" d="M102 1331v56l29 47h14l-10 -47h22v-56h-55z" />
<glyph unicode="&#x2019;" horiz-adv-x="260" d="M102 1377v57h55v-57l-29 -46h-14l10 46h-22z" />
<glyph unicode="&#x201a;" horiz-adv-x="260" d="M102 0v57h55v-57l-29 -46h-14l10 46h-22z" />
<glyph unicode="&#x201c;" horiz-adv-x="446" d="M102 1331v56l29 47h14l-10 -47h22v-56h-55zM290 1331v56l28 47h14l-9 -47h21v-56h-54z" />
<glyph unicode="&#x201d;" horiz-adv-x="446" d="M102 1377v57h55v-57l-29 -46h-14l10 46h-22zM290 1377v57h54v-57l-28 -46h-14l10 46h-22z" />
<glyph unicode="&#x201e;" horiz-adv-x="260" d="M102 0v57h55v-57l-29 -46h-14l10 46h-22z" />
<glyph unicode="&#x2022;" horiz-adv-x="651" d="M103 639q0 93 64.5 157t157.5 64q94 0 158.5 -64.5t64.5 -156.5q0 -94 -64.5 -158.5t-158.5 -64.5t-158 64.5t-64 158.5z" />
<glyph unicode="&#x2026;" horiz-adv-x="757" d="M102 0v57h55v-57h-55zM352 0v57h54v-57h-54zM601 0v57h55v-57h-55z" />
<glyph unicode="&#x202f;" horiz-adv-x="368" />
<glyph unicode="&#x2039;" horiz-adv-x="442" d="M102 545v51l238 188v-53l-205 -162l205 -159v-53z" />
<glyph unicode="&#x203a;" horiz-adv-x="442" d="M102 357v53l205 159l-205 162v53l238 -188v-51z" />
<glyph unicode="&#x205f;" horiz-adv-x="460" />
<glyph unicode="&#x20ac;" horiz-adv-x="1114" d="M92 606v41h101v140h-101v40h101v129q0 110 23.5 196.5t62.5 142t93.5 91.5t111.5 51t122 15q60 0 114.5 -13.5t106.5 -46.5t90.5 -83t64 -129.5t30.5 -179.5v-23h-40l-2 21q-6 95 -29.5 168.5t-57.5 119.5t-80 75.5t-94 41t-103 11.5q-60 0 -111.5 -13t-101 -46.5 t-84 -86t-55.5 -137.5t-21 -195v-109h611l-41 -40h-570v-140h430l-40 -41h-390v-106q0 -110 21 -195t55.5 -137.5t84 -86t101 -46.5t111.5 -13q339 0 366 418v19h40v-19q-5 -126 -41.5 -218t-95.5 -142t-125.5 -73t-143.5 -23q-82 0 -152 25t-130.5 79.5t-95.5 154.5 t-35 236v127h-101z" />
<glyph unicode="&#x2122;" horiz-adv-x="1122" d="M31 1397v37h438v-37h-199v-795h-38v795h-201zM502 602v832h38l254 -443l257 443h38v-832h-39v761l-244 -420h-24l-242 420v-761h-38z" />
<glyph unicode="&#x25fc;" horiz-adv-x="1024" d="M0 0v1024h1024v-1024h-1024z" />
</font>
</defs>
</svg>
