<?xml version="1.0" standalone="no"?>
<!DOCTYPE svg PUBLIC "-//W3C//DTD SVG 1.1//EN" "http://www.w3.org/Graphics/SVG/1.1/DTD/svg11.dtd" >
<svg xmlns="http://www.w3.org/2000/svg" xmlns:xlink="http://www.w3.org/1999/xlink" version="1.1">
<metadata></metadata>
<defs>
<font id="neusaextrabold" horiz-adv-x="782" >
<font-face units-per-em="2048" ascent="1536" descent="-512" />
<missing-glyph horiz-adv-x="614" />
<glyph unicode="&#xfb01;" horiz-adv-x="985" d="M45 782v242h98v67q0 101 24 174t67 112t93 57t112 18h104v-242h-29q-58 0 -79 -33.5t-23 -120.5v-32h131v-242h-131v-782h-268v782h-99zM643 1148v263h289v-263h-289zM653 0v1024h269v-1024h-269z" />
<glyph unicode="&#xfb02;" horiz-adv-x="958" d="M45 782v242h98v67q0 101 24 174t67 112t93 57t112 18h104v-242h-30q-58 0 -78.5 -34t-22.5 -125v-27h131v-242h-131v-782h-268v782h-99zM643 0v1434h269v-1434h-269z" />
<glyph horiz-adv-x="0" />
<glyph horiz-adv-x="682" />
<glyph unicode=" "  horiz-adv-x="614" />
<glyph unicode="&#x09;" horiz-adv-x="614" />
<glyph unicode="&#xa0;" horiz-adv-x="614" />
<glyph unicode="!" horiz-adv-x="493" d="M102 0v285h290v-285h-290zM107 939v495h280v-492l-37 -511h-206z" />
<glyph unicode="&#x22;" horiz-adv-x="759" d="M50 1434h288l-45 -602h-198zM423 1434h288l-45 -602h-198z" />
<glyph unicode="#" horiz-adv-x="1384" d="M32 332l95 312h151l27 105h-151l94 313h152l106 372h338l-106 -372h124l106 372h338l-106 -372h153l-94 -313h-154l-27 -105h154l-90 -312h-158l-95 -332h-337l94 332h-125l-94 -332h-337l94 332h-152zM616 644h125l27 105h-125z" />
<glyph unicode="$" horiz-adv-x="923" d="M35 457h311q2 -162 112 -162t110 136q0 73 -39 100.5t-156 47.5q-42 7 -81 21t-83 44t-76 72t-53.5 110t-21.5 153q0 179 65.5 286t174.5 151v120h332v-118q107 -42 171.5 -150t64.5 -294h-308q0 166 -91 166q-46 0 -67 -39t-21 -101q0 -34 11 -56t35.5 -34.5t46.5 -18.5 t64 -12q98 -15 169.5 -57t110 -101t56 -122.5t17.5 -134.5q0 -188 -69.5 -297.5t-189.5 -151.5v-117h-332v114q-117 39 -189 148t-74 297z" />
<glyph unicode="%" horiz-adv-x="1513" d="M102 881v316q0 57 18.5 102.5t46.5 72.5t64 45t68 25t61 7q40 0 82 -13t83 -40.5t67 -79t26 -119.5v-316q0 -68 -26 -119t-67 -78.5t-82.5 -41t-82.5 -14.5q-29 0 -61 7t-68 25t-64 45.5t-46.5 73t-18.5 102.5zM297 873q0 -31 20.5 -46t42.5 -15q24 1 43.5 16t19.5 45 v332q0 31 -19.5 46t-43.5 15q-22 0 -42.5 -15t-20.5 -46v-332zM350 0l596 1434h217l-597 -1434h-216zM896 238v316q0 57 18.5 102.5t46.5 72.5t64 45t67.5 25t60.5 7q40 0 82 -13t83 -40.5t67 -79t26 -119.5v-316q0 -68 -26 -119t-67 -78.5t-82.5 -40.5t-82.5 -14 q-29 0 -60.5 7t-67.5 25t-64 45t-46.5 72.5t-18.5 102.5zM1090 230q0 -32 20.5 -47t42.5 -15q24 1 43.5 16t19.5 46v332q0 31 -19.5 46t-43.5 15q-22 0 -42.5 -15t-20.5 -46v-332z" />
<glyph unicode="&#x26;" horiz-adv-x="1107" d="M45 436v13q0 96 35.5 171.5t87.5 100.5q-49 25 -84.5 100t-35.5 171v12q5 449 457 447h78v-311h-78q-128 0 -128 -131v-9q0 -55 32 -90.5t99 -35.5h164v228h321v-228h67v-305h-67v-107q0 -113 -24.5 -198t-65.5 -137.5t-102 -85.5t-126.5 -45.5t-146.5 -12.5h-14 q-464 4 -469 453zM374 430q0 -53 36 -94t111 -41h11q80 1 110 43t30 133v98h-164q-131 0 -134 -127v-12z" />
<glyph unicode="'" horiz-adv-x="491" d="M102 1434h288l-45 -602h-198z" />
<glyph unicode="(" horiz-adv-x="681" d="M102 88v1075q0 176 101 274.5t270 98.5h106v-312h-43q-42 0 -73 -32.5t-31 -82.5v-968q0 -50 30.5 -82t73.5 -32h43v-312h-106q-169 0 -270 98.5t-101 274.5z" />
<glyph unicode=")" horiz-adv-x="681" d="M102 27h43q43 0 73.5 32t30.5 82v968q0 50 -31 82.5t-73 32.5h-43v312h106q169 0 270 -98.5t101 -274.5v-1076q0 -176 -101 -274t-270 -98h-106v312z" />
<glyph unicode="*" horiz-adv-x="1038" d="M76 1037l89 274l232 -93l-16 250h288l-17 -250l233 93l89 -274l-243 -61l160 -193l-233 -169l-133 212l-134 -212l-233 169l161 193z" />
<glyph unicode="+" horiz-adv-x="1179" d="M102 384v313h323v322h332v-322h322v-313h-322v-322h-332v322h-323z" />
<glyph unicode="," horiz-adv-x="493" d="M102 0v285h290v-285l-103 -292h-113l49 292h-123z" />
<glyph unicode="-" horiz-adv-x="712" d="M102 392v313h508v-313h-508z" />
<glyph unicode="." horiz-adv-x="493" d="M102 0v285h290v-285h-290z" />
<glyph unicode="/" horiz-adv-x="868" d="M32 0l466 1434h338l-466 -1434h-338z" />
<glyph unicode="0" horiz-adv-x="946" d="M49 479v394q0 110 24.5 197t65 142t96.5 91t114 51t123 15q64 0 122 -14.5t114 -50.5t97 -91t66 -142.5t25 -197.5v-394q0 -110 -25 -197t-66 -142t-97 -91t-114 -50.5t-122 -14.5q-82 0 -153.5 25t-134 79.5t-99 154.5t-36.5 236zM379 493q0 -100 21.5 -149t71.5 -49 q95 0 95 198v368q0 196 -95 196q-50 0 -71.5 -48t-21.5 -148v-368z" />
<glyph unicode="1" horiz-adv-x="534" d="M31 1040v312h452v-1352h-331v1040h-121z" />
<glyph unicode="2" horiz-adv-x="907" d="M31 884l1 12q2 104 28 186t66.5 134.5t95 87.5t111.5 49.5t119 14.5h12q77 -2 147 -26t131 -74t97.5 -138.5t36.5 -206.5v-6q0 -74 -20 -136t-53 -107t-73.5 -83t-86 -71t-86.5 -63.5t-78.5 -68.5t-59.5 -77h446v-311h-831v154q0 82 17.5 152.5t47 122t68 96.5t81 78.5 t85 64t81 58.5t68 55.5t47 61.5t17.5 71q0 62 -23.5 102.5t-65.5 40.5h-8q-77 -5 -88 -173h-330z" />
<glyph unicode="3" horiz-adv-x="903" d="M31 426v10h321q4 -75 28 -107.5t68 -32.5h8q41 1 63.5 29t22.5 67v7q0 58 -32 93.5t-101 35.5h-111v305h111q65 0 97.5 34t32.5 91v7q0 34 -25 63.5t-62 29.5h-7q-82 -3 -92 -137h-321v11q2 94 27.5 170t65.5 125t93.5 82t109.5 47t117 14h11q61 -1 116.5 -13t110 -41.5 t94.5 -75t65 -117.5t26 -164v-12q0 -93 -35.5 -167t-84.5 -99q51 -25 87 -100t36 -170v-9q-1 -91 -25 -163.5t-63 -119t-93 -77.5t-111 -44t-121 -14h-12q-61 0 -117.5 14t-111 47t-94.5 82.5t-65 126.5t-27 172z" />
<glyph unicode="4" horiz-adv-x="991" d="M50 202v380l190 787h323l-186 -855h182v510h329v-510h72v-312h-72v-202h-329v202h-509z" />
<glyph unicode="5" horiz-adv-x="903" d="M32 435h321q4 -75 28.5 -108t68.5 -33h9q84 3 84 136v31q0 67 -34 87.5t-130 20.5h-303v800h718v-312h-389v-218l80 6q70 2 119 -7q75 -14 129.5 -54.5t83.5 -99.5t42.5 -122t13.5 -134v-36q-3 -87 -27.5 -157t-63.5 -115.5t-92 -76.5t-109 -44.5t-118 -14.5h-16 q-61 0 -117.5 14t-110.5 47t-94 82.5t-65 126t-27 171.5z" />
<glyph unicode="6" horiz-adv-x="919" d="M32 466v410q0 110 25 196.5t65.5 141.5t96.5 91.5t114.5 51t123.5 14.5q61 0 117 -13.5t111 -46t95.5 -82.5t67 -129.5t29.5 -179.5h-329q-1 68 -25 104t-66 36q-107 0 -107 -195v-97q61 58 161 61h22q83 3 147 -22t103 -66.5t63.5 -99.5t33.5 -115.5t9 -120.5 q0 -67 -11 -124.5t-40 -113.5t-74 -95.5t-117.5 -63.5t-166.5 -24h-35q-71 1 -129 14.5t-112.5 47t-91 86.5t-58.5 137.5t-22 196.5zM363 405q0 -59 22.5 -84.5t66.5 -25.5h17q45 0 68 25.5t23 84.5q0 112 -91 112h-17q-89 0 -89 -112z" />
<glyph unicode="7" horiz-adv-x="894" d="M40 1056v313h823v-251l-433 -1118h-333l410 1056h-467z" />
<glyph unicode="8" horiz-adv-x="923" d="M33 406v10q3 177 123 260q-122 101 -122 277v9q1 78 27 149.5t75 130t129 93t180 34.5h32q100 0 180 -34.5t129 -93t75 -130t27 -149.5v-9q0 -174 -121 -275q125 -85 125 -262v-10q0 -86 -25 -160.5t-74 -133t-129.5 -92t-184.5 -33.5h-32q-104 0 -185 33.5t-130 92 t-74 133t-25 160.5zM362 412q1 -68 26 -90.5t67 -22.5h13q43 0 68.5 22.5t26.5 90.5v10q0 72 -25.5 97t-72.5 25h-7q-45 0 -70.5 -25t-25.5 -97v-10zM364 954q0 -32 7.5 -53t22.5 -30.5t28.5 -12.5t33.5 -3h7q44 0 69.5 19t25.5 80v7q-1 31 -9.5 51.5t-23 30t-28.5 12.5 t-31 3h-13q-36 1 -62 -19t-27 -78v-7z" />
<glyph unicode="9" horiz-adv-x="917" d="M31 950q0 67 11 124.5t40 113.5t74 96t117.5 64t166.5 24h35q71 -1 129 -14.5t112.5 -47t91 -86.5t58.5 -138t22 -197v-410q0 -110 -24.5 -196.5t-65 -141.5t-96.5 -91.5t-114.5 -51t-123.5 -14.5q-61 0 -117 13.5t-111 46t-96 82.5t-67.5 129.5t-29.5 179.5h330 q1 -68 25.5 -104t65.5 -36q56 0 81.5 48t25.5 146v99q-59 -59 -160 -62h-23q-83 -3 -147 22t-103 66.5t-64 100t-34 115.5t-9 120zM360 950q0 -112 91 -112h17q89 0 89 112q0 59 -22.5 84.5t-66.5 25.5h-17q-45 0 -68 -25.5t-23 -84.5z" />
<glyph unicode=":" horiz-adv-x="493" d="M102 0v285h290v-285h-290zM102 698v284h290v-284h-290z" />
<glyph unicode=";" horiz-adv-x="493" d="M102 0v285h290v-285l-103 -292h-113l49 292h-123zM102 698v284h290v-284h-290z" />
<glyph unicode="&#x3c;" horiz-adv-x="1144" d="M102 529v86l942 432v-314l-372 -161l372 -159v-314z" />
<glyph unicode="=" horiz-adv-x="1181" d="M102 175v313h978v-313h-978zM102 567v312h978v-312h-978z" />
<glyph unicode="&#x3e;" horiz-adv-x="1144" d="M102 99v314l372 159l-372 161v314l941 -432v-86z" />
<glyph unicode="?" horiz-adv-x="1050" d="M102 954l1 10q2 103 27.5 184.5t64.5 134.5t93 88t109.5 50.5t116.5 16.5h14q61 0 119 -14t113 -47.5t96 -83.5t66 -127.5t25 -173.5v-3q0 -81 -19 -141.5t-49 -96.5t-65.5 -63t-71.5 -49.5t-65.5 -48t-48 -66.5t-18.5 -96h-266q0 87 15 153t39.5 105t53.5 68t58 50.5 t53.5 43.5t39.5 55.5t15 79.5q0 61 -23.5 102t-66.5 41h-6q-79 -5 -90 -172h-330zM333 0v285h290v-285h-290z" />
<glyph unicode="@" horiz-adv-x="1771" d="M102 539q-1 195 34.5 346.5t101 253.5t164.5 167.5t217.5 94t266.5 27.5q136 -1 246.5 -20t191.5 -53t141.5 -85.5t99 -111.5t62 -138t33 -158t9.5 -178v-351q0 -151 -88.5 -247.5t-263.5 -96.5q-195 -3 -292 102q-71 -103 -213 -103q-49 0 -92.5 18.5t-83 58t-63 113 t-23.5 171.5v337q0 98 23.5 171.5t63 113t83 58t92.5 18.5q132 0 202 -89l36 70h185v-696q0 -49 17.5 -75t61.5 -26q45 0 65.5 25.5t20.5 83.5v368q0 66 -5 117t-19 102.5t-37 88.5t-61.5 70t-91.5 53.5t-126.5 32.5t-166.5 13q-109 0 -186 -14.5t-145.5 -55.5t-109 -112.5 t-64 -186.5t-22.5 -277q0 -343 120 -500t361 -157h285v-242h-287q-743 0 -743 899zM819 484q2 -154 15.5 -203.5t59.5 -49.5q31 0 46 22.5t20.5 75t4.5 155.5v67q0 102 -7 155.5t-22 75.5t-44 22q-44 0 -58.5 -51t-14.5 -202v-67z" />
<glyph unicode="A" horiz-adv-x="1024" d="M44 0l261 1434h412l263 -1434h-321l-47 278h-199l-48 -278h-321zM446 599h130l-64 475z" />
<glyph unicode="B" horiz-adv-x="913" d="M59 0v1434h388q78 0 148.5 -19t130 -57.5t95 -106t35.5 -155.5v-93q0 -175 -139 -264q168 -92 168 -299v-78q0 -174 -115 -268t-315 -94h-396zM379 311h67q51 0 81.5 31.5t30.5 96.5v15q0 64 -30.5 96.5t-81.5 32.5h-67v-272zM379 877h62q44 0 73.5 28.5t29.5 86.5v14 q0 58 -29.5 86.5t-73.5 28.5h-62v-244z" />
<glyph unicode="C" horiz-adv-x="921" d="M55 479v477q0 110 24.5 197t65 142t96.5 91t114 51t123 15q63 0 120 -14.5t111 -50t93.5 -89.5t64 -140t25.5 -195v-48h-321v40q-2 93 -24 139t-69 46q-50 0 -71.5 -48t-21.5 -147v-452q0 -100 21.5 -149t71.5 -49q47 0 68.5 46.5t24.5 140.5v40h321v-49 q-1 -109 -25 -195t-63.5 -140t-94 -89.5t-111.5 -50t-120 -14.5q-82 0 -153.5 25t-134 79.5t-99 154.5t-36.5 236z" />
<glyph unicode="D" horiz-adv-x="933" d="M59 0v1434h404q65 0 121 -13t112 -47.5t95 -88.5t63.5 -143t24.5 -204v-442q0 -115 -24.5 -204t-63.5 -143t-95 -88.5t-112 -47.5t-121 -13h-404zM380 312h83q95 0 95 197v417q0 196 -95 196h-83v-810z" />
<glyph unicode="E" horiz-adv-x="708" d="M59 0v1434h620v-312h-299v-245h279v-311h-279v-254h299v-312h-620z" />
<glyph unicode="F" horiz-adv-x="690" d="M59 0v1434h601v-312h-280v-268h260v-312h-260v-542h-321z" />
<glyph unicode="G" horiz-adv-x="931" d="M55 479v477q0 110 23.5 197t63 142t93.5 91t111.5 51t122.5 15q63 0 119.5 -14.5t110 -50.5t92 -90.5t62 -141t23.5 -196.5v-22h-312v13q-3 190 -95 190q-50 0 -71.5 -48t-21.5 -147v-452q0 -100 21.5 -149t71.5 -49q95 0 95 185v43h-98v311h412v-355q0 -110 -23.5 -197 t-62.5 -142t-92.5 -91t-110.5 -50.5t-120 -14.5q-65 0 -122.5 14.5t-111.5 51t-93.5 91.5t-63 141.5t-23.5 196.5z" />
<glyph unicode="H" horiz-adv-x="933" d="M59 0v1434h321v-557h174v557h321v-1434h-321v566h-174v-566h-321z" />
<glyph unicode="I" horiz-adv-x="448" d="M59 0v1434h332v-1434h-332z" />
<glyph unicode="J" horiz-adv-x="649" d="M44 -16v311h78q149 2 149 198v941h320v-955q0 -109 -24 -195.5t-63 -141.5t-93 -91t-110 -51t-118 -16h-139z" />
<glyph unicode="K" horiz-adv-x="1019" d="M59 0v1434h332v-543l194 544h362l-265 -711l295 -724h-370l-216 570v-570h-332z" />
<glyph unicode="L" horiz-adv-x="704" d="M59 0v1434h321v-1122h280v-312h-601z" />
<glyph unicode="M" horiz-adv-x="1265" d="M54 0v1434h398l179 -746l179 746h398v-1434h-311v696l-170 -696h-192l-170 696v-696h-311z" />
<glyph unicode="N" horiz-adv-x="1015" d="M54 0v1434h316l282 -694v694h310v-1434h-316l-281 694v-694h-311z" />
<glyph unicode="O" horiz-adv-x="952" d="M52 479v477q0 110 24.5 197t65 142t96.5 91t114 51t123 15q64 0 122 -14.5t114 -50.5t97 -91t66 -142.5t25 -197.5v-477q0 -110 -25 -197t-66 -142t-97 -91t-114 -50.5t-122 -14.5q-82 0 -153.5 25t-134 79.5t-99 154.5t-36.5 236zM382 493q0 -100 21.5 -149t71.5 -49 q95 0 95 198v452q0 195 -95 195q-50 0 -71.5 -48t-21.5 -147v-452z" />
<glyph unicode="P" horiz-adv-x="917" d="M59 0v1433h334q71 0 135.5 -11.5t127 -40.5t108 -74t73.5 -117t28 -163v-99q0 -84 -24.5 -151.5t-65 -112t-96.5 -76t-115.5 -47t-125.5 -19.5h-58v-522h-321zM380 832h64q46 0 77.5 33t31.5 104v17q0 71 -31 104t-78 33h-64v-291z" />
<glyph unicode="Q" horiz-adv-x="1009" d="M55 479v477q0 110 23.5 197t63 142t93.5 91t111.5 51t122.5 15q64 0 121 -14.5t112 -50.5t94.5 -91t64 -142.5t24.5 -197.5v-477q0 -101 -20 -183h90v-311h-444q-14 -1 -42 -1q-65 0 -122.5 14.5t-111.5 51t-93.5 91.5t-63 141.5t-23.5 196.5zM376 493q0 -100 21.5 -149 t71.5 -49q8 0 12 1h1q82 12 82 197v452q0 195 -95 195q-50 0 -71.5 -48t-21.5 -147v-452z" />
<glyph unicode="R" horiz-adv-x="944" d="M59 0v1433h337q71 0 135.5 -11.5t127 -40.5t108 -74t73.5 -116.5t28 -163.5v-96q0 -200 -146 -303l178 -628h-338l-122 525h-60v-525h-321zM380 835h66q46 0 78 33t32 104v14q0 71 -31.5 104t-78.5 33h-66v-288z" />
<glyph unicode="S" horiz-adv-x="923" d="M35 457h311q2 -162 112 -162t110 134q0 75 -39 102.5t-156 47.5q-42 7 -81 20.5t-83 44t-76 72.5t-53.5 110t-21.5 153q0 104 23.5 187t62 135.5t92.5 87t110.5 49t120.5 14.5q62 0 117 -13.5t108 -48t90.5 -87.5t60.5 -137t23 -192h-308q0 166 -91 166q-46 0 -67 -39 t-21 -101q0 -28 9 -48t20 -31.5t35 -20t41.5 -12.5t51.5 -9q79 -12 141 -42.5t101.5 -70.5t65 -91.5t35.5 -103t10 -108.5q0 -106 -23.5 -189.5t-63 -137t-95.5 -88.5t-117 -49.5t-132 -14.5q-67 0 -125.5 14t-113.5 48.5t-94.5 87.5t-64 135.5t-25.5 187.5z" />
<glyph unicode="T" horiz-adv-x="843" d="M44 1122v312h756v-312h-217v-1122h-321v1122h-218z" />
<glyph unicode="U" horiz-adv-x="940" d="M59 462q0 -110 23.5 -194.5t62.5 -137.5t93.5 -86.5t111.5 -46.5t122 -13q64 0 120.5 13t112 46.5t94.5 86t63.5 137.5t24.5 195v972h-321v-959q0 -96 -22.5 -138t-71.5 -42q-51 0 -71.5 41t-20.5 139v959h-321v-972z" />
<glyph unicode="V" horiz-adv-x="1028" d="M44 1434h324l146 -925l145 925h324l-261 -1434h-419z" />
<glyph unicode="W" horiz-adv-x="1550" d="M44 1434h324l133 -906l125 906h298l125 -906l133 906h324l-247 -1434h-380l-105 642l-105 -642h-380z" />
<glyph unicode="X" horiz-adv-x="1052" d="M44 0l265 738l-246 696h333l131 -408l132 408h333l-252 -696l268 -738h-332l-148 428l-151 -428h-333z" />
<glyph unicode="Y" horiz-adv-x="1071" d="M44 1434h333l159 -523l159 523h333l-326 -891v-543h-333v542z" />
<glyph unicode="Z" horiz-adv-x="894" d="M35 0v258l473 864h-457v312h800v-265l-469 -857h477v-312h-824z" />
<glyph unicode="[" horiz-adv-x="667" d="M102 -287v1823h464v-312h-133v-1197h133v-314h-464z" />
<glyph unicode="\" horiz-adv-x="868" d="M32 1434h338l466 -1434h-337z" />
<glyph unicode="]" horiz-adv-x="667" d="M102 27h134v1197h-134v312h464v-1823h-464v314z" />
<glyph unicode="^" horiz-adv-x="909" d="M102 987l353 442l352 -442h-228l-124 146l-125 -146h-228z" />
<glyph unicode="_" horiz-adv-x="1052" d="M102 -3h848v-312h-848v312z" />
<glyph unicode="`" horiz-adv-x="647" d="M121 1475h293l113 -350h-207z" />
<glyph unicode="a" d="M46 344v338q0 98 23.5 171.5t63 112.5t83.5 57.5t93 18.5q132 0 201 -88l37 70h184v-1024h-184l-35 75q-70 -91 -203 -91q-49 0 -93 18.5t-83.5 57.5t-63 112.5t-23.5 171.5zM315 479q2 -154 15.5 -203.5t59.5 -49.5q31 0 46 22q14 24 20 76q5 44 5 125v30v68 q0 102 -7 155.5t-22 75.5t-44 22q-44 0 -58.5 -51t-14.5 -202v-68z" />
<glyph unicode="b" d="M53 0v1434h268v-448q60 56 163 56q48 0 91 -18.5t81 -58t60 -112t22 -171.5v-338q0 -99 -22 -171.5t-60 -112t-81 -58t-91 -18.5q-137 0 -210 94l-37 -78h-184zM323 479v-30q1 -81 5 -125q6 -52 20.5 -75t45.5 -23q46 0 59.5 49.5t15.5 203.5v68q0 151 -14.5 202 t-58.5 51q-29 0 -44 -22t-22 -75.5t-7 -155.5v-68z" />
<glyph unicode="c" horiz-adv-x="765" d="M46 344v338q0 79 20.5 142.5t54 103t79 66t92 37.5t95.5 11q63 0 119 -18t106.5 -57t80.5 -111t30 -170v-57h-262q-1 96 -18.5 133.5t-54.5 37.5q-44 0 -58.5 -51t-14.5 -202v-68q2 -154 15.5 -203.5t59.5 -49.5q39 0 55.5 37t16.5 134h261v-56q0 -79 -20.5 -142 t-53 -102.5t-77 -65.5t-90.5 -36.5t-95 -10.5t-95.5 11t-92 37.5t-79 66t-54 103t-20.5 142.5z" />
<glyph unicode="d" d="M46 344v338q0 99 22 171.5t60 112t81 58t91 18.5q103 0 163 -56v448h268v-1434h-184l-38 78q-73 -94 -209 -94q-48 0 -91 18.5t-81 58t-60 112t-22 171.5zM315 479q2 -154 15.5 -203.5t59.5 -49.5q31 0 46 22q14 24 20 76q5 44 5 125v30v68q0 102 -7 155.5t-22 75.5 t-44 22q-44 0 -58.5 -51t-14.5 -202v-68z" />
<glyph unicode="e" horiz-adv-x="774" d="M46 344v338q0 79 20.5 142.5t54 103t79 66t92 37.5t95.5 11q63 0 120 -18t108.5 -57.5t82.5 -112.5t31 -172v-262h-413v-32q0 -92 16.5 -126.5t57.5 -35.5q34 0 52 26.5t20 89.5h268q0 -79 -21 -142.5t-55 -103t-79.5 -65.5t-91.5 -36.5t-96 -10.5q-49 0 -95.5 11 t-92 37.5t-79 66t-54 103t-20.5 142.5zM315 617h145v40q-1 79 -19 110.5t-53 32.5q-38 -1 -55 -32t-18 -113v-38z" />
<glyph unicode="f" horiz-adv-x="587" d="M45 782v242h98v67q0 101 24 173.5t66.5 112t92.5 57.5t112 18h105v-241h-30q-59 0 -79 -35t-22 -129v-23h131v-242h-131v-782h-268v782h-99z" />
<glyph unicode="g" horiz-adv-x="784" d="M46 360v322q0 99 22 171.5t60 112t81 58t91 18.5q134 0 209 -94l38 77h185v-1018q0 -79 -20.5 -142t-54 -103t-79 -66.5t-92 -37t-95.5 -10.5q-56 0 -108.5 14.5t-101 46t-82.5 89t-44 135.5h272q14 -42 62 -42q39 0 56 28.5t17 101.5l1 36q-61 -57 -163 -57 q-48 0 -91 18.5t-81 58t-60 112t-22 171.5zM315 482q0 -151 14.5 -202.5t58.5 -51.5q42 0 57.5 52.5t15.5 201.5v64v35q0 121 -13 167q-14 52 -58 52q-24 0 -38 -11t-22 -42.5t-11 -76.5t-4 -124v-64z" />
<glyph unicode="h" horiz-adv-x="786" d="M56 0v1434h268v-452q61 60 163 60q48 0 91 -18.5t80.5 -58t59.5 -112t22 -171.5v-682h-269v547q0 151 -14.5 202t-58.5 51q-39 0 -56 -38t-18 -140v-622h-268z" />
<glyph unicode="i" horiz-adv-x="397" d="M56 1148v263h289v-263h-289zM66 0v1024h269v-1024h-269z" />
<glyph unicode="j" horiz-adv-x="514" d="M53 -113h29q63 1 82 41q19 39 19 140v10v946h270v-1017q0 -102 -24 -175t-66.5 -112t-93 -56.5t-112.5 -17.5h-104v241zM173 1148v263h289v-263h-289z" />
<glyph unicode="k" d="M54 0v1434h270v-761l131 351h277l-168 -497l180 -527h-277l-143 384v-384h-270z" />
<glyph unicode="l" horiz-adv-x="370" d="M56 0v1434h269v-1434h-269z" />
<glyph unicode="m" horiz-adv-x="1198" d="M53 0v1024h184l41 -76q73 94 204 94q133 0 196 -113q75 113 219 113q48 0 91 -18.5t80.5 -58t59.5 -112t22 -171.5v-682h-268v547q0 151 -14.5 202t-58.5 51q-34 0 -51.5 -26t-21.5 -92v-682h-269v547q0 151 -14.5 202t-58.5 51q-38 0 -55 -33.5t-18 -119.5v-647h-268z " />
<glyph unicode="n" horiz-adv-x="784" d="M53 0v1024h184l41 -77q74 95 206 95q48 0 91 -18.5t81 -58t60 -112t22 -171.5v-682h-269v547q0 151 -14.5 202t-58.5 51q-40 0 -57 -38.5t-18 -139.5v-622h-268z" />
<glyph unicode="o" horiz-adv-x="776" d="M46 344v338q0 79 20.5 142.5t54 103t79 66t92 37.5t95.5 11q63 0 120 -18t109 -57.5t83 -112.5t31 -172v-338q0 -99 -31 -172t-83 -112.5t-109 -57.5t-120 -18q-49 0 -95.5 11t-92 37.5t-79 66t-54 103t-20.5 142.5zM315 479q2 -154 15.5 -203.5t59.5 -49.5q44 0 58 52 q13 45 13 166v35v68q0 149 -15.5 201t-57.5 52q-44 0 -58.5 -51t-14.5 -202v-68z" />
<glyph unicode="p" horiz-adv-x="784" d="M54 -334v1359h185l37 -78q74 95 209 95q48 0 91 -18.5t81 -58t60 -112.5t22 -172v-337q0 -99 -22 -172t-60 -112.5t-81 -58t-91 -18.5q-100 0 -163 57v-374h-268zM324 479q0 -102 7 -155.5t22 -75.5t44 -22q44 0 58.5 51t14.5 202v67q-2 154 -15.5 203.5t-59.5 49.5 q-31 0 -46 -22.5t-21 -74.5q-4 -45 -4 -126v-30v-67z" />
<glyph unicode="q" d="M46 344v337q0 99 22 172t60 112.5t81 58t91 18.5q135 0 209 -95l38 79h184v-1360h-268v374q-63 -57 -163 -57q-48 0 -91 18.5t-81 58t-60 112.5t-22 172zM315 479q0 -151 14.5 -202t58.5 -51q29 0 44 22t22 75.5t7 155.5v67v30q0 81 -5 126q-5 52 -20 74.5t-46 22.5 q-46 0 -59.5 -49.5t-15.5 -203.5v-67z" />
<glyph unicode="r" horiz-adv-x="579" d="M53 0v1024h184l51 -104q100 122 253 122v-242q-112 0 -165.5 -55t-54.5 -191v-554h-268z" />
<glyph unicode="s" horiz-adv-x="739" d="M31 293v35h269v-29q1 -36 20.5 -54t49.5 -18q33 0 52 17.5t19 52.5q0 68 -34.5 94t-114.5 38q-108 13 -180 89t-72 202q0 161 90.5 241.5t236.5 80.5q141 0 235 -82.5t95 -225.5v-19h-268v14q-1 36 -18.5 53.5t-42.5 17.5q-27 0 -44 -15.5t-17 -47.5q2 -68 78 -83 q96 -17 162.5 -51t100.5 -81.5t48 -97.5t14 -112q0 -164 -92.5 -246t-247.5 -82q-137 0 -237.5 82.5t-101.5 226.5z" />
<glyph unicode="t" horiz-adv-x="587" d="M45 782v242h98v313h269v-313h130v-242h-130v-366q0 -112 19 -152t82 -41h29v-241h-104q-62 0 -112 17.5t-92.5 56.5t-66.5 112.5t-24 176.5v437h-98z" />
<glyph unicode="u" horiz-adv-x="780" d="M48 342v682h269v-546q0 -152 14.5 -203t58.5 -51q39 0 56 38t18 140v622h268v-1024h-184l-41 77q-74 -95 -206 -95q-48 0 -91 18.5t-80.5 58t-59.5 112t-22 171.5z" />
<glyph unicode="v" horiz-adv-x="874" d="M40 1024h269l129 -607l129 607h270l-243 -1022h-312z" />
<glyph unicode="w" horiz-adv-x="1243" d="M40 1024h269l96 -670l105 670h225l105 -670l96 670h269l-180 -1024h-328l-75 496l-74 -496h-328z" />
<glyph unicode="x" horiz-adv-x="856" d="M40 0l176 525l-164 499h277l101 -360l100 360h277l-164 -499l175 -525h-276l-113 308l-113 -308h-276z" />
<glyph unicode="y" horiz-adv-x="763" d="M40 360v664h269v-528q0 -152 14 -203t58 -51q42 0 58 52t17 202v530h268v-1023q0 -78 -21 -140.5t-54 -102t-78 -65.5t-91 -36.5t-95 -10.5q-56 0 -108.5 14.5t-101.5 46t-83 89t-44 135.5h272q14 -42 62 -42q38 0 55.5 28.5t17.5 99.5l1 38q-61 -57 -163 -57 q-48 0 -91 18.5t-80.5 58t-59.5 112t-22 171.5z" />
<glyph unicode="z" horiz-adv-x="702" d="M40 0v196l324 586h-300v242h590v-198l-319 -584h329v-242h-624z" />
<glyph unicode="{" horiz-adv-x="854" d="M102 484v312h11q38 1 60 4.5t43.5 15t32 34t18 59.5t9.5 93v161q4 177 103.5 275t267.5 98h106v-312h-43q-42 0 -73 -32.5t-31 -82.5v-160q0 -278 -192 -308q191 -30 191 -267v-233q0 -50 31 -82t74 -32h43v-312h-106q-168 0 -268 98t-105 275v184q-3 72 -11.5 113.5 t-30.5 62.5t-47 27.5t-72 8.5h-11z" />
<glyph unicode="|" horiz-adv-x="534" d="M102 -123v1557h331v-1557h-331z" />
<glyph unicode="}" horiz-adv-x="854" d="M102 27h43q43 0 74 32.5t31 82.5v232q0 237 191 267q-192 30 -192 308v160q0 50 -31 82.5t-73 32.5h-43v312h106q168 0 268 -98t105 -275v-165q2 -68 10.5 -108t30.5 -60.5t47.5 -26.5t73.5 -7h10v-312h-10q-38 -2 -59.5 -6t-43.5 -16t-32.5 -35t-18 -62t-10.5 -98v-180 q-4 -177 -103.5 -274.5t-267.5 -97.5h-106v312z" />
<glyph unicode="~" horiz-adv-x="1091" d="M103 430q0 109 25 194.5t84.5 141.5t148.5 56q32 0 63.5 -7.5t53 -16t79.5 -32.5q95 -45 142 -37q57 11 59 88h232q0 -108 -24.5 -193t-83.5 -140.5t-146 -55.5q-22 0 -39 2t-40.5 10t-34 12t-46 20t-50.5 23q-73 33 -121 26q-32 -4 -50.5 -27.5t-18.5 -63.5h-233z" />
<glyph unicode="&#xa1;" horiz-adv-x="493" d="M102 815v285h290v-285h-290zM107 161l37 508h206l37 -511v-492h-280v495z" />
<glyph unicode="&#xa2;" horiz-adv-x="768" d="M46 344v338q0 139 58 221.5t150 114.5v213h269v-215q89 -32 144 -113t56 -217v-57h-262q-1 96 -18.5 133.5t-54.5 37.5q-44 0 -58.5 -51t-14.5 -202v-68q2 -154 15.5 -203.5t59.5 -49.5q39 0 55.5 37t16.5 134h261v-56q-1 -137 -56 -218t-144 -113v-209h-269v207 q-93 32 -150.5 114.5t-57.5 221.5z" />
<glyph unicode="&#xa3;" horiz-adv-x="1034" d="M48 0v313h93v209h-93v313h93v123q0 109 25 195.5t65 141.5t95.5 91t114 51t122.5 15q63 0 121 -14.5t113.5 -50t96.5 -90t66 -140.5t26 -195v-15h-329v6q-2 94 -24.5 140.5t-69.5 46.5q-50 0 -71.5 -48t-21.5 -147v-110h247v-313h-247v-209h463v-313h-885z" />
<glyph unicode="&#xa4;" horiz-adv-x="1228" />
<glyph unicode="&#xa5;" horiz-adv-x="1105" d="M47 1434h333l173 -517l173 517h334l-177 -437h158v-313h-269l-18 -37l-8 -28h296v-313h-323v-306h-332v306h-321v313h294l-8 28l-18 37h-268v313h157z" />
<glyph unicode="&#xa6;" horiz-adv-x="536" d="M102 -123v655h333v-655h-333zM102 778v656h333v-656h-333z" />
<glyph unicode="&#xa7;" horiz-adv-x="827" d="M32 166v38h303l-1 -31q1 -40 24 -61.5t55 -21.5q36 0 57.5 19.5t21.5 57.5q0 40 -10.5 67t-34 43t-51.5 24.5t-72 14.5q-121 14 -201 99t-80 226q0 136 69 226q-69 85 -69 207q0 180 101.5 271t264.5 91q158 0 263.5 -92.5t106.5 -253.5v-20h-301l-1 12q-1 41 -20.5 61.5 t-46.5 20.5q-29 0 -48 -17.5t-19 -52.5q0 -77 87 -94q105 -17 178.5 -54.5t112.5 -90t56 -110t17 -127.5q0 -131 -58 -217q58 -87 58 -216q0 -183 -104 -275.5t-277 -92.5q-98 0 -183 39t-141.5 120t-56.5 190zM324 660q0 -11 2 -20t6.5 -16.5t8 -13.5t12 -11.5t13 -8.5 t15 -7.5t14.5 -6t16 -5t14 -4.5q41 -14 61 -28q32 24 32 75q0 44 -25.5 67.5t-71.5 38.5q-28 9 -44 15q-53 -18 -53 -75z" />
<glyph unicode="&#xa8;" horiz-adv-x="829" d="M115 1174v260h264v-260h-264zM461 1174v260h264v-260h-264z" />
<glyph unicode="&#xa9;" horiz-adv-x="1290" d="M96 882q0 149 73.5 276t200 201.5t276.5 74.5q149 0 276 -74.5t200.5 -201.5t73.5 -276q0 -150 -73.5 -276.5t-200.5 -200.5t-276 -74q-150 0 -276.5 74t-200 200.5t-73.5 276.5zM277 882q0 -159 103 -269t266 -110t266.5 110t103.5 269q0 157 -103.5 268.5t-266.5 111.5 t-266 -111t-103 -269zM449 809v160q0 59 17.5 103t46.5 67.5t62 35t69 11.5q78 0 134 -48t59 -154v-28h-142q-3 55 -15 76t-36 21q-28 0 -38 -32t-10 -126v-14q0 -93 10 -125.5t40 -32.5q25 0 36.5 21.5t14.5 77.5h140v-28q-3 -106 -59 -154t-134 -48q-37 0 -69.5 11 t-61.5 35t-46.5 68t-17.5 103z" />
<glyph unicode="&#xaa;" d="M46 344v338q0 98 23.5 171.5t63 112.5t83.5 57.5t93 18.5q132 0 201 -88l37 70h184v-1024h-184l-35 75q-70 -91 -203 -91q-49 0 -93 18.5t-83.5 57.5t-63 112.5t-23.5 171.5zM315 479q2 -154 15.5 -203.5t59.5 -49.5q31 0 46 22.5t20.5 75t4.5 155.5v68q0 102 -7 155.5 t-22 75.5t-44 22q-44 0 -58.5 -51t-14.5 -202v-68z" />
<glyph unicode="&#xab;" horiz-adv-x="931" d="M103 374v315l330 301v-315l-159 -143l159 -142v-315zM500 374v315l330 301v-315l-158 -143l158 -142v-315z" />
<glyph unicode="&#xac;" horiz-adv-x="1181" d="M102 532v313h978v-515h-330v202h-648z" />
<glyph unicode="&#xad;" horiz-adv-x="712" d="M102 392v313h508v-313h-508z" />
<glyph unicode="&#xae;" horiz-adv-x="1290" d="M96 863q0 149 73.5 276t200 201t276.5 74t276.5 -74t200 -201t73.5 -276t-73.5 -276t-200 -201t-276.5 -74t-276.5 74t-200 201t-73.5 276zM276 863q0 -158 103.5 -269t266.5 -111t266.5 111t103.5 269t-103.5 269t-266.5 111t-266.5 -111t-103.5 -269zM464 581v576h182 q96 0 146.5 -47t50.5 -119v-34q-2 -84 -70 -128l80 -248h-153l-59 198h-30v-198h-147zM612 930h27q57 0 57 46q0 47 -57 47h-27v-93z" />
<glyph unicode="&#xaf;" horiz-adv-x="759" d="M102 1194v240h556v-240h-556z" />
<glyph unicode="&#xb0;" d="M102 1305q0 120 84.5 204.5t204.5 84.5t205 -84.5t85 -204.5t-85 -204.5t-205 -84.5t-204.5 84.5t-84.5 204.5zM318 1305q0 -31 21 -52.5t52 -21.5t53 21.5t22 52.5t-22 52.5t-53 21.5t-52 -21.5t-21 -52.5z" />
<glyph unicode="&#xb1;" horiz-adv-x="1181" d="M102 82v312h978v-312h-978zM102 631v313h323v144h332v-144h323v-313h-323v-144h-332v144h-323z" />
<glyph unicode="&#xb4;" horiz-adv-x="647" d="M121 1121l113 351h293l-199 -351h-207z" />
<glyph unicode="&#xb6;" horiz-adv-x="1441" d="M45 934v196q0 121 89 212.5t214 91.5h1045v-313h-77v-1455h-331v1455h-115v-1455h-330v965h-192q-128 0 -215.5 87t-87.5 216z" />
<glyph unicode="&#xb7;" horiz-adv-x="493" d="M102 610v285h290v-285h-290z" />
<glyph unicode="&#xb8;" horiz-adv-x="526" d="M102 -173h24q47 5 63 35t18 98v40h216v-47q-3 -171 -65 -242t-229 -75h-27v191z" />
<glyph unicode="&#xba;" horiz-adv-x="776" d="M46 344v338q0 79 20.5 142.5t54 103t79 66t92 37.5t95.5 11q63 0 120 -18t109 -57.5t83 -112.5t31 -172v-338q0 -99 -31 -172t-83 -112.5t-109 -57.5t-120 -18q-49 0 -95.5 11t-92 37.5t-79 66t-54 103t-20.5 142.5zM315 479q2 -154 15.5 -203.5t59.5 -49.5 q44 0 58.5 51.5t12.5 201.5v68q0 149 -15.5 201t-57.5 52q-44 0 -58.5 -51t-14.5 -202v-68z" />
<glyph unicode="&#xbb;" horiz-adv-x="931" d="M102 75v315l159 142l-159 143v314l330 -300v-314zM500 75v315l159 142l-159 143v315l330 -301v-314z" />
<glyph unicode="&#xbc;" horiz-adv-x="1368" d="M68 1252v182h262v-692h-199v510h-63zM192 0l567 1434h243l-567 -1434h-243zM776 100v203l98 389h200l-96 -411h88v237h199v-237h36v-181h-36v-99h-198v99h-291z" />
<glyph unicode="&#xbd;" horiz-adv-x="1318" d="M68 1251v183h262v-693h-200v510h-62zM193 0l566 1434h244l-568 -1434h-242zM769 450v6q1 65 23.5 113.5t58.5 74.5t75.5 38.5t83.5 12.5h12q100 -2 164.5 -54t67.5 -164v-8q0 -54 -25 -100t-55.5 -72.5t-70 -60t-56.5 -55.5h201v-181h-469v81q0 53 15.5 97t39.5 73 t53.5 52.5t59.5 42t54 36t39.5 38t15.5 44.5q0 23 -11 36.5t-30 15.5h-3q-22 0 -32 -15.5t-13 -50.5h-198z" />
<glyph unicode="&#xbe;" horiz-adv-x="1536" d="M64 958v5h186q3 -36 40 -39h8q16 0 27.5 8.5t13.5 22.5l1 6q1 20 -14.5 32.5t-49.5 13.5h-58v184h58q58 0 61 35l1 6q0 15 -10.5 25t-29.5 10h-6q-38 0 -42 -38h-185v5q3 106 69 161t160 55l14 -1q225 -4 228 -207v-9q0 -47 -18 -84.5t-42 -49.5q25 -14 42.5 -52.5 t18.5 -87.5v-8q-3 -205 -232 -209h-12q-96 0 -161.5 52.5t-67.5 163.5zM364 0l566 1434h244l-568 -1434h-242zM944 100v202l98 390h199l-95 -411h89v237h198v-237h36v-181h-36v-100h-198v100h-291z" />
<glyph unicode="&#xbf;" horiz-adv-x="1050" d="M102 112v4q0 81 19 141.5t49 96.5t65.5 63t71.5 49.5t65.5 47.5t48 66t18.5 96h266q0 -87 -15 -153t-39 -105t-53.5 -68.5t-58.5 -51t-53 -43.5t-39 -55.5t-15 -79.5q0 -62 23 -102t66 -40h7q78 5 89 172h330v-10q-2 -103 -27.5 -184.5t-64.5 -134.5t-93 -88 t-109.5 -50.5t-116.5 -16.5h-15q-61 0 -119 14t-113 47.5t-96 83.5t-66 127.5t-25 173.5zM426 819v285h290v-285h-290z" />
<glyph unicode="&#xc0;" horiz-adv-x="1024" d="M44 0l261 1434h412l263 -1434h-321l-47 278h-199l-48 -278h-321zM310 1885h293l113 -351h-207zM446 599h130l-64 475z" />
<glyph unicode="&#xc1;" horiz-adv-x="1024" d="M44 0l261 1434h412l263 -1434h-321l-47 278h-199l-48 -278h-321zM337 1531l113 351h292l-199 -351h-206zM446 599h131l-65 475z" />
<glyph unicode="&#xc2;" horiz-adv-x="1024" d="M44 0l261 1434h412l263 -1434h-321l-47 278h-199l-48 -278h-321zM221 1529l150 327h284l150 -326h-191l-101 109l-101 -110h-191zM446 599h131l-65 475z" />
<glyph unicode="&#xc3;" horiz-adv-x="1024" d="M44 0l261 1434h412l263 -1434h-321l-47 278h-199l-48 -278h-321zM190 1531q0 65 10.5 120t33 102t63 73.5t94.5 26.5q37 0 64.5 -11t72.5 -40q46 -33 82 -18q32 10 33 69h194q0 -65 -10.5 -120t-33 -102t-63 -73.5t-94.5 -26.5q-37 0 -65 11t-72 40q-37 26 -72 23 q-43 -6 -44 -74h-193zM446 599h131l-65 475z" />
<glyph unicode="&#xc4;" horiz-adv-x="1024" d="M44 0l261 1434h412l263 -1434h-321l-47 278h-199l-48 -278h-321zM208 1584v259h265v-259h-265zM446 599h131l-65 475zM554 1584v259h264v-259h-264z" />
<glyph unicode="&#xc5;" horiz-adv-x="1024" d="M44 0l261 1434h412l263 -1434h-321l-47 278h-199l-48 -278h-321zM277 1734q0 98 69 167t167 69q97 0 166.5 -69t69.5 -167t-69 -167.5t-167 -69.5t-167 69.5t-69 167.5zM446 599h130l-64 475zM462 1734q0 -21 15 -36.5t36 -15.5t36 15.5t15 36.5t-15 35.5t-36 14.5 t-36 -14.5t-15 -35.5z" />
<glyph unicode="&#xc6;" horiz-adv-x="1230" d="M70 0l261 1434h825v-312h-299v-245h279v-311h-279v-254h299v-312h-620v278h-97l-48 -278h-321zM472 599h63v463z" />
<glyph unicode="&#xc7;" horiz-adv-x="921" d="M55 479v477q0 110 24.5 197t65 142t96.5 91t114 51t123 15q63 0 120 -14.5t111 -50t93.5 -89.5t64 -140t25.5 -195v-48h-321v40q-2 93 -24 139t-69 46q-50 0 -71.5 -48t-21.5 -147v-452q0 -100 21.5 -149t71.5 -49q47 0 68.5 46.5t24.5 140.5v40h321v-49 q-1 -200 -75.5 -313t-195.5 -153v-40q-1 -89 -13.5 -147t-44.5 -100t-85.5 -61.5t-136.5 -22.5h-40v191l38 4q36 7 50 35t16 85v40l-32 5q-66 15 -120.5 48t-100 89t-71.5 144.5t-26 201.5z" />
<glyph unicode="&#xc8;" horiz-adv-x="708" d="M59 0v1434h620v-312h-299v-245h279v-311h-279v-254h299v-312h-620zM153 1885h292l113 -351h-207z" />
<glyph unicode="&#xc9;" horiz-adv-x="708" d="M59 0v1434h620v-312h-299v-245h279v-311h-279v-254h299v-312h-620zM153 1531l113 351h292l-198 -351h-207z" />
<glyph unicode="&#xca;" horiz-adv-x="708" d="M59 0v1434h620v-312h-299v-245h279v-312h-279v-253h299v-312h-620zM64 1529l149 327h285l149 -326h-190l-101 109l-102 -110h-190z" />
<glyph unicode="&#xcb;" horiz-adv-x="708" d="M51 1584v259h264v-259h-264zM59 0v1434h620v-312h-299v-245h279v-311h-279v-254h299v-312h-620zM396 1584v259h264v-259h-264z" />
<glyph unicode="&#xcc;" horiz-adv-x="448" d="M22 1885h292l113 -351h-207zM59 0v1434h332v-1434h-332z" />
<glyph unicode="&#xcd;" horiz-adv-x="448" d="M22 1531l113 351h292l-198 -351h-207zM59 0v1434h332v-1434h-332z" />
<glyph unicode="&#xce;" horiz-adv-x="448" d="M-67 1529l149 327h285l149 -326h-190l-101 109l-102 -110h-190zM59 0v1434h332v-1434h-332z" />
<glyph unicode="&#xcf;" horiz-adv-x="448" d="M-80 1584v259h264v-259h-264zM59 0v1434h332v-1434h-332zM265 1584v259h265v-259h-265z" />
<glyph unicode="&#xd0;" horiz-adv-x="933" d="M-27 540v312h86v582h404q65 0 121 -13t112 -47.5t95 -88.5t63.5 -143t24.5 -204v-442q0 -115 -24.5 -204t-63.5 -143t-95 -88.5t-112 -47.5t-121 -13h-404v540h-86zM380 312h83q95 0 95 197v417q0 196 -95 196h-83v-270h100v-312h-100v-228z" />
<glyph unicode="&#xd1;" horiz-adv-x="1015" d="M54 0v1434h316l282 -694v694h310v-1434h-316l-281 694v-694h-311zM184 1531q0 65 10.5 120t33 102t63 73.5t94.5 26.5q37 0 65.5 -11t72.5 -40q46 -33 81 -18q33 10 34 69h193q0 -65 -10.5 -120t-33 -102t-63 -73.5t-94.5 -26.5q-37 0 -65 11t-72 40q-37 26 -71 23 q-43 -6 -44 -74h-194z" />
<glyph unicode="&#xd2;" horiz-adv-x="952" d="M52 479v477q0 110 24.5 197t65 142t96.5 91t114 51t123 15q64 0 122 -14.5t114 -50.5t97 -91t66 -142.5t25 -197.5v-477q0 -110 -25 -197t-66 -142t-97 -91t-114 -50.5t-122 -14.5q-82 0 -153.5 25t-134 79.5t-99 154.5t-36.5 236zM274 1885h293l113 -351h-207zM382 493 q0 -100 21.5 -149t71.5 -49q95 0 95 198v452q0 195 -95 195q-50 0 -71.5 -48t-21.5 -147v-452z" />
<glyph unicode="&#xd3;" horiz-adv-x="952" d="M52 479v477q0 110 24.5 197t65 142t96.5 91t114 51t123 15q64 0 122 -14.5t114 -50.5t97 -91t66 -142.5t25 -197.5v-477q0 -110 -25 -197t-66 -142t-97 -91t-114 -50.5t-122 -14.5q-82 0 -153.5 25t-134 79.5t-99 154.5t-36.5 236zM274 1531l113 351h293l-199 -351h-207z M382 493q0 -100 21.5 -149t71.5 -49q95 0 95 198v452q0 195 -95 195q-50 0 -71.5 -48t-21.5 -147v-452z" />
<glyph unicode="&#xd4;" horiz-adv-x="952" d="M52 479v477q0 110 24.5 197t65 142t96.5 91t114 51t123 15q64 0 122 -14.5t114 -50.5t97 -91t66 -142.5t25 -197.5v-477q0 -110 -25 -197t-66 -142t-97 -91t-114 -50.5t-122 -14.5q-82 0 -153.5 25t-134 79.5t-99 154.5t-36.5 236zM185 1529l150 327h284l150 -326h-191 l-101 109l-101 -110h-191zM382 493q0 -100 21.5 -149t71.5 -49q95 0 95 198v452q0 195 -95 195q-50 0 -71.5 -48t-21.5 -147v-452z" />
<glyph unicode="&#xd5;" horiz-adv-x="952" d="M52 479v477q0 110 24.5 197t65 142t96.5 91t114 51t123 15q64 0 122 -14.5t114 -50.5t97 -91t66 -142.5t25 -197.5v-477q0 -110 -25 -197t-66 -142t-97 -91t-114 -50.5t-122 -14.5q-82 0 -153.5 25t-134 79.5t-99 154.5t-36.5 236zM156 1531q0 88 18 157.5t64.5 117.5 t118.5 48q37 0 64 -11.5t72 -41.5q47 -32 82 -17q34 10 34 70h193q0 -89 -17.5 -158t-64 -117t-118.5 -48q-37 0 -65.5 11t-71.5 40q-38 26 -72 23q-43 -6 -43 -74h-194zM382 493q0 -100 21.5 -149t71.5 -49q95 0 95 198v452q0 195 -95 195q-50 0 -71.5 -48t-21.5 -147v-452 z" />
<glyph unicode="&#xd6;" horiz-adv-x="952" d="M52 479v477q0 110 24.5 197t65 142t96.5 91t114 51t123 15q64 0 122 -14.5t114 -50.5t97 -91t66 -142.5t25 -197.5v-477q0 -110 -25 -197t-66 -142t-97 -91t-114 -50.5t-122 -14.5q-82 0 -153.5 25t-134 79.5t-99 154.5t-36.5 236zM172 1584v259h264v-259h-264zM382 493 q0 -100 21.5 -149t71.5 -49q95 0 95 198v452q0 195 -95 195q-50 0 -71.5 -48t-21.5 -147v-452zM518 1584v259h264v-259h-264z" />
<glyph unicode="&#xd7;" horiz-adv-x="1114" d="M102 305l229 229l-229 228l235 235l229 -228l227 227l221 -221l-227 -227l227 -228l-235 -234l-227 227l-229 -229z" />
<glyph unicode="&#xd8;" horiz-adv-x="952" d="M51 479v477q0 110 24.5 197t64.5 142t96 91t114 51t123 15q71 0 137 -19l33 103h195l-65 -201q125 -130 125 -379v-477q0 -110 -25 -197t-66 -142t-97.5 -91t-114.5 -50.5t-122 -14.5q-73 0 -134 18l-34 -104h-195l65 201q-124 127 -124 380zM382 733l130 398 q-16 9 -37 9q-50 0 -71.5 -48t-21.5 -147v-212zM437 304q17 -9 38 -9q95 0 95 198v218z" />
<glyph unicode="&#xd9;" horiz-adv-x="940" d="M59 462q0 -110 23.5 -194.5t62.5 -137.5t93.5 -86.5t111.5 -46.5t122 -13q64 0 120.5 13t112 46.5t94.5 86t63.5 137.5t24.5 195v972h-321v-959q0 -96 -22.5 -138t-71.5 -42q-51 0 -71.5 41t-20.5 139v959h-321v-972zM269 1885h292l113 -351h-207z" />
<glyph unicode="&#xda;" horiz-adv-x="940" d="M59 462q0 -110 23.5 -194.5t62.5 -137.5t93.5 -86.5t111.5 -46.5t122 -13q64 0 120.5 13t112 46.5t94.5 86t63.5 137.5t24.5 195v972h-321v-959q0 -96 -22.5 -138t-71.5 -42q-51 0 -71.5 41t-20.5 139v959h-321v-972zM269 1531l113 351h292l-198 -351h-207z" />
<glyph unicode="&#xdb;" horiz-adv-x="940" d="M59 462q0 -110 23.5 -194.5t62.5 -137.5t93.5 -86.5t111.5 -46.5t122 -13q64 0 120.5 13t112 46.5t94.5 86t63.5 137.5t24.5 195v972h-321v-959q0 -96 -22.5 -138t-71.5 -42q-51 0 -71.5 41t-20.5 139v959h-321v-972zM180 1529l149 327h285l149 -326h-190l-101 109 l-102 -110h-190z" />
<glyph unicode="&#xdc;" horiz-adv-x="940" d="M59 462q0 -110 23.5 -194.5t62.5 -137.5t93.5 -86.5t111.5 -46.5t122 -13q64 0 120.5 13t112 46.5t94.5 86t63.5 137.5t24.5 195v972h-321v-959q0 -96 -22.5 -138t-71.5 -42q-51 0 -71.5 41t-20.5 139v959h-321v-972zM167 1584v259h264v-259h-264zM512 1584v259h264v-259 h-264z" />
<glyph unicode="&#xdd;" horiz-adv-x="1071" d="M44 1434h333l159 -523l159 523h333l-326 -891v-543h-333v542zM333 1531l113 351h293l-199 -351h-207z" />
<glyph unicode="&#xde;" horiz-adv-x="909" d="M59 0v1436h321v-169h46q85 -4 157.5 -26.5t136 -68t100 -125t36.5 -185.5v-97q0 -84 -24.5 -152t-65.5 -112.5t-97.5 -75.5t-116 -46t-126.5 -19h-46v-360h-321zM380 670h55q46 0 77.5 33t31.5 104v14q0 71 -31 104t-78 33h-55v-288z" />
<glyph unicode="&#xdf;" horiz-adv-x="1150" d="M51 0v977q0 463 514 472h31q87 0 162 -14.5t140.5 -47.5t112 -82.5t74.5 -122t31 -163.5v-28q0 -87 -35.5 -159.5t-83.5 -97.5q52 -25 88.5 -100.5t36.5 -171.5v-19q-1 -99 -28.5 -177t-71.5 -127t-105.5 -81t-126 -45t-138.5 -13h-204v313h204q134 0 141 116v18 q0 55 -34.5 92t-110.5 37h-96v315h90q135 0 142 107v15q0 125 -188 125h-27q-177 -6 -188 -137v-1001h-330z" />
<glyph unicode="&#xe0;" d="M46 344v338q0 98 23.5 171.5t63 112.5t83.5 57.5t93 18.5q132 0 201 -88l37 70h184v-1024h-184l-35 75q-70 -91 -203 -91q-49 0 -93 18.5t-83.5 57.5t-63 112.5t-23.5 171.5zM189 1475h293l113 -350h-207zM315 479q2 -154 15.5 -203.5t59.5 -49.5q31 0 46 22.5t20.5 75 t4.5 155.5v68q0 102 -7 155.5t-22 75.5t-44 22q-44 0 -58.5 -51t-14.5 -202v-68z" />
<glyph unicode="&#xe1;" d="M46 344v338q0 98 23.5 171.5t63 112.5t83.5 57.5t93 18.5q132 0 201 -88l37 70h184v-1024h-184l-35 75q-70 -91 -203 -91q-49 0 -93 18.5t-83.5 57.5t-63 112.5t-23.5 171.5zM189 1121l113 351h293l-199 -351h-207zM315 479q2 -154 15.5 -203.5t59.5 -49.5q31 0 46 22.5 t20.5 75t4.5 155.5v68q0 102 -7 155.5t-22 75.5t-44 22q-44 0 -58.5 -51t-14.5 -202v-68z" />
<glyph unicode="&#xe2;" d="M46 344v338q0 98 23.5 171.5t63 112.5t83.5 57.5t93 18.5q132 0 201 -88l37 70h184v-1024h-184l-35 75q-70 -91 -203 -91q-49 0 -93 18.5t-83.5 57.5t-63 112.5t-23.5 171.5zM100 1120l150 327h284l150 -327h-191l-101 110l-101 -110h-191zM315 479q2 -154 15.5 -203.5 t59.5 -49.5q31 0 46 22.5t20.5 75t4.5 155.5v68q0 102 -7 155.5t-22 75.5t-44 22q-44 0 -58.5 -51t-14.5 -202v-68z" />
<glyph unicode="&#xe3;" d="M46 344v338q0 98 23.5 171.5t63 112.5t83.5 57.5t93 18.5q132 0 201 -88l37 70h184v-1024h-184l-35 75q-70 -91 -203 -91q-49 0 -93 18.5t-83.5 57.5t-63 112.5t-23.5 171.5zM71 1123q0 89 17.5 158t64 117t118.5 48q37 0 64.5 -11.5t72.5 -41.5q47 -32 82 -17 q33 10 33 70h194q0 -89 -17.5 -158t-64 -117t-118.5 -48q-37 0 -65.5 11t-71.5 40q-38 26 -72 23q-43 -6 -43 -74h-194zM315 479q2 -154 15.5 -203.5t59.5 -49.5q31 0 46 22.5t20.5 75t4.5 155.5v68q0 102 -7 155.5t-22 75.5t-44 22q-44 0 -58.5 -51t-14.5 -202v-68z" />
<glyph unicode="&#xe4;" d="M46 344v338q0 98 23.5 171.5t63 112.5t83.5 57.5t93 18.5q132 0 201 -88l37 70h184v-1024h-184l-35 75q-70 -91 -203 -91q-49 0 -93 18.5t-83.5 57.5t-63 112.5t-23.5 171.5zM88 1174v260h264v-260h-264zM315 479q2 -154 15.5 -203.5t59.5 -49.5q31 0 46 22.5t20.5 75 t4.5 155.5v68q0 102 -7 155.5t-22 75.5t-44 22q-44 0 -58.5 -51t-14.5 -202v-68zM433 1174v260h264v-260h-264z" />
<glyph unicode="&#xe5;" d="M46 344v338q0 98 23.5 171.5t63 112.5t83.5 57.5t93 18.5q132 0 201 -88l37 70h184v-1024h-184l-35 75q-70 -91 -203 -91q-49 0 -93 18.5t-83.5 57.5t-63 112.5t-23.5 171.5zM156 1324q0 98 69 167t167 69t167 -69t69 -167t-69 -167t-167 -69t-167 69t-69 167zM315 479 q2 -154 15.5 -203.5t59.5 -49.5q31 0 46 22.5t20.5 75t4.5 155.5v68q0 102 -7 155.5t-22 75.5t-44 22q-44 0 -58.5 -51t-14.5 -202v-68zM341 1324q0 -21 15 -36t36 -15t36 15t15 36t-15 36t-36 15t-36 -15t-15 -36z" />
<glyph unicode="&#xe6;" horiz-adv-x="1298" d="M46 344v338q0 98 23.5 171.5t63 112.5t83.5 57.5t93 18.5q132 0 201 -88l37 70h184v-34q73 52 179 52q63 0 120 -18t109 -57.5t83 -112.5t31 -172v-262h-414l1 -31q0 -93 16 -127.5t57 -35.5q34 0 52 26.5t20 89.5h268q0 -79 -21 -142.5t-55 -103t-79.5 -65.5 t-91.5 -36.5t-96 -10.5q-106 0 -179 52v-36h-184l-35 75q-70 -91 -203 -91q-49 0 -93 18.5t-83.5 57.5t-63 112.5t-23.5 171.5zM315 479q2 -154 15.5 -203.5t59.5 -49.5q31 0 46 22.5t20.5 75t4.5 155.5v68q0 102 -7 155.5t-22 75.5t-44 22q-44 0 -58.5 -51t-14.5 -202v-68z M838 616h146l-1 40q-1 79 -19 110.5t-53 32.5q-37 0 -54.5 -31t-18.5 -113v-39z" />
<glyph unicode="&#xe7;" horiz-adv-x="765" d="M46 344v338q0 79 20.5 142.5t54 103t79 66t92 37.5t95.5 11q63 0 119 -18t106.5 -57t80.5 -111t30 -170v-57h-262q-1 96 -18.5 133.5t-54.5 37.5q-44 0 -58.5 -51t-14.5 -202v-68q2 -154 15.5 -203.5t59.5 -49.5q39 0 55.5 37t16.5 134h261v-56q-1 -244 -179 -325v-51 q-1 -90 -14.5 -149t-47 -100t-90 -59.5t-144.5 -20.5h-25v191h24q47 4 63 34t18 96v35q-24 2 -46 7q-103 26 -169.5 110.5t-66.5 234.5z" />
<glyph unicode="&#xe8;" horiz-adv-x="774" d="M46 344v338q0 79 20.5 142.5t54 103t79 66t92 37.5t95.5 11q63 0 120 -18t108.5 -57.5t82.5 -112.5t31 -172v-262h-413v-32q0 -92 16.5 -126.5t57.5 -35.5q34 0 52 26.5t20 89.5h268q0 -79 -21 -142.5t-55 -103t-79.5 -65.5t-91.5 -36.5t-96 -10.5q-49 0 -95.5 11 t-92 37.5t-79 66t-54 103t-20.5 142.5zM184 1475h292l114 -350h-207zM314 655l1 -38h145v40q-1 79 -19 110.5t-53 32.5q-38 -1 -55.5 -32t-18.5 -113z" />
<glyph unicode="&#xe9;" horiz-adv-x="774" d="M46 344v338q0 79 20.5 142.5t54 103t79 66t92 37.5t95.5 11q63 0 120 -18t108.5 -57.5t82.5 -112.5t31 -172v-262h-413v-32q0 -92 16.5 -126.5t57.5 -35.5q34 0 52 26.5t20 89.5h268q0 -79 -21 -142.5t-55 -103t-79.5 -65.5t-91.5 -36.5t-96 -10.5q-49 0 -95.5 11 t-92 37.5t-79 66t-54 103t-20.5 142.5zM184 1121l113 351h293l-199 -351h-207zM314 655l1 -38h145v40q-1 79 -19 110.5t-53 32.5q-38 -1 -55.5 -32t-18.5 -113z" />
<glyph unicode="&#xea;" horiz-adv-x="774" d="M46 344v338q0 79 20.5 142.5t54 103t79 66t92 37.5t95.5 11q63 0 120 -18t108.5 -57.5t82.5 -112.5t31 -172v-262h-413v-32q0 -92 16.5 -126.5t57.5 -35.5q34 0 52 26.5t20 89.5h268q0 -79 -21 -142.5t-55 -103t-79.5 -65.5t-91.5 -36.5t-96 -10.5q-49 0 -95.5 11 t-92 37.5t-79 66t-54 103t-20.5 142.5zM95 1120l150 327h284l149 -327h-190l-101 110l-101 -110h-191zM315 617h145v40q-1 79 -19 110.5t-53 32.5q-38 -1 -55 -32t-18 -113v-38z" />
<glyph unicode="&#xeb;" horiz-adv-x="774" d="M46 344v338q0 79 20.5 142.5t54 103t79 66t92 37.5t95.5 11q63 0 120 -18t108.5 -57.5t82.5 -112.5t31 -172v-262h-413v-32q0 -92 16.5 -126.5t57.5 -35.5q34 0 52 26.5t20 89.5h268q0 -79 -21 -142.5t-55 -103t-79.5 -65.5t-91.5 -36.5t-96 -10.5q-49 0 -95.5 11 t-92 37.5t-79 66t-54 103t-20.5 142.5zM82 1174v260h264v-260h-264zM315 617h145v40q-1 79 -19 110.5t-53 32.5q-38 -1 -55 -32t-18 -113v-38zM428 1174v260h264v-260h-264z" />
<glyph unicode="&#xec;" horiz-adv-x="552" d="M88 1475h292l113 -350h-207zM219 0v1024h270v-1024h-270z" />
<glyph unicode="&#xed;" horiz-adv-x="538" d="M50 1121l113 351h292l-198 -351h-207zM65 0v1024h269v-1024h-269z" />
<glyph unicode="&#xee;" horiz-adv-x="641" d="M30 1120l149 327h284l150 -327h-191l-101 110l-101 -110h-190zM192 0v1024h270v-1024h-270z" />
<glyph unicode="&#xef;" horiz-adv-x="708" d="M50 1174v260h264v-260h-264zM231 0v1024h270v-1024h-270zM396 1174v260h264v-260h-264z" />
<glyph unicode="&#xf0;" horiz-adv-x="956" d="M46 344v338q0 99 31 172t83 112.5t109 57.5t120 18q44 0 73 -26v56q-1 77 -19 107t-55 30q-31 0 -47 -25.5t-22 -89.5h-263l1 21q3 92 33 160t79.5 105t104 54t115.5 17q146 0 236 -85l115 68l127 -205l-144 -85q7 -26 7 -52v-748q0 -79 -21 -142t-54.5 -103t-78.5 -66.5 t-91.5 -37.5t-95.5 -11q-63 0 -120 18t-109 57.5t-83 112.5t-31 172zM315 479q-2 -150 13 -201.5t59 -51.5q46 0 59 49t15 204v68q0 150 -14.5 201.5t-58.5 51.5q-42 0 -57.5 -52t-15.5 -201v-68z" />
<glyph unicode="&#xf1;" horiz-adv-x="784" d="M53 0v1024h184l41 -77q74 95 206 95q48 0 91 -18.5t81 -58t60 -112t22 -171.5v-682h-269v547q0 151 -14.5 202t-58.5 51q-40 0 -57 -38.5t-18 -139.5v-622h-268zM71 1123q0 89 17.5 158t64 117t118.5 48q37 0 64 -11.5t72 -41.5q47 -32 82 -17q34 10 34 70h193 q0 -89 -17.5 -158t-64 -117t-118.5 -48q-37 0 -65.5 11t-71.5 40q-38 26 -72 23q-43 -6 -43 -74h-193z" />
<glyph unicode="&#xf2;" horiz-adv-x="776" d="M46 344v338q0 79 20.5 142.5t54 103t79 66t92 37.5t95.5 11q63 0 120 -18t109 -57.5t83 -112.5t31 -172v-338q0 -99 -31 -172t-83 -112.5t-109 -57.5t-120 -18q-49 0 -95.5 11t-92 37.5t-79 66t-54 103t-20.5 142.5zM186 1475h293l113 -350h-207zM315 479 q2 -154 15.5 -203.5t59.5 -49.5q44 0 58.5 51.5t12.5 201.5v68q0 149 -15.5 201t-57.5 52q-44 0 -58.5 -51t-14.5 -202v-68z" />
<glyph unicode="&#xf3;" horiz-adv-x="776" d="M46 344v338q0 79 20.5 142.5t54 103t79 66t92 37.5t95.5 11q63 0 120 -18t109 -57.5t83 -112.5t31 -172v-338q0 -99 -31 -172t-83 -112.5t-109 -57.5t-120 -18q-49 0 -95.5 11t-92 37.5t-79 66t-54 103t-20.5 142.5zM186 1121l114 351h292l-199 -351h-207zM315 479 q2 -154 15.5 -203.5t59.5 -49.5q44 0 58.5 51.5t12.5 201.5v68q0 149 -15.5 201t-57.5 52q-44 0 -58.5 -51t-14.5 -202v-68z" />
<glyph unicode="&#xf4;" horiz-adv-x="776" d="M46 344v338q0 79 20.5 142.5t54 103t79 66t92 37.5t95.5 11q63 0 120 -18t109 -57.5t83 -112.5t31 -172v-338q0 -99 -31 -172t-83 -112.5t-109 -57.5t-120 -18q-49 0 -95.5 11t-92 37.5t-79 66t-54 103t-20.5 142.5zM97 1120l150 327h284l150 -327h-191l-101 110 l-101 -110h-191zM315 479q2 -154 15.5 -203.5t59.5 -49.5q44 0 58.5 51.5t12.5 201.5v68q0 149 -15.5 201t-57.5 52q-44 0 -58.5 -51t-14.5 -202v-68z" />
<glyph unicode="&#xf5;" horiz-adv-x="776" d="M46 344v338q0 79 20.5 142.5t54 103t79 66t92 37.5t95.5 11q63 0 120 -18t109 -57.5t83 -112.5t31 -172v-338q0 -99 -31 -172t-83 -112.5t-109 -57.5t-120 -18q-49 0 -95.5 11t-92 37.5t-79 66t-54 103t-20.5 142.5zM67 1123q0 89 17.5 158t64 117t118.5 48 q37 0 64 -11.5t72 -41.5q48 -32 83 -17q33 10 33 70h193q0 -89 -17.5 -158t-64 -117t-118.5 -48q-37 0 -65.5 11t-71.5 40q-38 26 -71 23q-44 -6 -44 -74h-193zM315 479q2 -154 15.5 -203.5t59.5 -49.5q44 0 58.5 51.5t12.5 201.5v68q0 149 -15.5 201t-57.5 52 q-44 0 -58.5 -51t-14.5 -202v-68z" />
<glyph unicode="&#xf6;" horiz-adv-x="776" d="M46 344v338q0 79 20.5 142.5t54 103t79 66t92 37.5t95.5 11q63 0 120 -18t109 -57.5t83 -112.5t31 -172v-338q0 -99 -31 -172t-83 -112.5t-109 -57.5t-120 -18q-49 0 -95.5 11t-92 37.5t-79 66t-54 103t-20.5 142.5zM85 1174v260h264v-260h-264zM315 479 q2 -154 15.5 -203.5t59.5 -49.5q44 0 58.5 51.5t12.5 201.5v68q0 149 -15.5 201t-57.5 52q-44 0 -58.5 -51t-14.5 -202v-68zM430 1174v260h264v-260h-264z" />
<glyph unicode="&#xf7;" horiz-adv-x="1181" d="M102 389v312h978v-312h-978zM436 783v285h290v-285h-290zM438 22v285h290v-285h-290z" />
<glyph unicode="&#xf8;" horiz-adv-x="872" d="M108 344v338q0 79 20.5 142.5t54 103t78.5 66t91.5 37.5t95.5 11q53 0 97 -11l31 95h149l-51 -156q117 -95 117 -288v-338q0 -99 -31 -172t-83 -112.5t-109 -57.5t-120 -18q-50 0 -94 10l-31 -96h-148l51 157q-118 94 -118 289zM376 513l92 283q-9 3 -20 3q-44 0 -58 -50 t-14 -202v-34zM431 229q12 -2 19 -2q30 0 46 22t22 75t5 155v30z" />
<glyph unicode="&#xf9;" horiz-adv-x="780" d="M48 342v682h269v-546q0 -152 14.5 -203t58.5 -51q39 0 56 38t18 140v622h268v-1024h-184l-41 77q-74 -95 -206 -95q-48 0 -91 18.5t-80.5 58t-59.5 112t-22 171.5zM188 1475h292l113 -350h-207z" />
<glyph unicode="&#xfa;" horiz-adv-x="780" d="M48 342v682h269v-546q0 -152 14.5 -203t58.5 -51q39 0 56 38t18 140v622h268v-1024h-184l-41 77q-74 -95 -206 -95q-48 0 -91 18.5t-80.5 58t-59.5 112t-22 171.5zM188 1121l113 351h292l-198 -351h-207z" />
<glyph unicode="&#xfb;" horiz-adv-x="780" d="M48 342v682h269v-546q0 -152 14.5 -203t58.5 -51q39 0 56 38t18 140v622h268v-1024h-184l-41 77q-74 -95 -206 -95q-48 0 -91 18.5t-80.5 58t-59.5 112t-22 171.5zM99 1120l149 327h285l149 -327h-190l-101 110l-102 -110h-190z" />
<glyph unicode="&#xfc;" horiz-adv-x="780" d="M48 342v682h269v-546q0 -152 14.5 -203t58.5 -51q39 0 56 38t18 140v622h268v-1024h-184l-41 77q-74 -95 -206 -95q-48 0 -91 18.5t-80.5 58t-59.5 112t-22 171.5zM86 1174v260h264v-260h-264zM431 1174v260h265v-260h-265z" />
<glyph unicode="&#xfd;" horiz-adv-x="763" d="M40 360v664h269v-528q0 -152 14 -203t58 -51q42 0 58 52t17 202v529h268v-1022q0 -78 -21 -140.5t-54 -102t-78 -65.5t-91 -36.5t-95 -10.5q-56 0 -108.5 14.5t-101.5 46t-83 89t-44 135.5h272q14 -42 62 -42q38 0 55.5 28.5t17.5 99.5l1 38q-61 -57 -163 -57 q-48 0 -91 18.5t-80.5 58t-59.5 112t-22 171.5zM180 1121l113 351h292l-198 -351h-207z" />
<glyph unicode="&#xfe;" horiz-adv-x="784" d="M54 -334v1768h268v-449q61 57 163 57q48 0 91 -18.5t81 -58t60 -112.5t22 -172v-337q0 -99 -22 -172t-60 -112.5t-81 -58t-91 -18.5q-100 0 -163 57v-374h-268zM324 479q0 -102 7 -155.5t22 -75.5t44 -22q44 0 58.5 51t14.5 202v67q-2 154 -15.5 203.5t-59.5 49.5 q-31 0 -46 -22.5t-20.5 -75t-4.5 -155.5v-67z" />
<glyph unicode="&#xff;" horiz-adv-x="763" d="M40 360v664h269v-528q0 -152 14 -203t58 -51q42 0 58 52t17 202v530h268v-1023q0 -78 -21 -140.5t-54 -102t-78 -65.5t-91 -36.5t-95 -10.5q-56 0 -108.5 14.5t-101.5 46t-83 89t-44 135.5h272q14 -42 62 -42q38 0 55.5 28.5t17.5 99.5l1 38q-61 -57 -163 -57 q-48 0 -91 18.5t-80.5 58t-59.5 112t-22 171.5zM78 1174v260h264v-260h-264zM423 1174v260h264v-260h-264z" />
<glyph unicode="&#x152;" horiz-adv-x="1335" d="M46 479v477q0 110 24.5 197t65 142t96.5 91t114 51t123 15q120 0 197 -61v43h621v-312h-300v-245h280v-312h-280v-253h300v-312h-621v45q-77 -61 -197 -61q-82 0 -153.5 25t-134 79.5t-99 154.5t-36.5 236zM376 493q0 -100 21.5 -149t71.5 -49q95 0 95 198v452 q0 195 -95 195q-50 0 -71.5 -48t-21.5 -147v-452z" />
<glyph unicode="&#x153;" horiz-adv-x="1277" d="M74 344v338q0 98 23.5 171t63 112.5t83 58t92.5 18.5q158 0 228 -122q46 63 117 92.5t149 29.5q63 0 120 -18t109 -57.5t83 -112.5t31 -172v-262h-414v-37q0 -89 16.5 -122.5t57.5 -34.5q34 0 52 26.5t20 89.5h268q0 -79 -21 -142.5t-55 -103t-79.5 -65.5t-91.5 -36.5 t-96 -10.5q-78 0 -149.5 29.5t-117.5 92.5q-70 -122 -227 -122q-49 0 -92.5 18.5t-83 58t-63 112.5t-23.5 171zM343 479q2 -155 15 -204t59 -49q44 0 58.5 51.5t12.5 201.5v68q0 149 -15.5 201t-57.5 52q-44 0 -58 -50.5t-14 -202.5v-68zM759 662h142v42q-3 53 -21 74 t-49 22q-33 -1 -50.5 -22t-21.5 -74v-42z" />
<glyph unicode="&#x178;" horiz-adv-x="1071" d="M44 1434h333l159 -523l159 523h333l-326 -891v-543h-333v542zM231 1584v259h264v-259h-264zM577 1584v259h264v-259h-264z" />
<glyph unicode="&#x2c6;" horiz-adv-x="892" d="M156 1120l149 327h284l150 -327h-191l-100 110l-102 -110h-190z" />
<glyph unicode="&#x2dc;" d="M67 1121q0 65 10.5 120.5t33 102t63 73.5t94.5 27q37 0 65 -11.5t73 -40.5q41 -29 77 -20q38 8 38 72h193q0 -88 -18 -157.5t-64.5 -117.5t-118.5 -48q-36 0 -64 11t-73 40q-39 29 -73 23q-42 -7 -42 -74h-194z" />
<glyph unicode="&#x2000;" horiz-adv-x="985" />
<glyph unicode="&#x2001;" horiz-adv-x="1970" />
<glyph unicode="&#x2002;" horiz-adv-x="985" />
<glyph unicode="&#x2003;" horiz-adv-x="1970" />
<glyph unicode="&#x2004;" horiz-adv-x="656" />
<glyph unicode="&#x2005;" horiz-adv-x="492" />
<glyph unicode="&#x2006;" horiz-adv-x="328" />
<glyph unicode="&#x2007;" horiz-adv-x="328" />
<glyph unicode="&#x2008;" horiz-adv-x="246" />
<glyph unicode="&#x2009;" horiz-adv-x="394" />
<glyph unicode="&#x200a;" horiz-adv-x="109" />
<glyph unicode="&#x2010;" horiz-adv-x="712" d="M102 392v313h508v-313h-508z" />
<glyph unicode="&#x2011;" horiz-adv-x="712" d="M102 392v313h508v-313h-508z" />
<glyph unicode="&#x2012;" horiz-adv-x="712" d="M102 392v313h508v-313h-508z" />
<glyph unicode="&#x2013;" horiz-adv-x="966" d="M102 392v313h762v-313h-762z" />
<glyph unicode="&#x2014;" horiz-adv-x="1310" d="M102 392v313h1106v-313h-1106z" />
<glyph unicode="&#x2018;" horiz-adv-x="493" d="M102 857v285l103 292h114l-50 -292h123v-285h-290z" />
<glyph unicode="&#x2019;" horiz-adv-x="493" d="M102 1149v285h290v-285l-103 -292h-113l49 292h-123z" />
<glyph unicode="&#x201a;" horiz-adv-x="493" d="M102 0v285h290v-285l-103 -292h-113l49 292h-123z" />
<glyph unicode="&#x201c;" horiz-adv-x="933" d="M102 857v285l103 292h114l-50 -292h123v-285h-290zM543 857v285l103 292h113l-50 -292h123v-285h-289z" />
<glyph unicode="&#x201d;" horiz-adv-x="933" d="M102 1149v285h290v-285l-103 -292h-113l49 292h-123zM543 1149v285h289v-285l-103 -292h-113l50 292h-123z" />
<glyph unicode="&#x201e;" horiz-adv-x="493" d="M102 0v285h290v-285l-103 -292h-113l49 292h-123z" />
<glyph unicode="&#x2022;" horiz-adv-x="823" d="M46 594q0 151 107 258t258 107t258 -107t107 -258q0 -152 -107 -258.5t-258 -106.5t-258 106.5t-107 258.5z" />
<glyph unicode="&#x2026;" horiz-adv-x="1200" d="M102 0v285h290v-285h-290zM455 0v285h290v-285h-290zM809 0v285h289v-285h-289z" />
<glyph unicode="&#x202f;" horiz-adv-x="394" />
<glyph unicode="&#x2039;" horiz-adv-x="534" d="M103 374v315l330 301v-315l-159 -143l159 -142v-315z" />
<glyph unicode="&#x203a;" horiz-adv-x="534" d="M102 75v315l159 142l-159 143v315l330 -301v-314z" />
<glyph unicode="&#x205f;" horiz-adv-x="492" />
<glyph unicode="&#x20ac;" horiz-adv-x="1017" d="M45 565v126h104v53h-104v125h104v87q0 110 24.5 197t64.5 142t96 91t114 51t123 15q63 0 120 -14.5t111.5 -50t94 -89.5t63.5 -140t25 -195v-48h-320l-1 39q-2 93 -24 139.5t-69 46.5q-50 0 -71.5 -48t-21.5 -147v-76h393l-126 -125h-267v-53h214l-126 -126h-88v-72 q0 -100 21.5 -149t71.5 -49q47 0 69.5 47t24.5 142v38h320v-48q-1 -109 -25 -195t-63.5 -140.5t-94 -90t-111.5 -50t-120 -14.5q-82 0 -153.5 25t-133.5 79.5t-98.5 154.5t-36.5 236v86h-104z" />
<glyph unicode="&#x2122;" horiz-adv-x="1392" d="M31 1221v213h486v-213h-127v-617h-233v617h-126zM555 604v830h302l102 -380l102 380h302v-830h-234v386l-94 -336h-149l-97 336v-386h-234z" />
<glyph unicode="&#x25fc;" horiz-adv-x="1024" d="M0 0v1024h1024v-1024h-1024z" />
</font>
</defs>
</svg>
